<svg version="1.1" id="el_CUwzDrPa-" xmlns="http://www.w3.org/2000/svg" xmlns:xlink="http://www.w3.org/1999/xlink" x="0px" y="0px" viewBox="0 0 475 500" enable-background="new 0 0 475 500" xml:space="preserve"><style>@-webkit-keyframes el_410jWpbeofz_qXxn2zwh9_Animation{0%{-webkit-transform: translate(0px, 0px);transform: translate(0px, 0px);}30%{-webkit-transform: translate(5px, 0px);transform: translate(5px, 0px);}64.29%{-webkit-transform: translate(-5px, 0px);transform: translate(-5px, 0px);}100%{-webkit-transform: translate(0px, 0px);transform: translate(0px, 0px);}}@keyframes el_410jWpbeofz_qXxn2zwh9_Animation{0%{-webkit-transform: translate(0px, 0px);transform: translate(0px, 0px);}30%{-webkit-transform: translate(5px, 0px);transform: translate(5px, 0px);}64.29%{-webkit-transform: translate(-5px, 0px);transform: translate(-5px, 0px);}100%{-webkit-transform: translate(0px, 0px);transform: translate(0px, 0px);}}@-webkit-keyframes el_7OQOhhp_cpc_MuIFTDWRx_Animation{0%{-webkit-transform: translate(0px, 0px);transform: translate(0px, 0px);}71.43%{-webkit-transform: translate(0px, -330px);transform: translate(0px, -330px);}100%{-webkit-transform: translate(0px, -330px);transform: translate(0px, -330px);}}@keyframes el_7OQOhhp_cpc_MuIFTDWRx_Animation{0%{-webkit-transform: translate(0px, 0px);transform: translate(0px, 0px);}71.43%{-webkit-transform: translate(0px, -330px);transform: translate(0px, -330px);}100%{-webkit-transform: translate(0px, -330px);transform: translate(0px, -330px);}}@-webkit-keyframes el_A42MUB46tsL_VeHn_tZwD_Animation{71.43%{-webkit-transform: translate(0px, 0px);transform: translate(0px, 0px);}100%{-webkit-transform: translate(0px, -100px);transform: translate(0px, -100px);}0%{-webkit-transform: translate(0px, 0px);transform: translate(0px, 0px);}}@keyframes el_A42MUB46tsL_VeHn_tZwD_Animation{71.43%{-webkit-transform: translate(0px, 0px);transform: translate(0px, 0px);}100%{-webkit-transform: translate(0px, -100px);transform: translate(0px, -100px);}0%{-webkit-transform: translate(0px, 0px);transform: translate(0px, 0px);}}@-webkit-keyframes el_A42MUB46tsL_kUBNVRKaa_Animation{0%{-webkit-transform: scale(1, 1);transform: scale(1, 1);}71.43%{-webkit-transform: scale(0.4, 1);transform: scale(0.4, 1);}100%{-webkit-transform: scale(0.4, 0);transform: scale(0.4, 0);}}@keyframes el_A42MUB46tsL_kUBNVRKaa_Animation{0%{-webkit-transform: scale(1, 1);transform: scale(1, 1);}71.43%{-webkit-transform: scale(0.4, 1);transform: scale(0.4, 1);}100%{-webkit-transform: scale(0.4, 0);transform: scale(0.4, 0);}}#el_CUwzDrPa- *{-webkit-animation-duration: 7s;animation-duration: 7s;-webkit-animation-iteration-count: infinite;animation-iteration-count: infinite;-webkit-animation-timing-function: cubic-bezier(0, 0, 1, 1);animation-timing-function: cubic-bezier(0, 0, 1, 1);}#el_mYjcVyKS6a{fill: #1A707A;}#el_Ul6cFlBdJ6{fill: #186973;}#el_4ZNspSU-xK{fill: #24A5B0;}#el_uTtDBQTLyQ{fill: #10484D;}#el_Wl7xGXXk9D{fill: #10484D;}#el_EByByYPxyR{fill: #092629;}#el_zF3IRaK0H4{fill: #092629;}#el_r0wAO41vCb{fill: #092629;}#el_jSZAms7orn{fill: #1D838C;}#el_cVKz3G3UBR{fill: #24A5B0;}#el_BZ4KdYq1dN{fill: #1D838C;}#el_T0mz1V0rV-{fill: #24A5B0;}#el_G1oylsh6SiM{fill: #1D838C;}#el_TPgMcr6T_jc{opacity: 0.1;fill: #47413D;}#el_nGj0A-t7U1m{fill: #6C821B;}#el_1cFGbtxosH8{fill: #5B6B15;}#el_ThjQgiWvJd4{opacity: 0.3;fill: url(#SVGID_1_);}#el_83bixQt5tbl{opacity: 0.3;fill: url(#SVGID_2_);}#el_Bsu5PMygumy{fill: #5B6B15;}#el_dniHsBDswZh{fill: #5B6B15;}#el_Rf-SmiYTV0E{opacity: 0.3;fill: url(#SVGID_3_);}#el_dP6t8gO-2qA{opacity: 0.3;fill: url(#SVGID_4_);}#el_TgW8LDMwJEr{fill: #F0F0F0;}#el_iaUL27uAu0-{fill: #0F102E;}#el_xHGW-pJmmzm{fill: #F0F0F0;}#el__7Q_I2G78l4{fill: #0F102E;}#el_voMGp9yrAB-{fill: #F0F0F0;}#el_0H4DjIszeXf{fill: #FF7473;}#el_Vdsv9NsHLYx{fill: #FF7473;}#el__pWFfkzrf5f{fill: #FF7473;}#el_YgumpRZXuJs{fill: #FF7473;}#el_dzhI41j6MdA{fill: #FFFFFF;}#el_Ax0FXUwzoJJ{fill: #0F102E;}#el_mWYe7GpD0G8{fill: #0F102E;}#el_PrM4ObEE5zJ{fill: #0F102E;}#el_Sar4yXXmrUf{fill: #0F102E;}#el_of5kdhMA7ai{fill: #0F102E;}#el_W4dWA-Nlwuu{fill: #0F102E;}#el_OsnIcJoCHJE{fill: #0F102E;}#el_vzcwK-2LfGA{fill: #FF7473;}#el_NcxGLDGHpSE{fill: #0F102E;}#el_bErA4zs64Iz{fill: #FFFFFF;}#el_xxmh4mKbkVx{-webkit-transform: matrix(0.5004, -0.8658, 0.8658, 0.5004, -313.6931, 402.4053);transform: matrix(0.5004, -0.8658, 0.8658, 0.5004, -313.6931, 402.4053);fill: #0F102E;}#el_ki9ule9td1g{fill: #FFFFFF;}#el_OBOBMgd0VVh{fill: #0F102E;}#el_JqBFTRdmAEH{fill: #2A2930;}#el_YxlneyvHnmL{fill: #2A2930;}#el_G-o7f6FBh6a{fill: #666575;}#el_ky4oN62TmxF{opacity: 0.1;fill: #11213A;}#el_Y3gaLaNwEur{fill: #808694;}#el_n01tf75doWB{opacity: 0.1;fill: #FFFFFF;}#el__jRDVqQYjKU{fill: #DEE5FA;}#el_hmRc_FYYvor{fill: #C5CCDF;}#el_-HO9JUam8Af{fill: #151740;}#el__WN1yi8OZOh{fill: #0F102E;}#el_Lx0t4yLFXeV{opacity: 0.1;fill: #6D9ED9;}#el_cJgxbBLIzYk{fill: #B4BBCC;}#el__UnGEmSfAOb{fill: #B4BBCC;}#el_9Ru0qcBbCZi{fill: #B4BBCC;}#el_5CC62D_FJpO{fill: #EA3941;}#el_H-emuB1CMcv{fill: #DB3037;}#el_4LDXjshR1lJ{-webkit-transform: matrix(0.5592, 0.8291, -0.8291, 0.5592, 149.8047, -64.1177);transform: matrix(0.5592, 0.8291, -0.8291, 0.5592, 149.8047, -64.1177);opacity: 0.1;fill: #FFFFFF;}#el_fhxQpEilJW5{fill: #EA3941;}#el_LUEJ3aevcac{fill: #DB3037;}#el_ps6iNMQrJEf{-webkit-transform: matrix(0.559, 0.8292, -0.8292, 0.559, 237.1323, -228.2567);transform: matrix(0.559, 0.8292, -0.8292, 0.559, 237.1323, -228.2567);opacity: 0.1;fill: #FFFFFF;}#el_e3jvRqOpf-j{fill: #EA3941;}#el_0ZDc5nogr7q{fill: #DB3037;}#el_yVn0e0If-cG{-webkit-transform: matrix(0.559, 0.8292, -0.8292, 0.559, 190.3952, -103.8803);transform: matrix(0.559, 0.8292, -0.8292, 0.559, 190.3952, -103.8803);opacity: 0.1;fill: #FFFFFF;}#el_vH2BxGFmuYO{fill: #EA3941;}#el_R263Xeby0B9{fill: #DB3037;}#el_7HjSrRHohQz{-webkit-transform: matrix(0.5588, 0.8293, -0.8293, 0.5588, 226.2712, -171.2411);transform: matrix(0.5588, 0.8293, -0.8293, 0.5588, 226.2712, -171.2411);opacity: 0.1;fill: #FFFFFF;}#el_eP5RSFyMt9t{opacity: 0.2;}#el_L8rLg5yn2wf{fill: #FFFFFF;}#el_g4zzrKCqbYn{fill: #FFFFFF;}#el_-1ZwuiFTT1R{fill: #45444F;}#el_Paz2bxjZJ8x{fill: #45444F;}#el_jPYW8HU-B-a{opacity: 0.1;fill: #6D9ED9;}#el_AFsG9NZkdtX{fill: #45444F;}#el_JLrCvc6TJxE{opacity: 0.1;fill: #6D9ED9;}#el_A42MUB46tsL_kUBNVRKaa{-webkit-animation-name: el_A42MUB46tsL_kUBNVRKaa_Animation;animation-name: el_A42MUB46tsL_kUBNVRKaa_Animation;-webkit-transform-origin: 50% 0%;transform-origin: 50% 0%;transform-box: fill-box;}#el_A42MUB46tsL_VeHn_tZwD{-webkit-animation-name: el_A42MUB46tsL_VeHn_tZwD_Animation;animation-name: el_A42MUB46tsL_VeHn_tZwD_Animation;-webkit-transform-origin: 50% 0%;transform-origin: 50% 0%;transform-box: fill-box;}#el_7OQOhhp_cpc_MuIFTDWRx{-webkit-animation-name: el_7OQOhhp_cpc_MuIFTDWRx_Animation;animation-name: el_7OQOhhp_cpc_MuIFTDWRx_Animation;-webkit-transform-origin: 50% 50%;transform-origin: 50% 50%;transform-box: fill-box;}#el_410jWpbeofz_qXxn2zwh9{-webkit-animation-name: el_410jWpbeofz_qXxn2zwh9_Animation;animation-name: el_410jWpbeofz_qXxn2zwh9_Animation;-webkit-transform-origin: 50% 50%;transform-origin: 50% 50%;transform-box: fill-box;}</style>
<g id="el_sLQKO_Ob79">
	<g id="el_RkwiCFrY-6">
		<path d="M300.368,369.023c-40.913,0-74.079,37.142-74.079,82.959h148.156&#10;&#9;&#9;&#9;C374.445,406.165,341.278,369.023,300.368,369.023z" id="el_mYjcVyKS6a"/>
		<path d="M78.599,451.91l40.207-81.542c27.134-55.025,88.758-58.585,119.646-6.91l52.869,88.452H78.599z" id="el_Ul6cFlBdJ6"/>
	</g>
	<g id="el_DXyhikQGvx">
		<polygon points="129.91,452.26 176.69,452.26 176.69,416.638 153.364,392.733 129.91,416.638 &#9;&#9;" id="el_4ZNspSU-xK"/>
		<rect x="148.051" y="434.542" width="13.216" height="18.03" id="el_uTtDBQTLyQ"/>
		<polygon points="95.681,392.733 153.364,392.733 129.91,416.638 72.226,416.638 &#9;&#9;" id="el_Wl7xGXXk9D"/>
		<path d="M98.28,395.374c0.204-0.203,1.049-0.114,0.845,0.095c-0.684,0.688-2.239,3.224,0.876,3.247&#10;&#9;&#9;&#9;c2.859,0.023,4.684-1.296,5.856-2.164c0-0.004,0-0.008,0-0.008c-0.023-0.11,0.176-0.164,0.389-0.168c0,0,0.006,0,0.01,0h0.008&#10;&#9;&#9;&#9;c0.303-0.019,0.652,0.109,0.48,0.249c0.074,0.476-0.006,1.032,0.384,1.472c0.852,0.961,2.876,1.006,4.9,0.532&#10;&#9;&#9;&#9;c2.128-0.495,3.671-1.386,4.667-2.253c0.117-0.1,0.363-0.105,0.551-0.063c0.242-0.063,0.684-0.018,0.723,0.138&#10;&#9;&#9;&#9;c0.124,0.512,0.379,1.015,0.919,1.484c0.82,0.709,2.489,0.901,4.325,0.646c2.417-0.332,4.13-1.171,5.299-2.03&#10;&#9;&#9;&#9;c0.266-0.196,1.021-0.02,0.754,0.174c-0.022,0.017-0.043,0.033-0.067,0.048c0.338,0.569,0.707,1.398,1.62,1.854&#10;&#9;&#9;&#9;c1.491,0.745,4.081,0.299,5.83-0.07c2.7-0.565,4.829-1.471,6.796-2.376c0.363-0.171,0.979,0.075,0.617,0.243&#10;&#9;&#9;&#9;c-2.64,1.216-5.754,2.492-9.855,2.877c-1.196,0.11-2.581,0.212-3.543-0.148c-1.13-0.427-1.711-1.288-2.109-1.956&#10;&#9;&#9;&#9;c-1.597,0.964-4.064,1.867-7.067,1.877c-3.011,0.011-3.954-1.29-4.295-2.304c-1.411,1.113-4.133,2.498-7.451,2.543&#10;&#9;&#9;&#9;c-3.123,0.043-3.593-1.129-3.776-2.132c-1.491,0.988-3.862,2.188-6.925,1.883c-1.266-0.126-1.413-0.601-1.577-1.055&#10;&#9;&#9;&#9;C97.134,397.104,97.445,396.221,98.28,395.374z" id="el_EByByYPxyR"/>
		<path d="M89.469,402.297c0.201-0.204,1.046-0.115,0.842,0.092c-0.682,0.691-2.236,3.223,0.878,3.251&#10;&#9;&#9;&#9;c2.857,0.024,4.684-1.297,5.858-2.168l-0.003-0.007c-0.021-0.107,0.177-0.163,0.391-0.165c0,0,0.005,0,0.01-0.004&#10;&#9;&#9;&#9;c0.001,0,0.007,0,0.007,0c0.303-0.017,0.652,0.108,0.479,0.252c0.075,0.477-0.004,1.03,0.385,1.471&#10;&#9;&#9;&#9;c0.852,0.962,2.876,1.005,4.9,0.532c2.126-0.493,3.671-1.387,4.671-2.251c0.111-0.102,0.36-0.107,0.549-0.064&#10;&#9;&#9;&#9;c0.241-0.063,0.683-0.02,0.721,0.135c0.126,0.512,0.38,1.019,0.92,1.485c0.818,0.712,2.489,0.902,4.327,0.647&#10;&#9;&#9;&#9;c2.414-0.333,4.129-1.172,5.297-2.031c0.266-0.195,1.019-0.022,0.754,0.174c-0.021,0.017-0.047,0.031-0.066,0.048&#10;&#9;&#9;&#9;c0.338,0.569,0.708,1.397,1.617,1.853c1.495,0.746,4.084,0.301,5.831-0.066c2.704-0.567,4.831-1.474,6.796-2.38&#10;&#9;&#9;&#9;c0.367-0.17,0.982,0.076,0.62,0.244c-2.643,1.217-5.756,2.489-9.854,2.876c-1.202,0.113-2.584,0.215-3.545-0.149&#10;&#9;&#9;&#9;c-1.135-0.428-1.712-1.286-2.111-1.953c-1.595,0.964-4.063,1.866-7.067,1.875c-3.01,0.012-3.956-1.29-4.3-2.303&#10;&#9;&#9;&#9;c-1.406,1.113-4.127,2.495-7.445,2.544c-3.128,0.042-3.594-1.131-3.777-2.136c-1.493,0.991-3.863,2.19-6.925,1.886&#10;&#9;&#9;&#9;c-1.265-0.125-1.412-0.601-1.58-1.056C88.321,404.026,88.634,403.141,89.469,402.297z" id="el_zF3IRaK0H4"/>
		<path d="M83.716,409.524c0.204-0.204,1.05-0.116,0.845,0.093c-0.684,0.69-2.238,3.224,0.877,3.249&#10;&#9;&#9;&#9;c2.856,0.024,4.682-1.296,5.858-2.164l-0.003-0.012c-0.022-0.106,0.176-0.162,0.391-0.163h0.009c0.003,0,0.005,0,0.007,0&#10;&#9;&#9;&#9;c0.305-0.02,0.652,0.106,0.479,0.249c0.075,0.476-0.005,1.031,0.386,1.469c0.851,0.963,2.873,1.006,4.899,0.534&#10;&#9;&#9;&#9;c2.126-0.495,3.671-1.386,4.667-2.251c0.117-0.102,0.364-0.108,0.553-0.064c0.24-0.063,0.682-0.021,0.72,0.135&#10;&#9;&#9;&#9;c0.127,0.51,0.379,1.015,0.92,1.486c0.82,0.712,2.489,0.898,4.327,0.647c2.415-0.336,4.128-1.173,5.296-2.032&#10;&#9;&#9;&#9;c0.267-0.196,1.021-0.021,0.756,0.173c-0.02,0.016-0.045,0.033-0.067,0.047c0.338,0.569,0.709,1.399,1.617,1.854&#10;&#9;&#9;&#9;c1.496,0.748,4.085,0.301,5.833-0.068c2.7-0.565,4.828-1.471,6.796-2.378c0.364-0.169,0.982,0.075,0.615,0.242&#10;&#9;&#9;&#9;c-2.637,1.219-5.752,2.495-9.851,2.878c-1.202,0.11-2.584,0.212-3.545-0.149c-1.134-0.426-1.714-1.287-2.111-1.952&#10;&#9;&#9;&#9;c-1.597,0.963-4.063,1.864-7.067,1.878c-3.01,0.009-3.953-1.294-4.297-2.306c-1.409,1.111-4.129,2.498-7.449,2.541&#10;&#9;&#9;&#9;c-3.125,0.043-3.592-1.129-3.774-2.132c-1.493,0.99-3.865,2.188-6.928,1.883c-1.265-0.126-1.412-0.601-1.576-1.055&#10;&#9;&#9;&#9;C82.57,411.255,82.885,410.369,83.716,409.524z" id="el_r0wAO41vCb"/>
		<rect x="72.226" y="416.638" width="57.685" height="35.622" id="el_jSZAms7orn"/>
		<polygon points="135.274,389.396 135.274,395.324 129.91,400.789 129.91,389.396 &#9;&#9;" id="el_cVKz3G3UBR"/>
		<rect x="122.611" y="389.396" width="7.299" height="11.394" id="el_BZ4KdYq1dN"/>
		<polygon points="112.795,389.396 112.795,395.324 107.431,400.789 107.431,389.396 &#9;&#9;" id="el_T0mz1V0rV-"/>
		<rect x="100.133" y="389.396" width="7.298" height="11.394" id="el_G1oylsh6SiM"/>
		<rect x="72.226" y="416.638" width="57.685" height="3.866" id="el_TPgMcr6T_jc"/>
	</g>
	<path d="M419.132,496.949H60.908c-15.568,0-28.189-10.005-28.189-22.346l0,0c0-12.342,12.621-22.344,28.189-22.344&#10;&#9;&#9;h358.224c15.568,0,28.189,10.002,28.189,22.344l0,0C447.321,486.944,434.7,496.949,419.132,496.949z" id="el_nGj0A-t7U1m"/>
	<path d="M286.515,492.272H124.168c-3.903,0-7.069-2.51-7.069-5.604l0,0c0-3.098,3.166-5.604,7.069-5.604h162.347&#10;&#9;&#9;c3.905,0,7.07,2.506,7.07,5.604l0,0C293.585,489.763,290.42,492.272,286.515,492.272z" id="el_1cFGbtxosH8"/>
	<linearGradient id="SVGID_1_" gradientUnits="userSpaceOnUse" x1="27.6787" y1="376.875" x2="107.9121" y2="376.875">
		<stop offset="0" style="stop-color:#3C408F"/>
		<stop offset="1" style="stop-color:#5B61CF"/>
	</linearGradient>
	<path d="M34.799,380.368c1.348,0,2.629,0.304,3.803,0.843&#10;&#9;&#9;c4.565-6.938,10.413-11.136,16.806-11.136c5.763,0,11.085,3.406,15.423,9.161c2.841-1.268,5.977-1.994,9.289-1.994&#10;&#9;&#9;c5.599,0,10.704,2.029,14.684,5.362c1.685-1.397,3.746-2.236,5.986-2.236c2.771,0,5.278,1.264,7.123,3.308H96.021h-2.354H73.723&#10;&#9;&#9;h-9.502H41.924h-4.833h-9.412C29.525,381.632,32.032,380.368,34.799,380.368z" id="el_ThjQgiWvJd4"/>
	<linearGradient id="SVGID_2_" gradientUnits="userSpaceOnUse" x1="44.6045" y1="370.0742" x2="137.8604" y2="370.0742">
		<stop offset="0" style="stop-color:#3C408F"/>
		<stop offset="1" style="stop-color:#5B61CF"/>
	</linearGradient>
	<path d="M52.884,374.134c1.563,0,3.051,0.354,4.417,0.981&#10;&#9;&#9;c5.308-8.067,12.102-12.945,19.534-12.945c6.693,0,12.875,3.955,17.915,10.635c3.302-1.475,6.956-2.303,10.809-2.303&#10;&#9;&#9;c6.507,0,12.453,2.35,17.075,6.224c1.957-1.622,4.352-2.592,6.948-2.592c3.219,0,6.135,1.467,8.278,3.845h-13.821h-2.734H98.122&#10;&#9;&#9;H87.076H61.162h-5.617h-10.94C46.751,375.601,49.666,374.134,52.884,374.134z" id="el_83bixQt5tbl"/>
	<path d="M97.56,468.589H73.928c-3.389,0-6.133-2.175-6.133-4.86l0,0c0-2.687,2.744-4.861,6.133-4.861H97.56&#10;&#9;&#9;c3.389,0,6.134,2.175,6.134,4.861l0,0C103.693,466.414,100.948,468.589,97.56,468.589z" id="el_Bsu5PMygumy"/>
	<path d="M120.587,468.589h-6.142c-3.388,0-6.132-2.175-6.132-4.86l0,0c0-2.687,2.744-4.861,6.132-4.861h6.142&#10;&#9;&#9;c3.387,0,6.132,2.175,6.132,4.861l0,0C126.719,466.414,123.974,468.589,120.587,468.589z" id="el_dniHsBDswZh"/>
	<g id="el_A42MUB46tsL_VeHn_tZwD" data-animator-group="true" data-animator-type="0"><g id="el_A42MUB46tsL_kUBNVRKaa" data-animator-group="true" data-animator-type="2"><g id="el_A42MUB46tsL">
		<linearGradient id="SVGID_3_" gradientUnits="userSpaceOnUse" x1="237.5005" y1="157.1313" x2="237.5005" y2="481.6992">
			<stop offset="0" style="stop-color:#3C408F"/>
			<stop offset="1" style="stop-color:#5B61CF"/>
		</linearGradient>
		<rect x="156.052" y="161.601" width="162.898" height="314.732" id="el_Rf-SmiYTV0E"/>
		<linearGradient id="SVGID_4_" gradientUnits="userSpaceOnUse" x1="237.4995" y1="157.1313" x2="237.4995" y2="481.6992">
			<stop offset="0" style="stop-color:#3C408F"/>
			<stop offset="1" style="stop-color:#5B61CF"/>
		</linearGradient>
		<rect x="184.922" y="161.601" width="105.156" height="314.732" id="el_dP6t8gO-2qA"/>
	</g></g></g>
	<g id="el_7OQOhhp_cpc_MuIFTDWRx" data-animator-group="true" data-animator-type="0"><g id="el_7OQOhhp_cpc">
		<g id="el_6NHxdCiHVGT">
			<path d="M263.231,444.624l-3.62-8.667l-12.504,14.807c0,0,1.006,11.787,7.403,11.211l-5.39,13.515h5.39&#10;&#9;&#9;&#9;&#9;l8.521-18.674C264.793,452.957,264.866,448.539,263.231,444.624z" id="el_TgW8LDMwJEr"/>
			<path d="M250.955,470.895L250.955,470.895c-1.8,0.354-3.3,1.593-3.988,3.295l-0.527,1.3h8.074l1.314-2.886&#10;&#9;&#9;&#9;&#9;L250.955,470.895z" id="el_iaUL27uAu0-"/>
		</g>
		<g id="el_qTvzrs65WwF">
			<polygon points="222.726,458.669 227.24,470.895 232.143,472.614 230.386,457.809 &#9;&#9;&#9;" id="el_xHGW-pJmmzm"/>
			<path d="M227.24,470.895L227.24,470.895c-1.799,0.354-3.3,1.593-3.989,3.295l-0.525,1.3h8.073l1.344-2.875&#10;&#9;&#9;&#9;&#9;L227.24,470.895z" id="el__7Q_I2G78l4"/>
		</g>
		<path d="M190.07,454.943c2.188,0.87,3.256,3.351,2.386,5.537l-7.924-3.151&#10;&#9;&#9;&#9;C185.404,455.141,187.883,454.072,190.07,454.943z" id="el_voMGp9yrAB-"/>
		<g id="el_sv_AXLLcKhp">
			<circle cx="263.833" cy="455.017" r="10.112" id="el_0H4DjIszeXf"/>
			<path d="M260.992,466.807L260.992,466.807c-0.623-0.125-1.024-0.731-0.899-1.354l0.43-2.112&#10;&#9;&#9;&#9;&#9;c0.126-0.623,0.732-1.025,1.355-0.899l0,0c0.622,0.127,1.024,0.732,0.897,1.356l-0.428,2.114&#10;&#9;&#9;&#9;&#9;C262.221,466.532,261.612,466.935,260.992,466.807z" id="el_Vdsv9NsHLYx"/>
			<path d="M254.742,463.56L254.742,463.56c-0.416-0.481-0.361-1.208,0.118-1.622l1.634-1.411&#10;&#9;&#9;&#9;&#9;c0.481-0.413,1.207-0.358,1.622,0.122l0,0c0.415,0.479,0.36,1.205-0.119,1.621l-1.632,1.408&#10;&#9;&#9;&#9;&#9;C255.883,464.094,255.158,464.04,254.742,463.56z" id="el__pWFfkzrf5f"/>
			<path d="M268.084,466.432L268.084,466.432c-0.61,0.176-1.247-0.179-1.422-0.789l-0.593-2.071&#10;&#9;&#9;&#9;&#9;c-0.174-0.612,0.179-1.249,0.79-1.424l0,0c0.609-0.173,1.247,0.179,1.422,0.789l0.593,2.074&#10;&#9;&#9;&#9;&#9;C269.048,465.621,268.695,466.257,268.084,466.432z" id="el_YgumpRZXuJs"/>
		</g>
		<g id="el_kW3gFQpOAv0">
			<path d="M218.056,475.489l7.046-15.065c0,0,33.171,1.838,38.346-9.66c0,0,1.007,11.787,7.402,11.211l-5.39,13.515&#10;&#9;&#9;&#9;&#9;h5.39l8.521-18.674c1.761-3.858,1.834-8.276,0.199-12.191l-3.618-8.667c-3.091-7.398-10.322-12.218-18.341-12.218h-22.238&#10;&#9;&#9;&#9;&#9;c-1.955,0-3.882-0.469-5.617-1.365l0,0c-3.696-1.907-8.214-1.089-11.005,1.996l-24.945,27.548&#10;&#9;&#9;&#9;&#9;c-2.196,2.425-3.566,5.486-3.908,8.741l-0.715,6.791c-0.292,2.769,1.138,5.434,3.604,6.719l0,0&#10;&#9;&#9;&#9;&#9;c1.377,0.719,3.073,0.146,3.731-1.258l0,0c3.194-6.825,9.61-11.58,17.069-12.646l4.688-0.672l-5.428,15.896H218.056z" id="el_dzhI41j6MdA"/>
			<path d="M267.294,470.895L267.294,470.895c-1.803,0.354-3.301,1.593-3.991,3.295l-0.527,1.3h8.074l1.315-2.886&#10;&#9;&#9;&#9;&#9;L267.294,470.895z" id="el_Ax0FXUwzoJJ"/>
			<path d="M214.5,470.895L214.5,470.895c-1.802,0.354-3.303,1.593-3.992,3.295l-0.525,1.3h8.073l1.344-2.875&#10;&#9;&#9;&#9;&#9;L214.5,470.895z" id="el_mWYe7GpD0G8"/>
			<path d="M235.373,423.739h22.238v2.546c0,3.516,2.852,6.368,6.367,6.368l0,0c1.869,0,3.383,1.514,3.383,3.381&#10;&#9;&#9;&#9;&#9;v3.32c0,1.869-1.514,3.383-3.383,3.383h-10.462c-2.93,0-5.307,2.376-5.307,5.306l0,0c0,1.503-1.218,2.721-2.72,2.721h-12.992&#10;&#9;&#9;&#9;&#9;c-5.82,0-10.536-4.718-10.536-10.539v-0.36c0-3.154,2.556-5.713,5.711-5.713l0,0c4.251,0,7.7-3.447,7.7-7.698V423.739z" id="el_PrM4ObEE5zJ"/>
			<path d="M258.649,445.193h-4.729c-1.538,0-2.785,1.245-2.785,2.785l0,0c0,1.538,1.247,2.785,2.785,2.785h4.729&#10;&#9;&#9;&#9;&#9;c1.539,0,2.785-1.247,2.785-2.785l0,0C261.435,446.438,260.188,445.193,258.649,445.193z" id="el_Sar4yXXmrUf"/>
			<path d="M209.982,434.052h4.165c3.02,0,5.017,3.144,3.732,5.88l-0.433,0.922c-0.68,1.447-2.135,2.373-3.734,2.373&#10;&#9;&#9;&#9;&#9;h-2.167c-1.549,0-2.804,1.253-2.804,2.802l0,0c0,1.321-1.07,2.392-2.392,2.392h-9.378L209.982,434.052z" id="el_of5kdhMA7ai"/>
			<path d="M223.99,433.083h-5.188c-1.39,0-2.517-1.127-2.517-2.517l0,0c0-1.389,1.127-2.516,2.517-2.516h5.188&#10;&#9;&#9;&#9;&#9;c1.389,0,2.517,1.127,2.517,2.516l0,0C226.507,431.956,225.379,433.083,223.99,433.083z" id="el_W4dWA-Nlwuu"/>
			<path d="M227.942,426.902h-1.008c-0.872,0-1.581-0.708-1.581-1.582l0,0c0-0.872,0.709-1.581,1.581-1.581h1.008&#10;&#9;&#9;&#9;&#9;c0.872,0,1.58,0.709,1.58,1.581l0,0C229.522,426.194,228.814,426.902,227.942,426.902z" id="el_OsnIcJoCHJE"/>
			<path d="M189.218,466.719l9.063,3.096l-2.342,4.479c-0.354,0.68-1.165,0.982-1.88,0.704l-2.296-0.895&#10;&#9;&#9;&#9;&#9;c-2.016-0.787-3.222-2.864-2.9-5.007L189.218,466.719z" id="el_vzcwK-2LfGA"/>
			<circle cx="193.288" cy="463.198" r="1.042" id="el_NcxGLDGHpSE"/>
			<path d="M192.198,452.668c1.683,1.646,1.71,4.347,0.06,6.028l-6.089-5.971&#10;&#9;&#9;&#9;&#9;C187.817,451.045,190.518,451.019,192.198,452.668z" id="el_bErA4zs64Iz"/>
			
				<ellipse cx="191.848" cy="473.026" rx="0.575" ry="1.628" id="el_xxmh4mKbkVx"/>
		</g>
		<g id="el_f0pDTei16dZ">
			<path d="M284.148,434.93c-2.487-3.098-6.256-2.774-9.754-1.979c-1.807,0.408-1.037,3.179,0.765,2.771&#10;&#9;&#9;&#9;&#9;c2.894-0.656,5.805-0.984,7.409,2.015c1.399,2.613,1.788,5.952,2.209,8.843c0.266,1.824,3.034,1.042,2.77-0.766&#10;&#9;&#9;&#9;&#9;C287.024,442.219,286.501,437.86,284.148,434.93z" id="el_ki9ule9td1g"/>
			<path d="M290.449,448.055c-0.262-1.981-2.084-3.375-4.064-3.114c-1.983,0.266-3.378,2.085-3.113,4.068&#10;&#9;&#9;&#9;&#9;c0.091,0.687,0.685,1.84,1.418,3.053c1.289,2.12,4.498,1.694,5.186-0.689C290.27,450.01,290.542,448.742,290.449,448.055z" id="el_OBOBMgd0VVh"/>
		</g>
	</g></g>
	<g id="el_410jWpbeofz_qXxn2zwh9" data-animator-group="true" data-animator-type="0"><g id="el_410jWpbeofz">
		<path d="M202.569,151.25l-8.972,72.384c-0.406,3.279,2.827,5.244,4.269,2.596l16.729-30.724&#10;&#9;&#9;&#9;c8.053-14.788,4.861-36.169-7.005-46.934l0,0C205.592,146.76,202.951,148.167,202.569,151.25z" id="el_JqBFTRdmAEH"/>
		<path d="M272.855,151.25l8.974,72.384c0.405,3.279-2.829,5.244-4.271,2.596l-16.729-30.724&#10;&#9;&#9;&#9;c-8.051-14.788-4.86-36.169,7.007-46.934l0,0C269.834,146.76,272.473,148.167,272.855,151.25z" id="el_YxlneyvHnmL"/>
		<path d="M335.593,142.336c-3.823,10.745-10.521,20.573-19.386,28.943c-18.661,17.662-46.992,28.924-78.71,28.924&#10;&#9;&#9;&#9;c-31.72,0-60.06-11.262-78.72-28.924c-8.868-8.379-15.554-18.208-19.377-28.943H335.593z" id="el_G-o7f6FBh6a"/>
		<path d="M335.593,142.336c-3.823,10.745-10.521,20.573-19.386,28.943&#10;&#9;&#9;&#9;c-22.585,4.873-49.637,7.708-78.71,7.708c-29.074,0-56.135-2.835-78.72-7.708c-8.868-8.379-15.554-18.208-19.377-28.943H335.593z" id="el_ky4oN62TmxF"/>
		<path d="M375.027,129.785c-17.433,19.464-72.401,33.681-137.527,33.681c-65.125,0-120.097-14.217-137.527-33.681&#10;&#9;&#9;&#9;v-8.586h275.055V129.785z" id="el_Y3gaLaNwEur"/>
		<path d="M159.44,90.162L159.44,90.162c48.507,27.118,107.612,27.118,156.118,0l0,0V81.11&#10;&#9;&#9;&#9;c0-43.111-34.949-78.059-78.059-78.059h-0.002c-43.109,0-78.058,34.948-78.058,78.059V90.162z" id="el_n01tf75doWB"/>
		<path d="M375.027,121.197c-17.436,19.463-72.4,33.678-137.53,33.678c-65.121,0-120.099-14.215-137.521-33.678&#10;&#9;&#9;&#9;l2.941-1.535l56.521-29.5c48.51,27.121,107.615,27.121,156.114,0l56.531,29.5L375.027,121.197z" id="el__jRDVqQYjKU"/>
		<path d="M372.085,119.662c-9.103,8.131-24.895,15.204-45.2,20.513c-1,0.268-2.02,0.525-3.05,0.782&#10;&#9;&#9;&#9;c-23.645,5.845-52.997,9.352-84.851,9.449c-0.497,0.01-0.992,0.01-1.487,0.01c-0.496,0-0.991,0-1.487-0.01&#10;&#9;&#9;&#9;c-31.945-0.097-61.376-3.625-85.05-9.508c-1.029-0.248-2.05-0.505-3.051-0.782c-20.207-5.292-35.928-12.354-44.991-20.455&#10;&#9;&#9;&#9;l56.521-29.5c5.389,3.012,10.916,5.695,16.543,8.033c0.931,0.396,1.871,0.773,2.813,1.139&#10;&#9;&#9;&#9;c18.385,7.261,37.79,10.986,57.214,11.164c0.991,0.011,1.982,0.011,2.975,0c19.364-0.178,38.699-3.874,57.025-11.086&#10;&#9;&#9;&#9;c0.94-0.365,1.882-0.742,2.813-1.137c5.686-2.359,11.282-5.063,16.73-8.113L372.085,119.662z" id="el_hmRc_FYYvor"/>
		<path d="M315.554,81.109v9.053c-48.499,27.121-107.604,27.121-156.114,0v-9.053c0-6.47,0.783-12.75,2.278-18.752&#10;&#9;&#9;&#9;c3.447-14.028,10.698-26.557,20.585-36.441c14.124-14.127,33.639-22.864,55.194-22.864c36.641,0,67.388,25.25,75.777,59.306&#10;&#9;&#9;&#9;C314.771,68.359,315.554,74.639,315.554,81.109z" id="el_-HO9JUam8Af"/>
		<path d="M165.531,90.162c44.722,20.614,99.218,20.614,143.932,0C264.74,69.549,210.244,69.549,165.531,90.162z" id="el__WN1yi8OZOh"/>
		<path d="M304.197,59.947c-41.633,22.4-91.76,22.4-133.402,0&#10;&#9;&#9;&#9;c3.033-12.345,9.415-23.376,18.117-32.078c12.434-12.434,29.612-20.123,48.585-20.123&#10;&#9;&#9;&#9;C269.749,7.746,296.813,29.972,304.197,59.947z" id="el_Lx0t4yLFXeV"/>
		<path d="M238.984,110.498v39.909c-0.497,0.01-0.992,0.01-1.487,0.01c-0.496,0-0.991,0-1.487-0.01v-39.909&#10;&#9;&#9;&#9;C237.001,110.509,237.992,110.509,238.984,110.498z" id="el_cJgxbBLIzYk"/>
		<path d="M178.796,99.334l-27.836,41.565c-1.029-0.248-2.05-0.505-3.051-0.782l28.073-41.922&#10;&#9;&#9;&#9;C176.913,98.591,177.854,98.969,178.796,99.334z" id="el__UnGEmSfAOb"/>
		<path d="M326.885,140.175c-1,0.268-2.02,0.525-3.05,0.782L296.01,99.412c0.94-0.365,1.882-0.742,2.813-1.137&#10;&#9;&#9;&#9;L326.885,140.175z" id="el_9Ru0qcBbCZi"/>
		<g id="el_nJFx8iq0T4D">
			<path d="M147.684,113.818v3.707c-0.497,0.237-0.999,0.456-1.511,0.65c-4.77,1.827-10.052,1.827-14.822,0&#10;&#9;&#9;&#9;&#9;c-0.511-0.194-1.013-0.413-1.51-0.65v-3.707c0-4.929,3.993-8.921,8.919-8.921c2.463,0,4.695,0.999,6.311,2.61&#10;&#9;&#9;&#9;&#9;C146.685,109.124,147.684,111.354,147.684,113.818z" id="el_5CC62D_FJpO"/>
			<path d="M146.173,114.221v3.955c-4.77,1.827-10.052,1.827-14.822,0v-3.955c0-4.093,3.315-7.409,7.409-7.409&#10;&#9;&#9;&#9;&#9;c2.047,0,3.9,0.83,5.245,2.168C145.344,110.321,146.173,112.175,146.173,114.221z" id="el_H-emuB1CMcv"/>
			
				<ellipse cx="135.194" cy="108.807" rx="2.29" ry="4.184" id="el_4LDXjshR1lJ"/>
		</g>
		<g id="el_Ti9EnQrg1H-">
			<path d="M345.647,113.818v3.707c-0.496,0.237-1,0.456-1.511,0.65c-4.77,1.827-10.053,1.827-14.822,0&#10;&#9;&#9;&#9;&#9;c-0.511-0.194-1.013-0.413-1.512-0.65v-3.707c0-4.929,3.995-8.921,8.92-8.921c2.464,0,4.693,0.999,6.311,2.61&#10;&#9;&#9;&#9;&#9;C344.647,109.124,345.647,111.354,345.647,113.818z" id="el_fhxQpEilJW5"/>
			<path d="M344.137,114.221v3.955c-4.77,1.827-10.053,1.827-14.822,0v-3.955c0-4.093,3.315-7.409,7.408-7.409&#10;&#9;&#9;&#9;&#9;c2.047,0,3.898,0.83,5.245,2.168C343.309,110.321,344.137,112.175,344.137,114.221z" id="el_LUEJ3aevcac"/>
			
				<ellipse cx="333.158" cy="108.807" rx="2.289" ry="4.185" id="el_ps6iNMQrJEf"/>
		</g>
		<g id="el_cxMqEZgUBlp">
			<path d="M205.342,132.054v3.707c-0.497,0.238-0.999,0.456-1.511,0.65c-4.771,1.828-10.051,1.828-14.822,0&#10;&#9;&#9;&#9;&#9;c-0.511-0.195-1.014-0.412-1.509-0.65v-3.707c0-4.929,3.992-8.921,8.916-8.921c2.464,0,4.694,1.001,6.312,2.61&#10;&#9;&#9;&#9;&#9;C204.343,127.359,205.342,129.589,205.342,132.054z" id="el_e3jvRqOpf-j"/>
			<path d="M203.831,132.456v3.955c-4.771,1.828-10.051,1.828-14.822,0v-3.955c0-4.093,3.316-7.409,7.407-7.409&#10;&#9;&#9;&#9;&#9;c2.048,0,3.9,0.829,5.246,2.17C203.001,128.558,203.831,130.41,203.831,132.456z" id="el_0ZDc5nogr7q"/>
			
				<ellipse cx="192.852" cy="127.043" rx="2.29" ry="4.184" id="el_yVn0e0If-cG"/>
		</g>
		<g id="el_rhiOVBESwyo">
			<path d="M286.568,132.054v3.707c-0.497,0.238-1,0.456-1.51,0.65c-4.771,1.828-10.053,1.828-14.824,0&#10;&#9;&#9;&#9;&#9;c-0.511-0.195-1.012-0.412-1.512-0.65v-3.707c0-4.929,3.995-8.921,8.92-8.921c2.466,0,4.695,1.001,6.311,2.61&#10;&#9;&#9;&#9;&#9;C285.568,127.359,286.568,129.589,286.568,132.054z" id="el_vH2BxGFmuYO"/>
			<path d="M285.059,132.456v3.955c-4.771,1.828-10.053,1.828-14.824,0v-3.955c0-4.093,3.317-7.409,7.408-7.409&#10;&#9;&#9;&#9;&#9;c2.049,0,3.899,0.829,5.246,2.17C284.229,128.558,285.059,130.41,285.059,132.456z" id="el_R263Xeby0B9"/>
			
				<ellipse cx="274.079" cy="127.043" rx="2.29" ry="4.184" id="el_7HjSrRHohQz"/>
		</g>
		<g id="el_eP5RSFyMt9t">
			<path d="M177.213,39.334c9.785-13.748,23.072-24.139,23.072-24.139l7.717,5.337&#10;&#9;&#9;&#9;&#9;c-9.333,6.322-18.137,16.245-25.154,25.519L177.213,39.334z" id="el_L8rLg5yn2wf"/>
			<path d="M178.454,52.082c-6.827,9.728-11.112,17.495-11.112,17.495c-1.426-8.341,1.694-17.099,6.499-25.098&#10;&#9;&#9;&#9;&#9;L178.454,52.082z" id="el_g4zzrKCqbYn"/>
		</g>
		<path d="M232.737,174.29L232.737,174.29c-6.569,10.504-9.031,24.827-6.599,38.344l9.097,50.49&#10;&#9;&#9;&#9;c0.59,3.282,3.933,3.282,4.522,0l9.095-50.49c2.435-13.517-0.03-27.84-6.596-38.344l0,0&#10;&#9;&#9;&#9;C239.739,170.264,235.254,170.264,232.737,174.29z" id="el_-1ZwuiFTT1R"/>
		<g id="el_nv9h1gUN5TC">
			<path d="M184.645,212.347l-17.86,30.728c-0.741,1.289-1.882,1.486-2.782,0.96&#10;&#9;&#9;&#9;&#9;c-0.951-0.544-1.655-1.882-1.387-3.555l11.638-72.393c0.348-2.149,1.755-3.475,3.229-3.475c0.645,0,1.309,0.248,1.893,0.802&#10;&#9;&#9;&#9;&#9;C190.847,176.182,193.243,197.557,184.645,212.347z" id="el_Paz2bxjZJ8x"/>
			<path d="M179.375,165.414c0,0-7.896,53.421-15.373,78.62c-0.951-0.544-1.655-1.882-1.387-3.555&#10;&#9;&#9;&#9;&#9;l11.638-72.393c0.348-2.149,1.755-3.475,3.229-3.475C178.127,164.612,178.791,164.859,179.375,165.414z" id="el_jPYW8HU-B-a"/>
		</g>
		<g id="el_ka0dEA218Mc">
			<path d="M300.739,168.091l11.64,72.383c0.526,3.276-2.635,5.243-4.175,2.597l-17.861-30.726&#10;&#9;&#9;&#9;&#9;c-8.597-14.786-6.193-36.167,5.274-46.932l0,0C297.552,163.6,300.244,165.008,300.739,168.091z" id="el_AFsG9NZkdtX"/>
			<path d="M296.01,165.414c0,0,7.895,53.421,15.373,78.62c0.952-0.544,1.655-1.882,1.387-3.555&#10;&#9;&#9;&#9;&#9;l-11.639-72.393c-0.348-2.149-1.754-3.475-3.229-3.475C297.257,164.612,296.594,164.859,296.01,165.414z" id="el_JLrCvc6TJxE"/>
		</g>
	</g></g>
</g>
<script>(function(){var a=document.querySelector('#el_CUwzDrPa-'),b=a.querySelectorAll('style'),c=function(d){b.forEach(function(f){var g=f.textContent;g&amp;&amp;(f.textContent=g.replace(/transform-box:[^;\r\n]*/gi,'transform-box: '+d))})};c('initial'),window.requestAnimationFrame(function(){return c('fill-box')})})();</script></svg>