<svg version="1.1" id="el_kCvSy_gPQ" xmlns="http://www.w3.org/2000/svg" xmlns:xlink="http://www.w3.org/1999/xlink" x="0px" y="0px" viewBox="0 0 475 574" enable-background="new 0 0 475 574" xml:space="preserve"><style>@-webkit-keyframes el_FDhrI-twJg__xp5vhV6ii_Animation{0%{-webkit-transform: scale(1, 1);transform: scale(1, 1);}100%{-webkit-transform: scale(0.4, 1);transform: scale(0.4, 1);}}@keyframes el_FDhrI-twJg__xp5vhV6ii_Animation{0%{-webkit-transform: scale(1, 1);transform: scale(1, 1);}100%{-webkit-transform: scale(0.4, 1);transform: scale(0.4, 1);}}@-webkit-keyframes el_J_NUk0_VaQ9_UfvdoQNli_Animation{0%{-webkit-transform: translate(0px, 0px);transform: translate(0px, 0px);}33.33%{-webkit-transform: translate(0px, 0px);transform: translate(0px, 0px);}70%{-webkit-transform: translate(0px, 10px);transform: translate(0px, 10px);}100%{-webkit-transform: translate(0px, 0px);transform: translate(0px, 0px);}}@keyframes el_J_NUk0_VaQ9_UfvdoQNli_Animation{0%{-webkit-transform: translate(0px, 0px);transform: translate(0px, 0px);}33.33%{-webkit-transform: translate(0px, 0px);transform: translate(0px, 0px);}70%{-webkit-transform: translate(0px, 10px);transform: translate(0px, 10px);}100%{-webkit-transform: translate(0px, 0px);transform: translate(0px, 0px);}}@-webkit-keyframes el_G1AauhelGuF_dmt-nqhDx_Animation{0%{-webkit-transform: translate(0px, 0px);transform: translate(0px, 0px);}69.33%{-webkit-transform: translate(0px, -208px);transform: translate(0px, -208px);}100%{-webkit-transform: translate(0px, -330px);transform: translate(0px, -330px);}}@keyframes el_G1AauhelGuF_dmt-nqhDx_Animation{0%{-webkit-transform: translate(0px, 0px);transform: translate(0px, 0px);}69.33%{-webkit-transform: translate(0px, -208px);transform: translate(0px, -208px);}100%{-webkit-transform: translate(0px, -330px);transform: translate(0px, -330px);}}#el_kCvSy_gPQ *{-webkit-animation-duration: 5s;animation-duration: 5s;-webkit-animation-iteration-count: infinite;animation-iteration-count: infinite;-webkit-animation-play-state: running;animation-play-state: running;-webkit-animation-timing-function: cubic-bezier(0, 0, 1, 1);animation-timing-function: cubic-bezier(0, 0, 1, 1);}#el_UeyvBKE0ZA{fill: #1A707A;}#el_3XTTlMsEFy{fill: #186973;}#el_ljmVfRauaL{fill: #24A5B0;}#el_Z73v6xyNCe{fill: #10484D;}#el_Y7FKP2H_wF{fill: #10484D;}#el_x4D16unmeV{fill: #092629;}#el_EjCnPxSo77{fill: #092629;}#el_MOvpUjLtcm{fill: #092629;}#el_W2xrkotJFh{fill: #1D838C;}#el_HhAU2JiDqH{fill: #24A5B0;}#el_dHEapT8sDV{fill: #1D838C;}#el_wgUyco2cZF{fill: #24A5B0;}#el_uuFSTuQDqq{fill: #1D838C;}#el_noZ4oRgvw2x{opacity: 0.1;fill: #47413D;}#el_rHM_pUJaDQq{fill: #6C821B;}#el_hoE6wc6GDwn{fill: #5B6B15;}#el_9qABkIN3Jht{opacity: 0.3;fill: url(#SVGID_1_);}#el_qStqwO01NQV{opacity: 0.3;fill: url(#SVGID_2_);}#el_a1oUubt1d0s{fill: #5B6B15;}#el_laX66eKgWAR{fill: #5B6B15;}#el_r4hdExI-HNy{opacity: 0.3;fill: url(#SVGID_3_);}#el_s04bLnsohSq{opacity: 0.3;fill: url(#SVGID_4_);}#el_SQqj3JbZHwz{fill: #F0F0F0;}#el_HmUyIMFBDTB{fill: #0F102E;}#el__FT9h1rVqlW{fill: #F0F0F0;}#el_zUmsTJD_6gg{fill: #0F102E;}#el_ahChVt5NjiC{fill: #F0F0F0;}#el_5291ylEyYva{fill: #FF7473;}#el_gfBMnEsyVwr{fill: #FF7473;}#el_mvZE60g2HSh{fill: #FF7473;}#el_PtPvhUtCUCB{fill: #FF7473;}#el_u6adZOhjCtw{fill: #FFFFFF;}#el_GSK6eSzIGVK{fill: #0F102E;}#el_rKSIV_to6j1{fill: #0F102E;}#el_PZY2jPjAk4X{fill: #0F102E;}#el_KzVQLQVVHIq{fill: #0F102E;}#el_pAcwfcJLe6C{fill: #0F102E;}#el_xpfmlYbeYS1{fill: #0F102E;}#el_FmRWxgNnya-{fill: #0F102E;}#el_VqfIOg0pewr{fill: #FF7473;}#el_xc7DgkoLyL3{fill: #0F102E;}#el_CE12gPrQyE0{fill: #FFFFFF;}#el_HgJDL_sl6DD{-webkit-transform: matrix(0.5001, -0.866, 0.866, 0.5001, -358.0125, 425.1957);transform: matrix(0.5001, -0.866, 0.866, 0.5001, -358.0125, 425.1957);fill: #0F102E;}#el_nTyafNWIspJ{fill: #FFFFFF;}#el_Yyb6NAf6Acv{fill: #0F102E;}#el_dcArK-YwaE0{fill: #2A2930;}#el_DDRL0JsLdu7{fill: #2A2930;}#el_k3HNy6A9RE1{fill: #666575;}#el_8iMkx8FkMx1{opacity: 0.1;fill: #11213A;}#el_1EuiDKDNI7k{fill: #808694;}#el_WBprKzXD4O_{opacity: 0.1;fill: #FFFFFF;}#el_Fzk6kyr5isA{fill: #DEE5FA;}#el_n8BOamrv2F9{fill: #C5CCDF;}#el_rct2NRvhRbk{fill: #151740;}#el_NbAm4WEwes6{fill: #0F102E;}#el_JFSWDo_MMd9{opacity: 0.1;fill: #6D9ED9;}#el_HvS_IfMHN0n{fill: #B4BBCC;}#el_1Rd_7r-Sb5y{fill: #B4BBCC;}#el_91NPt1WVhMd{fill: #B4BBCC;}#el_Ren3_b5JT_c{fill: #EA3941;}#el_oh5pGDyYNjr{fill: #DB3037;}#el_1eMQM-TR5Og{-webkit-transform: matrix(0.5589, 0.8292, -0.8292, 0.5589, 171.3462, -46.5119);transform: matrix(0.5589, 0.8292, -0.8292, 0.5589, 171.3462, -46.5119);opacity: 0.1;fill: #FFFFFF;}#el_-uh1xJEI373{fill: #EA3941;}#el_toXcMNczh7i{fill: #DB3037;}#el_OQwwOacolCq{-webkit-transform: matrix(0.559, 0.8292, -0.8292, 0.559, 263.5637, -219.9703);transform: matrix(0.559, 0.8292, -0.8292, 0.559, 263.5637, -219.9703);opacity: 0.1;fill: #FFFFFF;}#el_EGe5Y3AnyfC{fill: #EA3941;}#el_ijZatvQkhic{fill: #DB3037;}#el_HxU5490P8rG{-webkit-transform: matrix(0.559, 0.8292, -0.8292, 0.559, 214.1819, -88.5373);transform: matrix(0.559, 0.8292, -0.8292, 0.559, 214.1819, -88.5373);opacity: 0.1;fill: #FFFFFF;}#el_Z8I9b6Hxf07{fill: #EA3941;}#el_oXC7Qb6SYdV{fill: #DB3037;}#el_iEzuwieawuV{-webkit-transform: matrix(0.5589, 0.8292, -0.8292, 0.5589, 252.0653, -159.713);transform: matrix(0.5589, 0.8292, -0.8292, 0.5589, 252.0653, -159.713);opacity: 0.1;fill: #FFFFFF;}#el_ayB6CQa6rrM{opacity: 0.2;}#el_gc_Y0zLWI02{fill: #FFFFFF;}#el_2X9otFjA1g8{fill: #FFFFFF;}#el_z4noH1Cgz-O{fill: #45444F;}#el_Da7Z_hwg8JM{fill: #45444F;}#el_gfKUzPo_5Lt{opacity: 0.1;fill: #6D9ED9;}#el_-saToFGYPo8{fill: #45444F;}#el_hAdYZIXMD_D{opacity: 0.1;fill: #6D9ED9;}#el_G1AauhelGuF_dmt-nqhDx{-webkit-transform-origin: 50% 50%;transform-origin: 50% 50%;transform-box: fill-box;}#el_kCvSy_gPQ:hover #el_G1AauhelGuF_dmt-nqhDx{-webkit-animation-name: el_G1AauhelGuF_dmt-nqhDx_Animation;animation-name: el_G1AauhelGuF_dmt-nqhDx_Animation;}#el_J_NUk0_VaQ9_UfvdoQNli{-webkit-transform-origin: 50% 50%;transform-origin: 50% 50%;transform-box: fill-box;}#el_kCvSy_gPQ:hover #el_J_NUk0_VaQ9_UfvdoQNli{-webkit-animation-name: el_J_NUk0_VaQ9_UfvdoQNli_Animation;animation-name: el_J_NUk0_VaQ9_UfvdoQNli_Animation;}#el_FDhrI-twJg__xp5vhV6ii{-webkit-transform-origin: 50% 50%;transform-origin: 50% 50%;transform-box: fill-box;}#el_kCvSy_gPQ:hover #el_FDhrI-twJg__xp5vhV6ii{-webkit-animation-name: el_FDhrI-twJg__xp5vhV6ii_Animation;animation-name: el_FDhrI-twJg__xp5vhV6ii_Animation;}</style>
<g id="el_7CYRZ7cazt">
	<path d="M303.934,412.773c-43.233,0-78.281,39.248-78.281,87.664h156.56&#10;&#9;&#9;C382.212,452.021,347.164,412.773,303.934,412.773z" id="el_UeyvBKE0ZA"/>
	<path d="M69.586,500.361l42.489-86.166c28.671-58.146,93.791-61.908,126.43-7.303l55.867,93.469H69.586z" id="el_3XTTlMsEFy"/>
</g>
<g id="el_IkgXMJFG_g">
	<polygon points="123.808,500.73 173.241,500.73 173.241,463.088 148.592,437.828 123.808,463.088 &#9;" id="el_ljmVfRauaL"/>
	<rect x="142.978" y="482.008" width="13.966" height="19.053" id="el_Z73v6xyNCe"/>
	<polygon points="87.637,437.828 148.592,437.828 123.808,463.088 62.852,463.088 &#9;" id="el_Y7FKP2H_wF"/>
	<path d="M90.385,440.619c0.215-0.215,1.107-0.121,0.892,0.1c-0.722,0.729-2.367,3.406,0.925,3.432&#10;&#9;&#9;c3.021,0.025,4.95-1.369,6.189-2.287c0-0.004,0-0.008,0-0.008c-0.025-0.117,0.186-0.174,0.41-0.178c0,0,0.007,0,0.01,0h0.009&#10;&#9;&#9;c0.32-0.02,0.688,0.115,0.507,0.264c0.079,0.502-0.006,1.09,0.406,1.555c0.899,1.016,3.04,1.063,5.179,0.563&#10;&#9;&#9;c2.248-0.523,3.879-1.465,4.931-2.381c0.125-0.105,0.384-0.111,0.583-0.066c0.255-0.066,0.722-0.02,0.763,0.145&#10;&#9;&#9;c0.132,0.541,0.4,1.072,0.972,1.568c0.866,0.75,2.63,0.953,4.571,0.682c2.554-0.35,4.364-1.236,5.6-2.145&#10;&#9;&#9;c0.28-0.207,1.078-0.021,0.795,0.184c-0.023,0.018-0.045,0.035-0.071,0.051c0.357,0.602,0.747,1.479,1.712,1.959&#10;&#9;&#9;c1.577,0.787,4.313,0.314,6.161-0.074c2.853-0.598,5.103-1.555,7.181-2.512c0.385-0.18,1.035,0.08,0.651,0.258&#10;&#9;&#9;c-2.789,1.285-6.08,2.633-10.414,3.039c-1.264,0.117-2.726,0.225-3.743-0.156c-1.195-0.451-1.808-1.361-2.229-2.066&#10;&#9;&#9;c-1.687,1.018-4.294,1.973-7.469,1.982c-3.181,0.012-4.178-1.363-4.539-2.434c-1.49,1.176-4.367,2.639-7.872,2.688&#10;&#9;&#9;c-3.301,0.045-3.797-1.193-3.992-2.254c-1.576,1.045-4.082,2.313-7.316,1.99c-1.339-0.133-1.494-0.635-1.667-1.115&#10;&#9;&#9;C89.172,442.447,89.502,441.514,90.385,440.619z" id="el_x4D16unmeV"/>
	<path d="M81.073,447.934c0.213-0.215,1.105-0.121,0.891,0.098c-0.722,0.73-2.364,3.406,0.927,3.436&#10;&#9;&#9;c3.019,0.025,4.949-1.371,6.19-2.291l-0.003-0.008c-0.021-0.113,0.188-0.172,0.413-0.174c0,0,0.006,0,0.011-0.004&#10;&#9;&#9;c0.001,0,0.006,0,0.006,0c0.321-0.018,0.69,0.115,0.507,0.266c0.079,0.504-0.005,1.09,0.407,1.555&#10;&#9;&#9;c0.899,1.016,3.038,1.063,5.178,0.563c2.247-0.521,3.879-1.465,4.936-2.379c0.119-0.107,0.381-0.113,0.58-0.068&#10;&#9;&#9;c0.255-0.066,0.721-0.02,0.762,0.143c0.133,0.541,0.401,1.076,0.973,1.57c0.865,0.752,2.629,0.953,4.572,0.684&#10;&#9;&#9;c2.551-0.352,4.362-1.238,5.597-2.146c0.281-0.207,1.076-0.023,0.797,0.184c-0.021,0.018-0.048,0.033-0.07,0.051&#10;&#9;&#9;c0.356,0.602,0.747,1.477,1.708,1.957c1.58,0.789,4.316,0.318,6.163-0.07c2.857-0.6,5.104-1.557,7.181-2.514&#10;&#9;&#9;c0.388-0.18,1.039,0.08,0.654,0.258c-2.791,1.285-6.081,2.631-10.412,3.039c-1.269,0.119-2.729,0.227-3.746-0.158&#10;&#9;&#9;c-1.199-0.451-1.808-1.359-2.231-2.064c-1.685,1.02-4.293,1.973-7.468,1.982c-3.18,0.012-4.18-1.363-4.542-2.434&#10;&#9;&#9;c-1.487,1.176-4.362,2.637-7.868,2.688c-3.305,0.045-3.797-1.195-3.992-2.256c-1.578,1.047-4.083,2.314-7.317,1.992&#10;&#9;&#9;c-1.337-0.133-1.493-0.635-1.669-1.115C79.86,449.762,80.192,448.826,81.073,447.934z" id="el_EjCnPxSo77"/>
	<path d="M74.995,455.572c0.214-0.217,1.108-0.123,0.891,0.098c-0.722,0.73-2.364,3.406,0.926,3.434&#10;&#9;&#9;c3.021,0.025,4.949-1.369,6.191-2.287l-0.002-0.012c-0.024-0.113,0.185-0.172,0.412-0.174h0.01c0.003,0,0.005,0,0.007,0&#10;&#9;&#9;c0.321-0.02,0.69,0.113,0.506,0.264c0.079,0.502-0.005,1.09,0.408,1.553c0.898,1.018,3.037,1.063,5.177,0.564&#10;&#9;&#9;c2.247-0.523,3.879-1.465,4.933-2.379c0.124-0.107,0.384-0.115,0.583-0.068c0.254-0.066,0.721-0.021,0.761,0.143&#10;&#9;&#9;c0.134,0.539,0.4,1.072,0.971,1.57c0.867,0.752,2.631,0.949,4.574,0.684c2.552-0.354,4.363-1.238,5.597-2.146&#10;&#9;&#9;c0.281-0.207,1.078-0.023,0.798,0.182c-0.021,0.018-0.048,0.035-0.072,0.051c0.358,0.602,0.749,1.479,1.709,1.959&#10;&#9;&#9;c1.581,0.789,4.316,0.316,6.164-0.072c2.854-0.598,5.101-1.555,7.181-2.514c0.386-0.178,1.038,0.08,0.652,0.256&#10;&#9;&#9;c-2.788,1.289-6.08,2.637-10.411,3.041c-1.27,0.117-2.729,0.225-3.746-0.158c-1.197-0.449-1.81-1.359-2.23-2.063&#10;&#9;&#9;c-1.687,1.018-4.292,1.971-7.469,1.984c-3.18,0.01-4.177-1.367-4.541-2.436c-1.488,1.174-4.364,2.639-7.871,2.686&#10;&#9;&#9;c-3.302,0.045-3.796-1.193-3.99-2.254c-1.577,1.047-4.083,2.313-7.319,1.99c-1.336-0.133-1.492-0.635-1.667-1.115&#10;&#9;&#9;C73.783,457.4,74.116,456.465,74.995,455.572z" id="el_MOvpUjLtcm"/>
	<rect x="62.852" y="463.088" width="60.956" height="37.643" id="el_W2xrkotJFh"/>
	<polygon points="129.476,434.301 129.476,440.566 123.808,446.342 123.808,434.301 &#9;" id="el_HhAU2JiDqH"/>
	<rect x="116.095" y="434.301" width="7.712" height="12.041" id="el_dHEapT8sDV"/>
	<polygon points="105.722,434.301 105.722,440.566 100.054,446.342 100.054,434.301 &#9;" id="el_wgUyco2cZF"/>
	<rect x="92.342" y="434.301" width="7.712" height="12.041" id="el_uuFSTuQDqq"/>
	<rect x="62.852" y="463.088" width="60.956" height="4.086" id="el_noZ4oRgvw2x"/>
</g>
<path d="M429.434,547.955H50.893c-16.452,0-29.788-10.572-29.788-23.613l0,0c0-13.041,13.336-23.611,29.788-23.611&#10;&#9;h378.541c16.451,0,29.788,10.57,29.788,23.611l0,0C459.222,537.383,445.885,547.955,429.434,547.955z" id="el_rHM_pUJaDQq"/>
<path d="M289.295,543.014H117.74c-4.125,0-7.47-2.652-7.47-5.922l0,0c0-3.273,3.345-5.922,7.47-5.922h171.555&#10;&#9;c4.127,0,7.471,2.648,7.471,5.922l0,0C296.766,540.361,293.422,543.014,289.295,543.014z" id="el_hoE6wc6GDwn"/>
<linearGradient id="SVGID_1_" gradientUnits="userSpaceOnUse" x1="15.7783" y1="421.0713" x2="100.562" y2="421.0713">
	<stop offset="0" style="stop-color:#3C408F"/>
	<stop offset="1" style="stop-color:#5B61CF"/>
</linearGradient>
<path d="M23.303,424.762c1.423,0,2.777,0.32,4.018,0.891&#10;&#9;c4.824-7.332,11.002-11.768,17.758-11.768c6.089,0,11.714,3.6,16.297,9.682c3.002-1.34,6.317-2.107,9.816-2.107&#10;&#9;c5.916,0,11.311,2.145,15.516,5.666c1.782-1.477,3.959-2.363,6.327-2.363c2.927,0,5.577,1.336,7.526,3.496H87.996h-2.487H64.435&#10;&#9;H54.393H30.831h-5.107h-9.946C17.73,426.098,20.378,424.762,23.303,424.762z" id="el_9qABkIN3Jht"/>
<linearGradient id="SVGID_2_" gradientUnits="userSpaceOnUse" x1="33.6641" y1="413.8838" x2="132.2095" y2="413.8838">
	<stop offset="0" style="stop-color:#3C408F"/>
	<stop offset="1" style="stop-color:#5B61CF"/>
</linearGradient>
<path d="M42.413,418.174c1.651,0,3.224,0.373,4.668,1.037&#10;&#9;c5.608-8.525,12.788-13.68,20.641-13.68c7.074,0,13.606,4.18,18.932,11.238c3.489-1.559,7.35-2.434,11.421-2.434&#10;&#9;c6.876,0,13.16,2.482,18.044,6.576c2.067-1.713,4.598-2.738,7.343-2.738c3.401,0,6.481,1.551,8.748,4.063h-14.605h-2.889H90.218&#10;&#9;H78.545H51.16h-5.935H33.664C35.933,419.725,39.013,418.174,42.413,418.174z" id="el_qStqwO01NQV"/>
<path d="M89.623,517.986H64.651c-3.581,0-6.481-2.299-6.481-5.137l0,0c0-2.838,2.901-5.137,6.481-5.137h24.972&#10;&#9;c3.58,0,6.48,2.299,6.48,5.137l0,0C96.104,515.688,93.203,517.986,89.623,517.986z" id="el_a1oUubt1d0s"/>
<path d="M113.956,517.986h-6.49c-3.579,0-6.48-2.299-6.48-5.137l0,0c0-2.838,2.901-5.137,6.48-5.137h6.49&#10;&#9;c3.579,0,6.479,2.299,6.479,5.137l0,0C120.436,515.688,117.535,517.986,113.956,517.986z" id="el_laX66eKgWAR"/>
<g id="el_FDhrI-twJg__xp5vhV6ii" data-animator-group="true" data-animator-type="2"><g id="el_FDhrI-twJg_">
	<linearGradient id="SVGID_3_" gradientUnits="userSpaceOnUse" x1="237.5005" y1="188.8643" x2="237.5005" y2="531.8405">
		<stop offset="0" style="stop-color:#3C408F"/>
		<stop offset="1" style="stop-color:#5B61CF"/>
	</linearGradient>
	<rect x="151.432" y="193.587" width="172.139" height="332.583" id="el_r4hdExI-HNy"/>
	<linearGradient id="SVGID_4_" gradientUnits="userSpaceOnUse" x1="237.4995" y1="188.8643" x2="237.4995" y2="531.8405">
		<stop offset="0" style="stop-color:#3C408F"/>
		<stop offset="1" style="stop-color:#5B61CF"/>
	</linearGradient>
	<rect x="181.939" y="193.587" width="111.122" height="332.583" id="el_s04bLnsohSq"/>
</g></g>
<g id="el_G1AauhelGuF_dmt-nqhDx" data-animator-group="true" data-animator-type="0"><g id="el_G1AauhelGuF">
	<g id="el_YDvosAPXGC4">
		<path d="M264.69,492.663l-3.824-9.159l-13.214,15.646c0,0,1.063,12.456,7.823,11.847l-5.695,14.28h5.695&#10;&#9;&#9;&#9;l9.004-19.732C266.341,501.468,266.418,496.799,264.69,492.663z" id="el_SQqj3JbZHwz"/>
		<path d="M251.719,520.422L251.719,520.422c-1.902,0.375-3.487,1.685-4.215,3.482l-0.557,1.373h8.531l1.39-3.049&#10;&#9;&#9;&#9;L251.719,520.422z" id="el_HmUyIMFBDTB"/>
	</g>
	<g id="el_s4TpXNYuIz_">
		<polygon points="221.888,507.504 226.659,520.422 231.839,522.24 229.981,506.594 &#9;&#9;" id="el__FT9h1rVqlW"/>
		<path d="M226.659,520.422L226.659,520.422c-1.902,0.375-3.487,1.685-4.216,3.482l-0.555,1.373h8.53l1.421-3.037&#10;&#9;&#9;&#9;L226.659,520.422z" id="el_zUmsTJD_6gg"/>
	</g>
	<path d="M187.381,503.567c2.312,0.92,3.44,3.54,2.521,5.852l-8.373-3.331&#10;&#9;&#9;C182.449,503.776,185.069,502.647,187.381,503.567z" id="el_ahChVt5NjiC"/>
	<g id="el_hbXCoD7dfZD">
		<circle cx="265.328" cy="503.645" r="10.685" id="el_5291ylEyYva"/>
		<path d="M262.324,516.104L262.324,516.104c-0.658-0.133-1.082-0.774-0.95-1.432l0.454-2.232&#10;&#9;&#9;&#9;c0.133-0.658,0.774-1.084,1.432-0.951l0,0c0.658,0.134,1.084,0.775,0.949,1.433l-0.452,2.234&#10;&#9;&#9;&#9;C263.623,515.813,262.98,516.238,262.324,516.104z" id="el_gfBMnEsyVwr"/>
		<path d="M255.72,512.672L255.72,512.672c-0.438-0.509-0.382-1.276,0.126-1.714l1.726-1.49&#10;&#9;&#9;&#9;c0.509-0.438,1.275-0.38,1.714,0.128l0,0c0.438,0.507,0.382,1.274-0.126,1.714l-1.725,1.487&#10;&#9;&#9;&#9;C256.925,513.236,256.159,513.18,255.72,512.672z" id="el_mvZE60g2HSh"/>
		<path d="M269.818,515.707L269.818,515.707c-0.645,0.186-1.317-0.189-1.502-0.833l-0.627-2.19&#10;&#9;&#9;&#9;c-0.184-0.646,0.189-1.319,0.835-1.504l0,0c0.645-0.184,1.318,0.189,1.503,0.835l0.626,2.19&#10;&#9;&#9;&#9;C270.838,514.851,270.465,515.522,269.818,515.707z" id="el_PtPvhUtCUCB"/>
	</g>
	<g id="el_AgJWIfAwEWv">
		<path d="M216.953,525.277l7.445-15.92c0,0,35.052,1.944,40.521-10.207c0,0,1.063,12.456,7.822,11.847l-5.695,14.28&#10;&#9;&#9;&#9;h5.695l9.005-19.732c1.86-4.077,1.938-8.746,0.21-12.882l-3.823-9.159c-3.266-7.818-10.908-12.909-19.381-12.909h-23.5&#10;&#9;&#9;&#9;c-2.066,0-4.101-0.497-5.935-1.443l0,0c-3.906-2.016-8.68-1.15-11.629,2.108l-26.36,29.109c-2.322,2.563-3.769,5.799-4.13,9.239&#10;&#9;&#9;&#9;l-0.755,7.176c-0.308,2.925,1.203,5.741,3.81,7.1l0,0c1.455,0.76,3.247,0.154,3.943-1.331l0,0&#10;&#9;&#9;&#9;c3.375-7.21,10.156-12.235,18.037-13.362l4.954-0.709l-5.735,16.796H216.953z" id="el_u6adZOhjCtw"/>
		<path d="M268.983,520.422L268.983,520.422c-1.904,0.375-3.488,1.685-4.218,3.482l-0.557,1.373h8.532l1.391-3.049&#10;&#9;&#9;&#9;L268.983,520.422z" id="el_GSK6eSzIGVK"/>
		<path d="M213.195,520.422L213.195,520.422c-1.903,0.375-3.489,1.685-4.217,3.482l-0.556,1.373h8.532l1.42-3.037&#10;&#9;&#9;&#9;L213.195,520.422z" id="el_rKSIV_to6j1"/>
		<path d="M235.251,470.595h23.5v2.688c0,3.716,3.013,6.729,6.729,6.729l0,0c1.975,0,3.574,1.6,3.574,3.574v3.509&#10;&#9;&#9;&#9;c0,1.974-1.6,3.574-3.574,3.574h-11.056c-3.096,0-5.607,2.511-5.607,5.606l0,0c0,1.588-1.287,2.875-2.873,2.875h-13.73&#10;&#9;&#9;&#9;c-6.149,0-11.134-4.985-11.134-11.136v-0.382c0-3.334,2.702-6.036,6.036-6.036l0,0c4.492,0,8.136-3.643,8.136-8.136V470.595z" id="el_PZY2jPjAk4X"/>
		<path d="M259.849,493.264h-4.997c-1.626,0-2.944,1.316-2.944,2.943l0,0c0,1.625,1.318,2.943,2.944,2.943h4.997&#10;&#9;&#9;&#9;c1.627,0,2.943-1.318,2.943-2.943l0,0C262.792,494.58,261.476,493.264,259.849,493.264z" id="el_KzVQLQVVHIq"/>
		<path d="M208.421,481.491h4.4c3.192,0,5.302,3.321,3.946,6.212l-0.458,0.975c-0.719,1.529-2.256,2.508-3.947,2.508&#10;&#9;&#9;&#9;h-2.29c-1.636,0-2.962,1.325-2.962,2.962l0,0c0,1.396-1.131,2.527-2.527,2.527h-9.911L208.421,481.491z" id="el_pAcwfcJLe6C"/>
		<path d="M223.225,480.467h-5.483c-1.467,0-2.659-1.19-2.659-2.659l0,0c0-1.467,1.191-2.658,2.659-2.658h5.483&#10;&#9;&#9;&#9;c1.468,0,2.658,1.191,2.658,2.658l0,0C225.882,479.276,224.692,480.467,223.225,480.467z" id="el_xpfmlYbeYS1"/>
		<path d="M227.4,473.936h-1.063c-0.922,0-1.671-0.748-1.671-1.671l0,0c0-0.923,0.749-1.67,1.671-1.67h1.063&#10;&#9;&#9;&#9;c0.922,0,1.671,0.747,1.671,1.67l0,0C229.071,473.188,228.322,473.936,227.4,473.936z" id="el_FmRWxgNnya-"/>
		<path d="M186.479,516.01l9.577,3.272l-2.473,4.732c-0.375,0.718-1.231,1.039-1.987,0.744l-2.426-0.946&#10;&#9;&#9;&#9;c-2.131-0.832-3.403-3.026-3.065-5.29L186.479,516.01z" id="el_VqfIOg0pewr"/>
		<circle cx="190.78" cy="512.289" r="1.101" id="el_xc7DgkoLyL3"/>
		<path d="M189.629,501.163c1.776,1.739,1.806,4.593,0.063,6.37l-6.435-6.31&#10;&#9;&#9;&#9;C185,499.447,187.853,499.42,189.629,501.163z" id="el_CE12gPrQyE0"/>
		
			<ellipse cx="189.259" cy="522.675" rx="0.608" ry="1.721" id="el_HgJDL_sl6DD"/>
	</g>
	<g id="el_u8AN7fGvr3y">
		<path d="M286.794,482.419c-2.628-3.274-6.61-2.932-10.308-2.093c-1.908,0.433-1.095,3.359,0.81,2.929&#10;&#9;&#9;&#9;c3.058-0.693,6.134-1.041,7.829,2.128c1.479,2.762,1.889,6.289,2.334,9.344c0.28,1.929,3.206,1.102,2.927-0.809&#10;&#9;&#9;&#9;C289.833,490.121,289.279,485.516,286.794,482.419z" id="el_nTyafNWIspJ"/>
		<path d="M293.452,496.288c-0.276-2.095-2.201-3.567-4.295-3.291c-2.096,0.28-3.569,2.203-3.29,4.298&#10;&#9;&#9;&#9;c0.097,0.727,0.724,1.945,1.499,3.227c1.362,2.241,4.753,1.791,5.479-0.729C293.263,498.354,293.551,497.015,293.452,496.288z" id="el_Yyb6NAf6Acv"/>
	</g>
</g></g>
<g id="el_J_NUk0_VaQ9_UfvdoQNli" data-animator-group="true" data-animator-type="0"><g id="el_J_NUk0_VaQ9">
	<path d="M200.587,182.65l-9.479,76.49c-0.43,3.465,2.987,5.541,4.51,2.742l17.679-32.466&#10;&#9;&#9;c8.51-15.627,5.137-38.221-7.402-49.596l0,0C203.782,177.905,200.991,179.392,200.587,182.65z" id="el_dcArK-YwaE0"/>
	<path d="M274.861,182.65l9.481,76.49c0.429,3.465-2.989,5.541-4.513,2.742l-17.679-32.466&#10;&#9;&#9;c-8.507-15.627-5.136-38.221,7.403-49.596l0,0C271.668,177.905,274.457,179.392,274.861,182.65z" id="el_DDRL0JsLdu7"/>
	<path d="M341.156,173.23c-4.04,11.354-11.117,21.739-20.485,30.585c-19.72,18.664-49.657,30.564-83.174,30.564&#10;&#9;&#9;c-33.518,0-63.465-11.9-83.185-30.564c-9.37-8.854-16.436-19.24-20.477-30.585H341.156z" id="el_k3HNy6A9RE1"/>
	<path d="M341.156,173.23c-4.04,11.354-11.117,21.739-20.485,30.585&#10;&#9;&#9;c-23.866,5.148-52.452,8.145-83.174,8.145c-30.723,0-59.319-2.996-83.185-8.145c-9.37-8.854-16.436-19.24-20.477-30.585H341.156z" id="el_8iMkx8FkMx1"/>
	<path d="M382.828,159.966c-18.422,20.568-76.509,35.592-145.328,35.592c-68.818,0-126.908-15.023-145.328-35.592&#10;&#9;&#9;v-9.072h290.656V159.966z" id="el_1EuiDKDNI7k"/>
	<path d="M155.014,118.097L155.014,118.097c51.257,28.655,113.714,28.655,164.971,0l0,0v-9.566&#10;&#9;&#9;c0-45.556-36.931-82.486-82.485-82.486h-0.002c-45.554,0-82.484,36.93-82.484,82.486V118.097z" id="el_WBprKzXD4O_"/>
	<path d="M382.828,150.892c-18.425,20.566-76.508,35.588-145.331,35.588c-68.814,0-126.91-15.021-145.322-35.588&#10;&#9;&#9;l3.109-1.622l59.728-31.173c51.261,28.658,113.719,28.658,164.968,0l59.737,31.173L382.828,150.892z" id="el_Fzk6kyr5isA"/>
	<path d="M379.718,149.27c-9.618,8.592-26.306,16.066-47.763,21.677c-1.058,0.283-2.135,0.555-3.224,0.826&#10;&#9;&#9;c-24.985,6.177-56.003,9.883-89.663,9.985c-0.525,0.011-1.048,0.011-1.571,0.011c-0.524,0-1.048,0-1.571-0.011&#10;&#9;&#9;c-33.757-0.103-64.857-3.83-89.874-10.047c-1.088-0.262-2.166-0.534-3.224-0.826c-21.354-5.592-37.966-13.055-47.543-21.615&#10;&#9;&#9;l59.728-31.173c5.694,3.182,11.534,6.018,17.48,8.488c0.983,0.418,1.978,0.817,2.973,1.204&#10;&#9;&#9;c19.427,7.673,39.934,11.609,60.459,11.797c1.047,0.011,2.095,0.011,3.143,0c20.463-0.188,40.895-4.094,60.26-11.715&#10;&#9;&#9;c0.994-0.386,1.989-0.785,2.973-1.202c6.009-2.492,11.923-5.349,17.68-8.573L379.718,149.27z" id="el_n8BOamrv2F9"/>
	<path d="M319.98,108.53v9.567c-51.249,28.658-113.707,28.658-164.968,0v-9.567c0-6.836,0.827-13.473,2.407-19.815&#10;&#9;&#9;c3.643-14.823,11.305-28.063,21.752-38.509c14.926-14.929,35.547-24.161,58.325-24.161c38.719,0,71.21,26.682,80.075,62.669&#10;&#9;&#9;C319.154,95.057,319.98,101.694,319.98,108.53z" id="el_rct2NRvhRbk"/>
	<path d="M161.449,118.097c47.259,21.782,104.845,21.782,152.096,0C266.285,96.315,208.698,96.315,161.449,118.097z" id="el_NbAm4WEwes6"/>
	<path d="M307.98,86.168c-43.994,23.67-96.965,23.67-140.968,0&#10;&#9;&#9;c3.205-13.046,9.949-24.702,19.144-33.897c13.14-13.139,31.292-21.265,51.341-21.265C271.578,31.006,300.177,54.493,307.98,86.168z&#10;&#9;&#9;" id="el_JFSWDo_MMd9"/>
	<path d="M239.068,139.586v42.172c-0.525,0.011-1.048,0.011-1.571,0.011c-0.524,0-1.048,0-1.571-0.011v-42.172&#10;&#9;&#9;C236.973,139.597,238.021,139.597,239.068,139.586z" id="el_HvS_IfMHN0n"/>
	<path d="M175.466,127.789l-29.415,43.922c-1.088-0.262-2.166-0.534-3.224-0.826l29.665-44.3&#10;&#9;&#9;C173.477,127.004,174.471,127.403,175.466,127.789z" id="el_1Rd_7r-Sb5y"/>
	<path d="M331.955,170.947c-1.058,0.283-2.135,0.555-3.224,0.826l-29.403-43.901&#10;&#9;&#9;c0.994-0.386,1.989-0.785,2.973-1.202L331.955,170.947z" id="el_91NPt1WVhMd"/>
	<g id="el_5UyjhYBvipD">
		<path d="M142.59,143.095v3.917c-0.525,0.251-1.056,0.481-1.597,0.687c-5.04,1.931-10.622,1.931-15.663,0&#10;&#9;&#9;&#9;c-0.54-0.205-1.07-0.436-1.595-0.687v-3.917c0-5.208,4.219-9.427,9.425-9.427c2.602,0,4.96,1.056,6.667,2.758&#10;&#9;&#9;&#9;C141.534,138.134,142.59,140.49,142.59,143.095z" id="el_Ren3_b5JT_c"/>
		<path d="M140.993,143.52v4.179c-5.04,1.931-10.622,1.931-15.663,0v-4.179c0-4.325,3.504-7.83,7.83-7.83&#10;&#9;&#9;&#9;c2.163,0,4.121,0.877,5.542,2.292C140.118,139.399,140.993,141.358,140.993,143.52z" id="el_oh5pGDyYNjr"/>
		
			<ellipse cx="129.392" cy="137.8" rx="2.419" ry="4.421" id="el_1eMQM-TR5Og"/>
	</g>
	<g id="el_LOCCAqxVj13">
		<path d="M351.781,143.095v3.917c-0.524,0.251-1.057,0.481-1.597,0.687c-5.04,1.931-10.622,1.931-15.662,0&#10;&#9;&#9;&#9;c-0.541-0.205-1.071-0.436-1.598-0.687v-3.917c0-5.208,4.221-9.427,9.426-9.427c2.604,0,4.96,1.056,6.668,2.758&#10;&#9;&#9;&#9;C350.725,138.134,351.781,140.49,351.781,143.095z" id="el_-uh1xJEI373"/>
		<path d="M350.185,143.52v4.179c-5.04,1.931-10.622,1.931-15.662,0v-4.179c0-4.325,3.503-7.83,7.828-7.83&#10;&#9;&#9;&#9;c2.163,0,4.119,0.877,5.542,2.292C349.31,139.399,350.185,141.358,350.185,143.52z" id="el_toXcMNczh7i"/>
		
			<ellipse cx="338.583" cy="137.8" rx="2.419" ry="4.423" id="el_OQwwOacolCq"/>
	</g>
	<g id="el_zYn3G1GHzeN">
		<path d="M203.518,162.365v3.917c-0.525,0.252-1.056,0.481-1.597,0.688c-5.041,1.932-10.621,1.932-15.663,0&#10;&#9;&#9;&#9;c-0.541-0.206-1.071-0.436-1.595-0.688v-3.917c0-5.208,4.218-9.427,9.423-9.427c2.604,0,4.961,1.058,6.669,2.758&#10;&#9;&#9;&#9;C202.462,157.404,203.518,159.76,203.518,162.365z" id="el_EGe5Y3AnyfC"/>
		<path d="M201.921,162.79v4.18c-5.041,1.932-10.621,1.932-15.663,0v-4.18c0-4.325,3.504-7.829,7.828-7.829&#10;&#9;&#9;&#9;c2.163,0,4.121,0.875,5.542,2.293C201.045,158.67,201.921,160.627,201.921,162.79z" id="el_ijZatvQkhic"/>
		
			<ellipse cx="190.319" cy="157.07" rx="2.42" ry="4.421" id="el_HxU5490P8rG"/>
	</g>
	<g id="el__fBRu568A5I">
		<path d="M289.352,162.365v3.917c-0.525,0.252-1.057,0.481-1.596,0.688c-5.041,1.932-10.623,1.932-15.664,0&#10;&#9;&#9;&#9;c-0.541-0.206-1.07-0.436-1.598-0.688v-3.917c0-5.208,4.221-9.427,9.426-9.427c2.605,0,4.961,1.058,6.668,2.758&#10;&#9;&#9;&#9;C288.295,157.404,289.352,159.76,289.352,162.365z" id="el_Z8I9b6Hxf07"/>
		<path d="M287.756,162.79v4.18c-5.041,1.932-10.623,1.932-15.664,0v-4.18c0-4.325,3.505-7.829,7.828-7.829&#10;&#9;&#9;&#9;c2.164,0,4.12,0.875,5.543,2.293C286.879,158.67,287.756,160.627,287.756,162.79z" id="el_oXC7Qb6SYdV"/>
		
			<ellipse cx="276.153" cy="157.07" rx="2.42" ry="4.422" id="el_iEzuwieawuV"/>
	</g>
	<g id="el_ayB6CQa6rrM">
		<path d="M173.792,64.387c10.341-14.527,24.382-25.508,24.382-25.508l8.154,5.64&#10;&#9;&#9;&#9;c-9.862,6.681-19.166,17.167-26.581,26.967L173.792,64.387z" id="el_gc_Y0zLWI02"/>
		<path d="M175.105,77.857c-7.214,10.28-11.743,18.488-11.743,18.488c-1.506-8.815,1.791-18.069,6.868-26.522&#10;&#9;&#9;&#9;L175.105,77.857z" id="el_2X9otFjA1g8"/>
	</g>
	<path d="M232.467,206.996L232.467,206.996c-6.941,11.1-9.544,26.235-6.972,40.519l9.611,53.353&#10;&#9;&#9;c0.624,3.469,4.156,3.469,4.779,0l9.61-53.353c2.572-14.283-0.032-29.419-6.97-40.519l0,0&#10;&#9;&#9;C239.866,202.742,235.127,202.742,232.467,206.996z" id="el_z4noH1Cgz-O"/>
	<g id="el_FoeP4wp_7mg">
		<path d="M181.646,247.211l-18.873,32.47c-0.783,1.361-1.988,1.57-2.94,1.014c-1.005-0.574-1.749-1.988-1.465-3.756&#10;&#9;&#9;&#9;l12.299-76.499c0.366-2.271,1.853-3.672,3.412-3.672c0.681,0,1.383,0.262,2,0.848C188.2,208.996,190.733,231.583,181.646,247.211z&#10;&#9;&#9;&#9;" id="el_Da7Z_hwg8JM"/>
		<path d="M176.078,197.617c0,0-8.344,56.451-16.245,83.079c-1.005-0.574-1.749-1.988-1.465-3.756&#10;&#9;&#9;&#9;l12.299-76.499c0.366-2.271,1.853-3.672,3.412-3.672C174.76,196.769,175.462,197.031,176.078,197.617z" id="el_gfKUzPo_5Lt"/>
	</g>
	<g id="el_GssaMqZZnwM">
		<path d="M304.326,200.446l12.299,76.488c0.557,3.463-2.783,5.541-4.411,2.744L293.34,247.21&#10;&#9;&#9;&#9;c-9.084-15.625-6.545-38.219,5.574-49.594l0,0C300.958,195.7,303.803,197.188,304.326,200.446z" id="el_-saToFGYPo8"/>
		<path d="M299.328,197.617c0,0,8.342,56.451,16.245,83.079c1.006-0.574,1.749-1.988,1.466-3.756&#10;&#9;&#9;&#9;l-12.299-76.499c-0.367-2.271-1.854-3.672-3.413-3.672C300.646,196.769,299.945,197.031,299.328,197.617z" id="el_hAdYZIXMD_D"/>
	</g>
</g></g>
<script>(function(){var a=document.querySelector('#el_kCvSy_gPQ'),b=a.querySelectorAll('style'),c=function(d){b.forEach(function(f){var g=f.textContent;g&amp;&amp;(f.textContent=g.replace(/transform-box:[^;\r\n]*/gi,'transform-box: '+d))})};c('initial'),window.requestAnimationFrame(function(){return c('fill-box')})})();</script></svg>