<?xml version="1.0" encoding="utf-8"?>
<!-- Generator: Adobe Illustrator 16.0.0, SVG Export Plug-In . SVG Version: 6.00 Build 0)  -->
<!DOCTYPE svg PUBLIC "-//W3C//DTD SVG 1.1//EN" "http://www.w3.org/Graphics/SVG/1.1/DTD/svg11.dtd">
<svg version="1.1" id="Layer_1" xmlns="http://www.w3.org/2000/svg" xmlns:xlink="http://www.w3.org/1999/xlink" x="0px" y="0px"
	 width="78.833px" height="60px" viewBox="0 0 78.833 60" enable-background="new 0 0 78.833 60" xml:space="preserve">
<g>
	<g>
		<g>
			<g>
				<g>
					<path fill="#FFFFFF" d="M17.999,24.226c0.936,1.469,1.403,2.203,2.338,3.674c0.7-1.463,1.484-2.975,2.427-4.299
						c-0.935-1.469-1.403-2.204-2.339-3.674C19.48,21.25,18.698,22.762,17.999,24.226z"/>
					<path fill="#FFFFFF" d="M18.083,16.252c-0.935-1.468-1.402-2.204-2.338-3.674c-0.943,1.325-1.727,2.836-2.427,4.3
						c0.936,1.468,1.404,2.204,2.339,3.673C16.358,19.089,17.141,17.577,18.083,16.252z"/>
					<path fill="#FFFFFF" d="M23.786,17.097c-0.936-1.469-1.404-2.204-2.339-3.672c-1.307,0.48-2.611,1.678-3.363,2.828
						c0.936,1.47,1.406,2.205,2.34,3.674C21.174,18.777,22.48,17.577,23.786,17.097z"/>
					<path fill="#FFFFFF" d="M9.871,27.679C8.114,28.4,6.396,27.96,4.637,27.57c0.936,1.47,1.404,2.204,2.34,3.675
						c1.759,0.389,3.477,0.829,5.233,0.108C11.274,29.885,10.806,29.15,9.871,27.679z"/>
					<path fill="#FFFFFF" d="M12.21,31.354c0.936,1.47,1.404,2.204,2.34,3.674c1.306-0.48,2.61-1.679,3.362-2.83
						c-0.936-1.469-1.404-2.203-2.34-3.673C14.821,29.674,13.516,30.872,12.21,31.354z"/>
					<path fill="#FFFFFF" d="M13.232,24.851c-0.936-1.47-1.403-2.205-2.34-3.673c-0.75,1.15-2.055,2.349-3.361,2.83
						c0.935,1.469,1.403,2.203,2.339,3.672C11.176,27.198,12.482,25.999,13.232,24.851z"/>
					<path fill="#FFFFFF" d="M17.999,24.226c-0.936-1.47-1.404-2.203-2.34-3.674c-0.699,1.462-1.483,2.975-2.426,4.299
						c0.936,1.47,1.404,2.204,2.339,3.674C16.515,27.199,17.297,25.688,17.999,24.226z"/>
					<path fill="#FFFFFF" d="M9.316,34.918c0.936,1.469,1.403,2.204,2.339,3.673c1.759,0.39,3.477,0.832,5.232,0.109
						c-0.935-1.469-1.403-2.203-2.338-3.673C12.793,35.75,11.076,35.307,9.316,34.918z"/>
					<path fill="#FFFFFF" d="M17.912,32.197c0.935,1.471,1.403,2.205,2.339,3.675c0.942-1.325,1.727-2.836,2.425-4.3
						c-0.936-1.47-1.403-2.203-2.34-3.673C19.637,29.362,18.854,30.873,17.912,32.197z"/>
					<path fill="#FFFFFF" d="M22.763,23.601c0.936,1.47,1.403,2.204,2.339,3.673c0.75-1.147,2.056-2.348,3.363-2.829
						c-0.936-1.47-1.404-2.205-2.34-3.675C24.819,21.253,23.513,22.451,22.763,23.601z"/>
					<path fill="#FFFFFF" d="M26.679,13.534c-0.935-1.471-1.403-2.205-2.339-3.675c-1.761-0.39-3.478-0.831-5.234-0.109
						c0.937,1.469,1.404,2.204,2.34,3.674C23.202,12.702,24.92,13.143,26.679,13.534z"/>
					<path fill="#FFFFFF" d="M26.125,20.77c1.756-0.721,3.474-0.279,5.234,0.11c-0.937-1.469-1.405-2.205-2.341-3.672
						c-1.759-0.391-3.477-0.831-5.233-0.111C24.721,18.567,25.189,19.301,26.125,20.77z"/>
					<path fill="#363F48" d="M28.465,24.445c1.756-0.721,3.474-0.28,5.232,0.11c-0.936-1.47-1.402-2.205-2.338-3.675
						c-1.761-0.39-3.479-0.831-5.234-0.11C27.061,22.24,27.529,22.975,28.465,24.445z"/>
					<path fill="#363F48" d="M22.763,23.601c0.75-1.149,2.056-2.348,3.362-2.831c-0.936-1.469-1.404-2.203-2.339-3.673
						c-1.306,0.48-2.611,1.681-3.362,2.83C21.36,21.397,21.828,22.131,22.763,23.601z"/>
					<path fill="#363F48" d="M20.424,19.926c-0.935-1.47-1.404-2.204-2.34-3.674c-0.942,1.325-1.725,2.837-2.425,4.299
						c0.936,1.471,1.404,2.204,2.34,3.674C18.698,22.762,19.48,21.25,20.424,19.926z"/>
					<path fill="#363F48" d="M21.446,13.424c-0.936-1.47-1.404-2.205-2.34-3.674c-1.306,0.481-2.611,1.68-3.36,2.828
						c0.936,1.47,1.403,2.206,2.338,3.674C18.835,15.103,20.14,13.904,21.446,13.424z"/>
					<path fill="#363F48" d="M23.786,17.097c1.756-0.72,3.474-0.279,5.233,0.111c-0.935-1.47-1.403-2.206-2.339-3.674
						c-1.759-0.391-3.477-0.832-5.233-0.11C22.381,14.893,22.85,15.627,23.786,17.097z"/>
					<path fill="#363F48" d="M20.336,27.899c0.938,1.47,1.404,2.203,2.34,3.673c0.699-1.462,1.483-2.974,2.426-4.299
						c-0.936-1.469-1.403-2.203-2.339-3.673C21.821,24.925,21.037,26.437,20.336,27.899z"/>
					<path fill="#363F48" d="M15.572,28.524c0.936,1.47,1.404,2.204,2.34,3.673c0.942-1.324,1.725-2.835,2.424-4.298
						c-0.935-1.471-1.402-2.205-2.338-3.674C17.297,25.688,16.515,27.199,15.572,28.524z"/>
					<path fill="#363F48" d="M14.55,35.027c0.935,1.47,1.403,2.204,2.338,3.673c1.307-0.48,2.613-1.679,3.363-2.828
						c-0.937-1.47-1.404-2.204-2.339-3.675C17.161,33.349,15.856,34.547,14.55,35.027z"/>
					<path fill="#363F48" d="M15.658,20.551c-0.935-1.469-1.403-2.205-2.339-3.673c-0.7,1.464-1.482,2.974-2.427,4.299
						c0.938,1.468,1.404,2.204,2.34,3.673C14.175,23.526,14.959,22.014,15.658,20.551z"/>
					<path fill="#363F48" d="M15.572,28.524c-0.935-1.47-1.403-2.204-2.339-3.674c-0.75,1.148-2.056,2.348-3.362,2.828
						c0.935,1.472,1.403,2.206,2.339,3.675C13.516,30.872,14.821,29.674,15.572,28.524z"/>
					<path fill="#363F48" d="M9.871,27.679c-0.936-1.469-1.404-2.203-2.339-3.672c-1.757,0.721-3.475,0.279-5.234-0.111
						c0.936,1.47,1.404,2.205,2.339,3.674C6.396,27.96,8.114,28.4,9.871,27.679z"/>
					<path fill="#363F48" d="M12.21,31.354c-1.756,0.721-3.474,0.28-5.233-0.108c0.935,1.469,1.403,2.203,2.339,3.673
						c1.759,0.389,3.477,0.832,5.234,0.109C13.614,33.558,13.146,32.823,12.21,31.354z"/>
				</g>
			</g>
			<g>
				
					<rect x="36.794" y="2.121" transform="matrix(0.8438 -0.5366 0.5366 0.8438 -9.7893 24.728)" fill="#E3E3E3" width="1.592" height="54.123"/>
				
					<rect x="36.834" y="2.26" transform="matrix(0.844 -0.5363 0.5363 0.844 -9.8963 24.6188)" fill="#C6C6C6" width="1.076" height="54.123"/>
				<circle fill="#D3A85B" cx="22.818" cy="5.986" r="1.394"/>
				<path fill="#A5A5A5" d="M23.994,5.237c0.158,0.249,0.229,0.528,0.218,0.801c-0.017,0.442-0.245,0.87-0.643,1.125
					c-0.651,0.414-1.514,0.223-1.926-0.427c-0.348-0.547-0.266-1.248,0.156-1.699c0.078-0.084,0.169-0.161,0.271-0.226
					C22.718,4.396,23.58,4.587,23.994,5.237z"/>
				<path fill="#E3E3E3" d="M23.994,5.237c0.158,0.249,0.229,0.528,0.218,0.801c-0.079,0.085-0.17,0.162-0.271,0.227
					c-0.649,0.413-1.512,0.222-1.926-0.427c-0.158-0.247-0.229-0.528-0.216-0.801c0.078-0.084,0.169-0.161,0.271-0.226
					C22.718,4.396,23.58,4.587,23.994,5.237z"/>
			</g>
		</g>
		<g>
			<g>
				<g>
					<path fill="#FFFFFF" d="M60.836,24.226c-0.938,1.469-1.406,2.203-2.342,3.674c-0.697-1.463-1.48-2.975-2.424-4.299
						c0.936-1.469,1.4-2.204,2.338-3.674C59.354,21.25,60.135,22.762,60.836,24.226z"/>
					<path fill="#FFFFFF" d="M60.748,16.252c0.938-1.468,1.406-2.204,2.34-3.674c0.943,1.325,1.729,2.836,2.426,4.3
						c-0.936,1.468-1.404,2.204-2.34,3.673C62.475,19.089,61.689,17.577,60.748,16.252z"/>
					<path fill="#FFFFFF" d="M55.047,17.097c0.936-1.469,1.402-2.204,2.34-3.672c1.307,0.48,2.611,1.678,3.361,2.828
						c-0.938,1.47-1.402,2.205-2.34,3.674C57.66,18.777,56.354,17.577,55.047,17.097z"/>
					<path fill="#FFFFFF" d="M68.963,27.679c1.756,0.722,3.475,0.281,5.232-0.108c-0.934,1.47-1.404,2.204-2.34,3.675
						c-1.758,0.389-3.477,0.829-5.232,0.108C67.561,29.885,68.027,29.15,68.963,27.679z"/>
					<path fill="#FFFFFF" d="M66.623,31.354c-0.936,1.47-1.402,2.204-2.34,3.674c-1.309-0.48-2.613-1.679-3.361-2.83
						c0.936-1.469,1.402-2.203,2.34-3.673C64.012,29.674,65.316,30.872,66.623,31.354z"/>
					<path fill="#FFFFFF" d="M65.6,24.851c0.938-1.47,1.404-2.205,2.342-3.673c0.748,1.15,2.055,2.349,3.361,2.83
						c-0.936,1.469-1.404,2.203-2.34,3.672C67.656,27.198,66.35,25.999,65.6,24.851z"/>
					<path fill="#FFFFFF" d="M60.836,24.226c0.934-1.47,1.404-2.203,2.338-3.674c0.699,1.462,1.482,2.975,2.426,4.299
						c-0.936,1.47-1.404,2.204-2.338,3.674C62.316,27.199,61.533,25.688,60.836,24.226z"/>
					<path fill="#FFFFFF" d="M69.516,34.918c-0.934,1.469-1.404,2.204-2.338,3.673c-1.76,0.39-3.479,0.832-5.234,0.109
						c0.938-1.469,1.404-2.203,2.34-3.673C66.039,35.75,67.758,35.307,69.516,34.918z"/>
					<path fill="#FFFFFF" d="M60.922,32.197c-0.938,1.471-1.404,2.205-2.34,3.675c-0.943-1.325-1.727-2.836-2.426-4.3
						c0.934-1.47,1.4-2.203,2.338-3.673C59.193,29.362,59.977,30.873,60.922,32.197z"/>
					<path fill="#FFFFFF" d="M56.07,23.601c-0.936,1.47-1.406,2.204-2.342,3.673c-0.748-1.147-2.055-2.348-3.359-2.829
						c0.934-1.47,1.4-2.205,2.338-3.675C54.014,21.253,55.318,22.451,56.07,23.601z"/>
					<path fill="#FFFFFF" d="M52.152,13.534c0.936-1.471,1.406-2.205,2.34-3.675c1.76-0.39,3.477-0.831,5.232-0.109
						c-0.936,1.469-1.402,2.204-2.338,3.674C55.631,12.702,53.912,13.143,52.152,13.534z"/>
					<path fill="#FFFFFF" d="M52.707,20.77c-1.756-0.721-3.475-0.279-5.232,0.11c0.936-1.469,1.404-2.205,2.34-3.672
						c1.76-0.391,3.477-0.831,5.232-0.111C54.109,18.567,53.643,19.301,52.707,20.77z"/>
					<path fill="#363F48" d="M50.369,24.445c-1.758-0.721-3.475-0.28-5.234,0.11c0.934-1.47,1.402-2.205,2.34-3.675
						c1.758-0.39,3.477-0.831,5.232-0.11C51.77,22.24,51.303,22.975,50.369,24.445z"/>
					<path fill="#363F48" d="M56.07,23.601c-0.752-1.149-2.057-2.348-3.363-2.831c0.936-1.469,1.402-2.203,2.34-3.673
						c1.307,0.48,2.613,1.681,3.361,2.83C57.471,21.397,57.006,22.131,56.07,23.601z"/>
					<path fill="#363F48" d="M58.408,19.926c0.938-1.47,1.402-2.204,2.34-3.674c0.941,1.325,1.727,2.837,2.426,4.299
						c-0.934,1.471-1.404,2.204-2.338,3.674C60.135,22.762,59.354,21.25,58.408,19.926z"/>
					<path fill="#363F48" d="M57.387,13.424c0.936-1.47,1.402-2.205,2.338-3.674c1.309,0.481,2.613,1.68,3.363,2.828
						c-0.934,1.47-1.402,2.206-2.34,3.674C59.998,15.103,58.693,13.904,57.387,13.424z"/>
					<path fill="#363F48" d="M55.047,17.097c-1.756-0.72-3.473-0.279-5.232,0.111c0.934-1.47,1.402-2.206,2.338-3.674
						c1.76-0.391,3.479-0.832,5.234-0.11C56.449,14.893,55.982,15.627,55.047,17.097z"/>
					<path fill="#363F48" d="M58.494,27.899c-0.938,1.47-1.404,2.203-2.338,3.673c-0.701-1.462-1.482-2.974-2.428-4.299
						c0.936-1.469,1.406-2.203,2.342-3.673C57.014,24.925,57.797,26.437,58.494,27.899z"/>
					<path fill="#363F48" d="M63.262,28.524c-0.938,1.47-1.404,2.204-2.34,3.673c-0.945-1.324-1.729-2.835-2.428-4.298
						c0.936-1.471,1.404-2.205,2.342-3.674C61.533,25.688,62.316,27.199,63.262,28.524z"/>
					<path fill="#363F48" d="M64.283,35.027c-0.936,1.47-1.402,2.204-2.34,3.673c-1.309-0.48-2.611-1.679-3.361-2.828
						c0.936-1.47,1.402-2.204,2.34-3.675C61.67,33.349,62.975,34.547,64.283,35.027z"/>
					<path fill="#363F48" d="M63.174,20.551c0.936-1.469,1.404-2.205,2.34-3.673c0.699,1.464,1.482,2.974,2.428,4.299
						c-0.938,1.468-1.404,2.204-2.342,3.673C64.656,23.526,63.873,22.014,63.174,20.551z"/>
					<path fill="#363F48" d="M63.262,28.524c0.934-1.47,1.402-2.204,2.338-3.674c0.75,1.148,2.057,2.348,3.363,2.828
						c-0.936,1.472-1.402,2.206-2.34,3.675C65.316,30.872,64.012,29.674,63.262,28.524z"/>
					<path fill="#363F48" d="M68.963,27.679c0.936-1.469,1.404-2.203,2.34-3.672c1.756,0.721,3.473,0.279,5.232-0.111
						c-0.936,1.47-1.404,2.205-2.34,3.674C72.438,27.96,70.719,28.4,68.963,27.679z"/>
					<path fill="#363F48" d="M66.623,31.354c1.756,0.721,3.475,0.28,5.232-0.108c-0.936,1.469-1.404,2.203-2.34,3.673
						c-1.758,0.389-3.477,0.832-5.232,0.109C65.221,33.558,65.688,32.823,66.623,31.354z"/>
				</g>
			</g>
			<g>
				
					<rect x="40.445" y="2.122" transform="matrix(-0.844 -0.5363 0.5363 -0.844 60.3985 75.9323)" fill="#E3E3E3" width="1.593" height="54.121"/>
				
					<rect x="40.921" y="2.261" transform="matrix(-0.8443 -0.5359 0.5359 -0.8443 60.7471 76.296)" fill="#C6C6C6" width="1.077" height="54.121"/>
				<path fill="#D3A85B" d="M54.838,5.237c-0.412,0.649-0.221,1.512,0.426,1.925c0.65,0.415,1.514,0.223,1.928-0.427
					c0.412-0.65,0.223-1.512-0.43-1.925C56.115,4.396,55.252,4.587,54.838,5.237z"/>
				<path fill="#A5A5A5" d="M54.838,5.237c-0.156,0.249-0.229,0.528-0.215,0.801c0.014,0.442,0.242,0.87,0.641,1.125
					c0.65,0.414,1.514,0.223,1.928-0.427c0.348-0.547,0.268-1.248-0.156-1.699c-0.08-0.084-0.17-0.161-0.273-0.226
					C56.115,4.396,55.252,4.587,54.838,5.237z"/>
				<path fill="#E3E3E3" d="M54.838,5.237c-0.156,0.249-0.229,0.528-0.215,0.801c0.078,0.085,0.168,0.162,0.271,0.227
					c0.646,0.413,1.51,0.222,1.924-0.427c0.156-0.247,0.227-0.528,0.217-0.801c-0.08-0.084-0.17-0.161-0.273-0.226
					C56.115,4.396,55.252,4.587,54.838,5.237z"/>
			</g>
		</g>
	</g>
	
		<radialGradient id="SVGID_1_" cx="38.4326" cy="73.5371" r="17.6904" gradientTransform="matrix(1.1269 0 0 0.0833 -3.8936 46.942)" gradientUnits="userSpaceOnUse">
		<stop  offset="0" style="stop-color:#000000"/>
		<stop  offset="1" style="stop-color:#000000;stop-opacity:0"/>
	</radialGradient>
	<ellipse opacity="0.2" fill="url(#SVGID_1_)" cx="39.416" cy="53.067" rx="22.528" ry="2.341"/>
</g>
</svg>
