<?xml version="1.0" encoding="utf-8"?>
<!-- Generator: Adobe Illustrator 16.0.0, SVG Export Plug-In . SVG Version: 6.00 Build 0)  -->
<!DOCTYPE svg PUBLIC "-//W3C//DTD SVG 1.1//EN" "http://www.w3.org/Graphics/SVG/1.1/DTD/svg11.dtd">
<svg version="1.1" id="Layer_1" xmlns="http://www.w3.org/2000/svg" xmlns:xlink="http://www.w3.org/1999/xlink" x="0px" y="0px"
	 width="800px" height="300px" viewBox="0 0 800 300" enable-background="new 0 0 800 300" xml:space="preserve">
<g>
	<defs>
		<rect id="SVGID_1_" x="-367.003" y="-331.998" width="1200" height="800"/>
	</defs>
	<use xlink:href="#SVGID_1_"  display="none" overflow="visible" fill="#AAEAF9"/>
	<clipPath id="SVGID_2_">
		<use xlink:href="#SVGID_1_"  display="none" overflow="visible"/>
	</clipPath>
	<path clip-path="url(#SVGID_2_)" fill="#F1F2F2" d="M-142.003-233.998h-92c-6.6,0-12-5.4-12-12v-2c0-6.6,5.4-12,12-12h92
		c6.6,0,12,5.4,12,12v2C-130.003-239.397-135.403-233.998-142.003-233.998z"/>
	<path clip-path="url(#SVGID_2_)" fill="#F1F2F2" d="M109.041-143.998h-92c-6.601,0-12-5.4-12-12v-2c0-6.6,5.399-12,12-12h92
		c6.6,0,12,5.4,12,12v2C121.041-149.397,115.641-143.998,109.041-143.998z"/>
	<path clip-path="url(#SVGID_2_)" fill="#F1F2F2" d="M438.273-233.998h-92c-6.601,0-12-5.4-12-12v-2c0-6.6,5.399-12,12-12h92
		c6.6,0,12,5.4,12,12v2C450.273-239.397,444.873-233.998,438.273-233.998z"/>
	<path clip-path="url(#SVGID_2_)" fill="#F1F2F2" d="M755.134-117.998h-92c-6.6,0-12-5.4-12-12v-2c0-6.6,5.4-12,12-12h92
		c6.6,0,12,5.4,12,12v2C767.134-123.397,761.733-117.998,755.134-117.998z"/>
	<path clip-path="url(#SVGID_2_)" fill="#C49A6C" d="M-163.891,315.148h-1.333c-6.601,0-12-5.4-12-12V174.709c0-6.6,5.399-12,12-12
		h1.333c6.601,0,12,5.4,12,12v128.439C-151.891,309.748-157.29,315.148-163.891,315.148z"/>
	<polygon clip-path="url(#SVGID_2_)" fill="#558B2F" points="-127.558,158.854 -98.558,158.854 -133.341,107.488 -106.058,107.488 
		-133.726,61.39 -113.058,61.39 -141.591,7.39 -125.558,7.39 -164.558,-90.074 -203.558,7.39 -187.523,7.39 -216.058,61.39 
		-195.388,61.39 -223.058,107.488 -195.773,107.488 -230.558,158.854 -201.558,158.854 -238.558,207.586 -164.558,207.586 
		-90.558,207.586 	"/>
	<path opacity="0.2" clip-path="url(#SVGID_2_)" fill="#231F20" d="M-98.558,158.854l-34.783-51.366h27.283l-27.669-46.098h20.669
		l-28.533-54h16.033l-39-97.463v405.22h0.667c6.601,0,12-7.111,12-15.805v-91.756h61.333l-37-48.732H-98.558z"/>
	<path clip-path="url(#SVGID_2_)" fill="#C49A6C" d="M-305.273,323.092h-1.334c-6.6,0-12-5.4-12-12V201.924c0-6.6,5.4-12,12-12
		h1.334c6.6,0,12,5.4,12,12v109.168C-293.273,317.691-298.674,323.092-305.273,323.092z"/>
	<polygon clip-path="url(#SVGID_2_)" fill="#3D9955" points="-268.94,186.557 -239.94,186.557 -274.725,141.684 -247.44,141.684 
		-275.109,101.414 -254.44,101.414 -282.975,54.24 -266.94,54.24 -305.94,-30.902 -344.94,54.24 -328.906,54.24 -357.44,101.414 
		-336.771,101.414 -364.44,141.684 -337.156,141.684 -371.94,186.557 -342.94,186.557 -379.94,229.127 -305.94,229.127 
		-231.94,229.127 	"/>
	<path opacity="0.2" clip-path="url(#SVGID_2_)" fill="#231F20" d="M-239.94,186.557l-34.784-44.873h27.284l-27.669-40.27h20.669
		l-28.534-47.173h16.034l-39-85.143v353.994h0.667c6.6,0,12-6.213,12-13.807v-80.158h61.333l-37-42.57H-239.94z"/>
	<path opacity="0.2" clip-path="url(#SVGID_2_)" fill="#231F20" d="M878.011,311.617c0-21.787,0-43.574,0-65.361
		c0-11.1,0-22.201,0-33.301c9.282,5.801,20.245,9.162,32,9.162c33.412,0,60.5-27.086,60.5-60.5c0-9.203-2.065-17.922-5.742-25.73
		c3.677-7.811,5.742-16.529,5.742-25.732c0-27.774-18.724-51.161-44.231-58.269c-7.108-25.508-30.495-44.231-58.269-44.231v313.623
		C873.011,321.281,878.011,318.063,878.011,311.617z"/>
	<rect x="-238.558" y="173.67" clip-path="url(#SVGID_2_)" fill="#C49A6C" width="26" height="121.332"/>
	<path clip-path="url(#SVGID_2_)" fill="#FFEE58" d="M-225.558,33.93L-225.558,33.93c25.574,0,46.498,20.924,46.498,46.497v113.995
		c0,25.574-20.924,46.498-46.498,46.498l0,0c-25.573,0-46.497-20.924-46.497-46.498V80.427
		C-272.055,54.854-251.131,33.93-225.558,33.93z"/>
	<path opacity="0.2" clip-path="url(#SVGID_2_)" fill="#231F20" d="M-179.06,194.422V80.427c0-25.573-20.924-46.498-46.498-46.498
		v261.072h13v-55.957C-193.26,233.385-179.06,215.486-179.06,194.422z"/>
	<g clip-path="url(#SVGID_2_)">
		<circle fill="#006838" cx="-354.669" cy="285.002" r="24.667"/>
		<circle fill="#006838" cx="-320.336" cy="294.67" r="21"/>
		<circle fill="#006838" cx="-294.336" cy="286.67" r="21.667"/>
		<circle fill="#006838" cx="-264.003" cy="292.336" r="18.667"/>
		<circle fill="#006838" cx="-235.669" cy="288.67" r="23.667"/>
		<circle fill="#006838" cx="-201.336" cy="293.002" r="28"/>
		<circle fill="#006838" cx="-175.003" cy="301.336" r="20.333"/>
		<circle fill="#006838" cx="-147.669" cy="294.002" r="20.333"/>
		<circle fill="#006838" cx="-115.336" cy="295.67" r="22"/>
		<circle fill="#006838" cx="-83.669" cy="292.002" r="23.667"/>
		<circle fill="#006838" cx="-54.003" cy="303.002" r="18"/>
		<circle fill="#006838" cx="-23.336" cy="286.336" r="26"/>
		<circle fill="#006838" cx="5.997" cy="300.336" r="19.333"/>
		<circle fill="#006838" cx="27.997" cy="290.336" r="22"/>
		<circle fill="#006838" cx="606.497" cy="295.336" r="20.333"/>
		<circle fill="#006838" cx="633.831" cy="288.002" r="20.333"/>
		<circle fill="#006838" cx="666.164" cy="289.67" r="22"/>
		<circle fill="#006838" cx="697.831" cy="286.002" r="23.667"/>
		<circle fill="#006838" cx="727.497" cy="297.002" r="18"/>
		<circle fill="#006838" cx="758.164" cy="280.336" r="26"/>
		<circle fill="#006838" cx="787.497" cy="294.336" r="19.333"/>
		<circle fill="#006838" cx="815.497" cy="294.336" r="22"/>
		<circle fill="#006838" cx="56.997" cy="300.002" r="19"/>
		<circle fill="#006838" cx="85.664" cy="288.002" r="19.667"/>
		<circle fill="#006838" cx="110.664" cy="304.336" r="19.333"/>
		<circle fill="#006838" cx="142.664" cy="295.67" r="22"/>
		<circle fill="#006838" cx="180.997" cy="294.002" r="20.333"/>
		<circle fill="#006838" cx="208.33" cy="307.002" r="19"/>
		<circle fill="#006838" cx="238.331" cy="298.086" r="18.333"/>
	</g>
	<path clip-path="url(#SVGID_2_)" fill="#44C9F2" d="M573.997,295.002h-306h-12v9.686v13.719v58.912c0,5.326,5.4,9.684,12,9.684
		h154.667v43.334c0,6.6,5.399,12,12,12h139.333c6.6,0,12-5.4,12-12v-53.018V359.67v-41.264v-13.719v-9.686H573.997z"/>
	<g clip-path="url(#SVGID_2_)">
		<g>
			<path fill="#558B2F" d="M560.932,444.104c3.985-3.247,7.073-8.405,7.743-13.501c0.577-4.391-0.437-8.27-2.196-12.271
				c-1.738-3.95-5.058-7.109-6.297-11.276c-1.377-4.63,3.488-10.355,5.727-14.07c1.815-3.012,3.461-6.285,3.758-9.847
				c0.619-7.44-1.859-15.945-5.582-22.398c-1.61-2.791-5.932-0.274-4.318,2.523c3.452,5.983,6.163,14.666,4.539,21.483
				c-1.805,7.574-8.958,12.797-9.295,20.968c-0.275,6.69,6.525,12.472,8.409,18.62c1.822,5.942-1.416,12.479-6.022,16.233
				C554.896,442.606,558.455,446.122,560.932,444.104L560.932,444.104z"/>
		</g>
	</g>
	<g clip-path="url(#SVGID_2_)">
		<g>
			<path fill="#558B2F" d="M564.693,459.123c-4.519-6.282-4.432-14.045,0.393-20.136c3.838-4.844,9.881-7.607,11.188-14.125
				c1.448-7.221-3.5-14.285-3.818-21.417c-0.304-6.789,5.298-14.953,9.946-19.609c2.28-2.283-1.255-5.819-3.535-3.535
				c-5.043,5.051-9.188,12.058-10.95,18.95c-2.243,8.777,5.036,16.801,3.332,25.301c-0.691,3.447-4.732,5.966-7.136,8.194
				c-3.137,2.908-5.461,6.345-7.006,10.32c-2.28,5.868-0.305,13.612,3.268,18.58C562.239,464.238,566.58,461.746,564.693,459.123
				L564.693,459.123z"/>
		</g>
	</g>
	<g clip-path="url(#SVGID_2_)">
		<g>
			<path fill="#558B2F" d="M542.518,385.273c-3.512,5.535-4.38,12.551-2.297,18.729c1.334,3.952,4.451,7.257,7.531,9.936
				c2.682,2.333,6.323,4.243,7.66,7.727c1.634,4.256-0.842,10.238-1.777,14.5c-0.741,3.38-0.937,6.635-0.309,10.046
				c1.288,7.003,6.943,14.548,12.194,19.228c2.398,2.138,5.947-1.386,3.535-3.535c-4.871-4.341-9.275-10.703-10.908-17.021
				c-1.91-7.389,3.637-14.942,2.514-22.445c-0.986-6.586-6.718-9.496-11.189-13.671c-6.007-5.607-7.014-14.07-2.636-20.968
				C548.568,385.065,544.24,382.56,542.518,385.273L542.518,385.273z"/>
		</g>
	</g>
	<g clip-path="url(#SVGID_2_)">
		<g>
			<path fill="#558B2F" d="M413.044,399.752c-3.579-2.94-5.46-7.344-4.489-11.938c1.126-5.333,5.872-8.793,6.491-14.347
				c0.624-5.606-4.884-10.674-6.871-15.497c-2.07-5.025,0.549-12.521,3.134-17.036c1.605-2.803-2.716-5.32-4.316-2.523
				c-2.817,4.919-4.473,11.011-4.452,16.655c0.026,7.01,8.94,13.053,7.237,19.7c-0.751,2.932-3.488,5.652-4.811,8.378
				c-1.46,3.008-1.999,6.216-1.558,9.513c0.537,4.016,2.971,8.061,6.1,10.631C411.979,405.316,415.537,401.8,413.044,399.752
				L413.044,399.752z"/>
		</g>
	</g>
	<g clip-path="url(#SVGID_2_)">
		<g>
			<path fill="#558B2F" d="M410.84,416.676c2.931-4.11,3.755-9.247,2.764-14.118c-0.646-3.174-2.973-5.976-5.143-8.256
				c-1.995-2.098-4.915-3.688-5.911-6.544c-1.159-3.321,1.411-8.448,2.276-11.704c0.717-2.702,0.729-5.319,0.223-8.051
				c-0.974-5.249-4.806-10.892-8.535-14.649c-2.273-2.291-5.808,1.245-3.535,3.535c3.539,3.566,7.035,9.058,7.481,14.106
				c0.511,5.79-4.092,11.192-2.93,17.087c0.871,4.418,4.331,6.801,7.396,9.755c4.705,4.534,5.379,11.009,1.598,16.315
				C404.647,416.784,408.986,419.277,410.84,416.676L410.84,416.676z"/>
		</g>
	</g>
	<g clip-path="url(#SVGID_2_)">
		<g>
			<path fill="#558B2F" d="M420.271,359.82c3.271,5.206,2.365,10.947-1.824,15.332c-3.292,3.446-7.499,5.229-8.778,10.186
				c-1.354,5.246,1.843,10.897,2.028,16.134c0.187,5.253-4.717,11.359-8.443,14.704c-2.405,2.157,1.144,5.682,3.535,3.535
				c4.15-3.724,7.507-8.935,9.307-14.17c2.31-6.715-3.041-13.313-1.35-19.865c0.654-2.536,4.487-4.56,6.344-6.152
				c2.551-2.187,4.293-4.904,5.55-7.983c1.795-4.401,0.395-10.353-2.052-14.243C422.878,354.575,418.55,357.082,420.271,359.82
				L420.271,359.82z"/>
		</g>
	</g>
	<g clip-path="url(#SVGID_2_)">
		<g>
			<path fill="#558B2F" d="M285.739,398.377c3.985-3.247,7.074-8.404,7.744-13.501c0.578-4.391-0.437-8.27-2.196-12.271
				c-1.738-3.95-5.058-7.109-6.297-11.276c-1.377-4.63,3.488-10.355,5.727-14.07c1.815-3.012,3.46-6.285,3.757-9.847
				c0.62-7.44-1.859-15.945-5.582-22.398c-1.61-2.791-5.932-0.274-4.317,2.523c3.452,5.983,6.163,14.666,4.539,21.483
				c-1.805,7.574-8.959,12.796-9.295,20.968c-0.275,6.69,6.526,12.472,8.41,18.62c1.821,5.942-1.417,12.48-6.024,16.233
				C279.703,396.879,283.263,400.395,285.739,398.377L285.739,398.377z"/>
		</g>
	</g>
	<g clip-path="url(#SVGID_2_)">
		<g>
			<path fill="#558B2F" d="M289.501,413.396c-4.518-6.282-4.432-14.046,0.393-20.135c3.837-4.845,9.881-7.607,11.188-14.126
				c1.448-7.221-3.5-14.284-3.819-21.417c-0.303-6.788,5.298-14.953,9.947-19.607c2.281-2.283-1.254-5.818-3.535-3.535
				c-5.044,5.049-9.189,12.057-10.95,18.948c-2.244,8.778,5.036,16.801,3.332,25.301c-0.691,3.448-4.732,5.967-7.135,8.194
				c-3.137,2.908-5.461,6.345-7.006,10.32c-2.28,5.868-0.305,13.612,3.268,18.58C287.048,418.512,291.388,416.02,289.501,413.396
				L289.501,413.396z"/>
		</g>
	</g>
	<g clip-path="url(#SVGID_2_)">
		<g>
			<path fill="#558B2F" d="M267.327,339.547c-3.513,5.535-4.381,12.551-2.297,18.729c1.333,3.952,4.451,7.257,7.53,9.936
				c2.682,2.333,6.324,4.243,7.661,7.728c1.633,4.256-0.842,10.237-1.777,14.499c-0.741,3.381-0.937,6.636-0.309,10.046
				c1.288,7.003,6.943,14.548,12.195,19.228c2.398,2.138,5.947-1.386,3.535-3.535c-4.871-4.342-9.276-10.703-10.909-17.021
				c-1.909-7.389,3.636-14.941,2.513-22.443c-0.986-6.588-6.717-9.498-11.188-13.673c-6.007-5.607-7.013-14.07-2.636-20.968
				C273.377,339.339,269.049,336.833,267.327,339.547L267.327,339.547z"/>
		</g>
	</g>
	<circle clip-path="url(#SVGID_2_)" fill="#414042" cx="546.497" cy="437.002" r="11.5"/>
	<circle clip-path="url(#SVGID_2_)" fill="#414042" cx="574.997" cy="440.252" r="10.25"/>
	<path clip-path="url(#SVGID_2_)" fill="#A97C50" d="M585.997,295.002v9.686v13.719v41.264v17.648v53.018c0,6.6-5.4,12-12,12
		H434.664c-6.601,0-12-5.4-12-12v-43.334H267.997c-6.6,0-12-4.357-12-9.684v-58.912v-13.719v-9.686h-623v173h1200v-173H585.997z"/>
	<g clip-path="url(#SVGID_2_)">
		<circle fill="#FFCA28" cx="825.493" cy="236.279" r="14.922"/>
		<circle fill="#FFEE58" cx="825.493" cy="236.279" r="12.518"/>
		<path fill="#FFCA28" d="M830.579,240.768c-1.247,1.414-3.053,2.322-5.086,2.322c-3.762,0-6.812-3.049-6.812-6.811
			s3.05-6.811,6.812-6.811c1.959,0,3.713,0.84,4.955,2.164h4.215c-1.698-3.344-5.162-5.641-9.17-5.641
			c-5.683,0-10.289,4.605-10.289,10.287s4.606,10.289,10.289,10.289c4.07,0,7.578-2.371,9.246-5.801H830.579z"/>
		<path opacity="0.2" fill="#231F20" d="M840.415,236.279c0-8.24-6.682-14.922-14.922-14.922v29.844
			C833.733,251.201,840.415,244.521,840.415,236.279z"/>
	</g>
	<g clip-path="url(#SVGID_2_)">
		<circle fill="#FFCA28" cx="485.869" cy="379.336" r="14.922"/>
		<circle fill="#FFEE58" cx="485.869" cy="379.336" r="12.519"/>
		<path fill="#FFCA28" d="M490.956,383.824c-1.248,1.412-3.053,2.322-5.087,2.322c-3.762,0-6.812-3.049-6.812-6.811
			s3.05-6.811,6.812-6.811c1.96,0,3.714,0.84,4.956,2.164h4.214c-1.698-3.346-5.162-5.643-9.17-5.643
			c-5.683,0-10.288,4.607-10.288,10.289s4.605,10.287,10.288,10.287c4.07,0,7.578-2.369,9.247-5.799H490.956z"/>
		<path opacity="0.2" fill="#231F20" d="M500.791,379.336c0-8.242-6.681-14.922-14.922-14.922v29.844
			C494.11,394.258,500.791,387.576,500.791,379.336z"/>
	</g>
	<path clip-path="url(#SVGID_2_)" fill="#558B2F" d="M382.214,284.754l-2.313-2.313c-0.47-0.469-0.47-1.238,0-1.709l2.313-2.313
		c0.47-0.469,1.238-0.469,1.709,0l2.312,2.313c0.47,0.471,0.47,1.24,0,1.709l-2.312,2.313
		C383.452,285.225,382.684,285.225,382.214,284.754z"/>
	<path clip-path="url(#SVGID_2_)" fill="#558B2F" d="M387.899,284.754l-2.313-2.313c-0.47-0.469-0.47-1.238,0-1.709l2.313-2.313
		c0.471-0.469,1.239-0.469,1.709,0l2.313,2.313c0.47,0.471,0.47,1.24,0,1.709l-2.313,2.313
		C389.139,285.225,388.37,285.225,387.899,284.754z"/>
	<path clip-path="url(#SVGID_2_)" fill="#558B2F" d="M393.587,284.754l-2.313-2.313c-0.471-0.469-0.471-1.238,0-1.709l2.313-2.313
		c0.47-0.469,1.238-0.469,1.708,0l2.313,2.313c0.47,0.471,0.47,1.24,0,1.709l-2.313,2.313
		C394.825,285.225,394.057,285.225,393.587,284.754z"/>
	<path clip-path="url(#SVGID_2_)" fill="#558B2F" d="M399.273,284.754l-2.313-2.313c-0.47-0.469-0.47-1.238,0-1.709l2.313-2.313
		c0.47-0.469,1.238-0.469,1.709,0l2.312,2.313c0.471,0.471,0.471,1.24,0,1.709l-2.312,2.313
		C400.512,285.225,399.743,285.225,399.273,284.754z"/>
	<path clip-path="url(#SVGID_2_)" fill="#558B2F" d="M404.96,284.754l-2.313-2.313c-0.47-0.469-0.47-1.238,0-1.709l2.313-2.313
		c0.471-0.469,1.239-0.469,1.709,0l2.313,2.313c0.47,0.471,0.47,1.24,0,1.709l-2.313,2.313
		C406.199,285.225,405.431,285.225,404.96,284.754z"/>
	<path clip-path="url(#SVGID_2_)" fill="#558B2F" d="M410.646,284.754l-2.313-2.313c-0.47-0.469-0.47-1.238,0-1.709l2.313-2.313
		c0.47-0.469,1.239-0.469,1.709,0l2.312,2.313c0.471,0.471,0.471,1.24,0,1.709l-2.312,2.313
		C411.886,285.225,411.116,285.225,410.646,284.754z"/>
	<path clip-path="url(#SVGID_2_)" fill="#558B2F" d="M416.333,284.754l-2.313-2.313c-0.47-0.469-0.47-1.238,0-1.709l2.313-2.313
		c0.47-0.469,1.239-0.469,1.709,0l2.313,2.313c0.47,0.471,0.47,1.24,0,1.709l-2.313,2.313
		C417.572,285.225,416.803,285.225,416.333,284.754z"/>
	<path clip-path="url(#SVGID_2_)" fill="#558B2F" d="M422.02,284.754l-2.313-2.313c-0.47-0.469-0.47-1.238,0-1.709l2.313-2.313
		c0.471-0.469,1.239-0.469,1.709,0l2.313,2.313c0.47,0.471,0.47,1.24,0,1.709l-2.313,2.313
		C423.259,285.225,422.49,285.225,422.02,284.754z"/>
	<path clip-path="url(#SVGID_2_)" fill="#558B2F" d="M422.02,284.754l-2.313-2.313c-0.47-0.469-0.47-1.238,0-1.709l2.313-2.313
		c0.471-0.469,1.239-0.469,1.709,0l2.313,2.313c0.47,0.471,0.47,1.24,0,1.709l-2.313,2.313
		C423.259,285.225,422.49,285.225,422.02,284.754z"/>
	<path clip-path="url(#SVGID_2_)" fill="#558B2F" d="M427.707,284.754l-2.313-2.313c-0.47-0.469-0.47-1.238,0-1.709l2.313-2.313
		c0.47-0.469,1.239-0.469,1.709,0l2.313,2.313c0.47,0.471,0.47,1.24,0,1.709l-2.313,2.313
		C428.946,285.225,428.177,285.225,427.707,284.754z"/>
	<path clip-path="url(#SVGID_2_)" fill="#558B2F" d="M433.395,284.754l-2.313-2.313c-0.47-0.469-0.47-1.238,0-1.709l2.313-2.313
		c0.47-0.469,1.238-0.469,1.709,0l2.312,2.313c0.471,0.471,0.471,1.24,0,1.709l-2.312,2.313
		C434.633,285.225,433.864,285.225,433.395,284.754z"/>
	<path clip-path="url(#SVGID_2_)" fill="#558B2F" d="M437.919,286.025l-1.234-3.027c-0.251-0.615,0.047-1.324,0.662-1.576
		l3.028-1.234c0.615-0.25,1.324,0.047,1.575,0.662l1.234,3.029c0.251,0.615-0.047,1.324-0.662,1.574l-3.027,1.234
		C438.879,286.939,438.17,286.641,437.919,286.025z"/>
	<path clip-path="url(#SVGID_2_)" fill="#558B2F" d="M444.002,289.074l-1.66-2.816c-0.338-0.572-0.146-1.316,0.427-1.654
		l2.817-1.662c0.572-0.336,1.317-0.145,1.654,0.428l1.661,2.816c0.337,0.574,0.145,1.318-0.428,1.656l-2.816,1.66
		C445.085,289.84,444.34,289.646,444.002,289.074z"/>
	<path clip-path="url(#SVGID_2_)" fill="#558B2F" d="M449.124,290.822l-1.029-3.104c-0.209-0.631,0.136-1.318,0.766-1.527
		l3.104-1.031c0.631-0.209,1.317,0.137,1.527,0.768l1.029,3.104c0.21,0.631-0.136,1.318-0.767,1.527l-3.104,1.029
		C450.021,291.797,449.334,291.453,449.124,290.822z"/>
	<path clip-path="url(#SVGID_2_)" fill="#558B2F" d="M455.483,293.189l-1.765-2.754c-0.358-0.559-0.193-1.311,0.366-1.668
		l2.753-1.764c0.56-0.359,1.312-0.195,1.67,0.365l1.764,2.754c0.358,0.559,0.194,1.311-0.365,1.668l-2.754,1.764
		C456.593,293.914,455.842,293.75,455.483,293.189z"/>
	<path clip-path="url(#SVGID_2_)" fill="#558B2F" d="M461.113,294.088l-1.71-2.787c-0.347-0.566-0.168-1.314,0.398-1.662
		l2.788-1.709c0.566-0.348,1.313-0.168,1.661,0.398l1.71,2.787c0.348,0.566,0.168,1.314-0.398,1.662l-2.787,1.709
		C462.209,294.834,461.461,294.656,461.113,294.088z"/>
	<path clip-path="url(#SVGID_2_)" fill="#558B2F" d="M466.812,295.16l-1.722-2.779c-0.35-0.564-0.174-1.314,0.392-1.664l2.78-1.721
		c0.565-0.35,1.313-0.174,1.663,0.391l1.722,2.781c0.351,0.564,0.174,1.313-0.392,1.662l-2.779,1.723
		C467.91,295.902,467.161,295.727,466.812,295.16z"/>
	<path clip-path="url(#SVGID_2_)" fill="#558B2F" d="M472.468,296.131l-1.691-2.799c-0.344-0.568-0.16-1.316,0.409-1.66l2.798-1.689
		c0.569-0.346,1.316-0.16,1.66,0.408l1.69,2.799c0.345,0.568,0.16,1.314-0.409,1.658l-2.799,1.691
		C473.558,296.883,472.812,296.699,472.468,296.131z"/>
	<path clip-path="url(#SVGID_2_)" fill="#558B2F" d="M478.195,297.365l-1.731-2.773c-0.352-0.564-0.178-1.314,0.386-1.666
		l2.773-1.73c0.564-0.352,1.313-0.18,1.665,0.385l1.731,2.773c0.353,0.564,0.179,1.314-0.385,1.666l-2.774,1.73
		C479.297,298.102,478.548,297.93,478.195,297.365z"/>
	<path clip-path="url(#SVGID_2_)" fill="#558B2F" d="M483.882,298.432l-1.73-2.773c-0.353-0.564-0.179-1.313,0.385-1.664
		l2.774-1.732c0.563-0.352,1.313-0.178,1.664,0.385l1.732,2.775c0.352,0.563,0.178,1.313-0.386,1.664l-2.774,1.732
		C484.983,299.17,484.234,298.996,483.882,298.432z"/>
	<path clip-path="url(#SVGID_2_)" fill="#FFCA28" d="M510.727,407.67h-38.792c-0.354,0-0.701,0.035-1.041,0.086
		c3.324,0.508,5.895,3.391,5.895,6.852v5.563v15.229v6.938h33.938h6.938v-6.938V420.17v-5.563
		C517.664,410.791,514.542,407.67,510.727,407.67z"/>
	<path clip-path="url(#SVGID_2_)" fill="#E64A19" d="M509.881,407.67h-37.995c-0.338,0-0.668,0.035-0.992,0.086
		c3.17,0.508,5.622,3.391,5.622,6.852v5.563v15.229v6.938h32.365h6.616v-6.938V420.17v-5.563
		C515.497,410.791,513.52,407.67,509.881,407.67z"/>
	<rect x="476.622" y="420.17" clip-path="url(#SVGID_2_)" fill="#FFCA28" width="41.042" height="4.166"/>
	<rect x="476.622" y="440.086" clip-path="url(#SVGID_2_)" fill="#FFCA28" width="41.042" height="2.25"/>
	<path clip-path="url(#SVGID_2_)" fill="#FFCA28" d="M473.214,407.67h-10.309c-3.746,0-6.783,2.719-6.783,6.072v1.01v21.512v6.072
		h6.783h10.309h6.783v-6.072v-21.512v-1.01C479.997,410.389,476.96,407.67,473.214,407.67z"/>
	<path clip-path="url(#SVGID_2_)" fill="#F9A825" d="M471.424,407.67h-9.229c-3.354,0-6.073,2.719-6.073,6.072v1.01v21.512v6.072
		h6.073h9.229h6.073v-6.072v-21.512v-1.01C477.497,410.389,474.778,407.67,471.424,407.67z"/>
	<path clip-path="url(#SVGID_2_)" fill="#C63F1A" d="M470.327,409.92h-7.035c-2.556,0-4.628,2.365-4.628,5.283v0.879v18.719v5.285
		h4.628h7.035h4.628v-5.285v-18.719v-0.879C474.955,412.285,472.883,409.92,470.327,409.92z"/>
	<rect x="456.102" y="420.17" clip-path="url(#SVGID_2_)" fill="#F9A825" width="21.396" height="4.166"/>
	<path clip-path="url(#SVGID_2_)" fill="#FFCA28" d="M500.609,431.586h-2.334c-0.627,0-1.135-0.508-1.135-1.135v-3.23
		c0-0.627,0.508-1.135,1.135-1.135h2.334c0.627,0,1.135,0.508,1.135,1.135v3.23C501.744,431.078,501.236,431.586,500.609,431.586z"
		/>
	<path clip-path="url(#SVGID_2_)" fill="#58595B" d="M500.224,428.055c0-0.432-0.35-0.781-0.781-0.781s-0.781,0.35-0.781,0.781
		c0,0.336,0.214,0.615,0.51,0.727v1.377c0,0.121,0.099,0.219,0.22,0.219h0.104c0.12,0,0.219-0.098,0.219-0.219v-1.377
		C500.01,428.67,500.224,428.391,500.224,428.055z"/>
	<path clip-path="url(#SVGID_2_)" fill="#558B2F" d="M325.536,284.408l34.791,18.303c2.27,1.145,5.063,0.223,6.206-2.047l0,0
		c1.144-2.27,0.224-5.061-2.046-6.205l-33.008-16.639c-2.27-1.145-5.062-0.223-6.205,2.047l0,0
		C324.13,282.137,323.267,283.264,325.536,284.408z"/>
	<path clip-path="url(#SVGID_2_)" fill="#689F38" d="M428.202,304.342h-57.57c-6.258,0-11.377-5.119-11.377-11.377l0,0
		c0-6.258,5.119-11.377,11.377-11.377h57.57c6.258,0,11.504,2.906,28.209,8.668l-16.832,2.709
		C439.579,299.223,434.46,304.342,428.202,304.342z"/>
	<ellipse clip-path="url(#SVGID_2_)" fill="#558B2F" cx="367.251" cy="292.168" rx="16.705" ry="12.174"/>
	<path clip-path="url(#SVGID_2_)" fill="#689F38" d="M474.855,301.498l-47.331,2.844c-3.665,0-6.664-3.707-6.664-8.236v-2.635
		c0-4.531,2.999-8.236,6.664-8.236l62.525,10.871C490.05,300.635,478.521,301.498,474.855,301.498z"/>
	<circle clip-path="url(#SVGID_2_)" fill="#689F38" cx="366.363" cy="280.232" r="3.732"/>
	<circle clip-path="url(#SVGID_2_)" fill="#F1F2F2" cx="366.362" cy="280.232" r="2.457"/>
	<circle clip-path="url(#SVGID_2_)" fill="#231F20" cx="366.363" cy="280.232" r="1.45"/>
	<circle clip-path="url(#SVGID_2_)" fill="#689F38" cx="373.827" cy="280.232" r="3.732"/>
	<circle clip-path="url(#SVGID_2_)" fill="#F1F2F2" cx="373.826" cy="280.232" r="2.457"/>
	<circle clip-path="url(#SVGID_2_)" fill="#231F20" cx="373.827" cy="280.232" r="1.45"/>
	<path clip-path="url(#SVGID_2_)" fill="#558B2F" d="M385.821,299.721c0,0,6.932,4.77,5.776,7.611
		c-1.155,2.844-3.732,4.533-3.732,4.533l-0.178,4.264l-1.866-2.754l-2.665,2.754l0.8-3.908l-2.933-0.09l4.798-2.311
		c0,0,1.955-2.221,1.334-3.73c-0.623-1.512-3.021-0.711-4.088-2.756C382.001,301.291,383.512,298.684,385.821,299.721z"/>
	<path clip-path="url(#SVGID_2_)" fill="#558B2F" d="M421.414,299.721c0,0-6.931,4.77-5.775,7.611
		c1.155,2.844,3.731,4.533,3.731,4.533l0.178,4.264l1.866-2.754l2.666,2.754l-0.8-3.908l2.932-0.09l-4.798-2.311
		c0,0-1.954-2.221-1.333-3.73c0.622-1.512,3.021-0.711,4.088-2.756C425.235,301.291,423.725,298.684,421.414,299.721z"/>
	<path clip-path="url(#SVGID_2_)" fill="#558B2F" d="M356.624,282.775c0,0-3.238,3.324-9.933,2.713s4.06,4.777,4.06,4.777
		l4.746-1.891L356.624,282.775z"/>
	<polygon clip-path="url(#SVGID_2_)" fill="#F1F2F2" points="324.81,283.965 325.33,286.521 329.552,286.521 	"/>
	<polygon clip-path="url(#SVGID_2_)" fill="#F1F2F2" points="327.181,285.242 327.701,287.799 331.923,287.799 	"/>
	<polygon clip-path="url(#SVGID_2_)" fill="#F1F2F2" points="329.552,286.521 330.072,289.078 334.294,289.078 	"/>
	<polygon clip-path="url(#SVGID_2_)" fill="#F1F2F2" points="331.923,287.799 332.443,290.355 336.665,290.355 	"/>
	<polygon clip-path="url(#SVGID_2_)" fill="#F1F2F2" points="334.294,289.078 334.814,291.635 339.036,291.635 	"/>
	<polygon clip-path="url(#SVGID_2_)" fill="#F1F2F2" points="336.294,290.141 336.814,292.697 341.036,292.697 	"/>
	<polygon clip-path="url(#SVGID_2_)" fill="#F1F2F2" points="338.403,291.266 338.924,293.822 343.145,293.822 	"/>
	<polygon clip-path="url(#SVGID_2_)" fill="#F1F2F2" points="340.828,292.543 341.349,295.1 345.57,295.1 	"/>
	<polygon clip-path="url(#SVGID_2_)" fill="#F1F2F2" points="343.199,293.822 343.72,296.379 347.941,296.379 	"/>
	<polygon clip-path="url(#SVGID_2_)" fill="#F1F2F2" points="345.727,295.193 346.247,297.75 350.468,297.75 	"/>
	<polygon clip-path="url(#SVGID_2_)" fill="#F1F2F2" points="325.705,296.379 323.374,297.943 325.705,297.943 328.037,297.943 	"/>
	<polygon clip-path="url(#SVGID_2_)" fill="#F1F2F2" points="330.368,296.379 328.036,297.943 330.368,297.943 332.7,297.943 	"/>
	<polygon clip-path="url(#SVGID_2_)" fill="#F1F2F2" points="335.031,296.379 332.7,297.943 335.031,297.943 337.363,297.943 	"/>
	<polygon clip-path="url(#SVGID_2_)" fill="#F1F2F2" points="339.694,296.379 337.362,297.943 339.694,297.943 342.025,297.943 	"/>
	<polygon clip-path="url(#SVGID_2_)" fill="#F1F2F2" points="344.357,296.379 342.025,297.943 344.357,297.943 346.689,297.943 	"/>
	<path clip-path="url(#SVGID_2_)" fill="#558B2F" d="M332.775,304.342h31.277c2.541,0,4.62,0.764,4.62-1.777v-2.844
		c0-2.541-2.079-1.777-4.62-1.777h-39.137c-2.541,0-2.448-0.764-2.448,1.777v1.422C322.527,304.342,330.233,304.342,332.775,304.342
		z"/>
	<circle clip-path="url(#SVGID_2_)" fill="none" stroke="#F1F2F2" stroke-miterlimit="10" cx="318.424" cy="318.242" r="3.094"/>
	<circle clip-path="url(#SVGID_2_)" fill="none" stroke="#F1F2F2" stroke-miterlimit="10" cx="344.361" cy="329.336" r="4.667"/>
	<circle clip-path="url(#SVGID_2_)" fill="none" stroke="#F1F2F2" stroke-miterlimit="10" cx="518.664" cy="397.17" r="3.167"/>
	<circle clip-path="url(#SVGID_2_)" fill="none" stroke="#F1F2F2" stroke-miterlimit="10" cx="507.664" cy="382.002" r="2.667"/>
	<circle clip-path="url(#SVGID_2_)" fill="none" stroke="#F1F2F2" stroke-miterlimit="10" cx="519.664" cy="367.836" r="4.167"/>
	<circle clip-path="url(#SVGID_2_)" fill="none" stroke="#F1F2F2" stroke-miterlimit="10" cx="430.321" cy="346.596" r="3.928"/>
	<circle clip-path="url(#SVGID_2_)" fill="none" stroke="#F1F2F2" stroke-miterlimit="10" cx="440.434" cy="333.336" r="2.667"/>
	<circle clip-path="url(#SVGID_2_)" fill="none" stroke="#F1F2F2" stroke-miterlimit="10" cx="439.554" cy="406.961" r="2.958"/>
	<circle clip-path="url(#SVGID_2_)" fill="none" stroke="#F1F2F2" stroke-miterlimit="10" cx="350.469" cy="349.125" r="2.528"/>
	<circle clip-path="url(#SVGID_2_)" fill="none" stroke="#F1F2F2" stroke-miterlimit="10" cx="344.441" cy="364.17" r="3.667"/>
	<path opacity="0.5" clip-path="url(#SVGID_2_)" fill="#44C9F2" d="M573.997,295.002h-306h-12v9.686v13.719v58.912
		c0,5.326,5.4,9.684,12,9.684h154.667v43.334c0,6.6,5.399,12,12,12h139.333c6.6,0,12-5.4,12-12v-53.018V359.67v-41.264v-13.719
		v-9.686H573.997z"/>
	<g clip-path="url(#SVGID_2_)">
		<circle opacity="0.1" fill="#231F20" cx="-320.378" cy="334.18" r="15.938"/>
		<circle opacity="0.1" fill="#231F20" cx="-240.313" cy="337.967" r="8.63"/>
		<circle opacity="0.1" fill="#231F20" cx="-273.221" cy="381.336" r="12.667"/>
		<circle opacity="0.1" fill="#231F20" cx="-319.19" cy="424.086" r="17.125"/>
		<circle opacity="0.1" fill="#231F20" cx="-175.104" cy="365.494" r="13.842"/>
		<circle opacity="0.1" fill="#231F20" cx="-205.445" cy="410.502" r="16.499"/>
		<circle opacity="0.1" fill="#231F20" cx="-235.444" cy="442.336" r="13.5"/>
		<circle opacity="0.1" fill="#231F20" cx="-99.113" cy="333.893" r="16.223"/>
		<circle opacity="0.1" fill="#231F20" cx="-164.81" cy="320.572" r="12.764"/>
		<circle opacity="0.1" fill="#231F20" cx="-228.694" cy="372.244" r="6.75"/>
		<circle opacity="0.1" fill="#231F20" cx="-342.877" cy="378.805" r="6.562"/>
		<circle opacity="0.1" fill="#231F20" cx="-119.768" cy="387.986" r="9.182"/>
		<circle opacity="0.1" fill="#231F20" cx="-35.703" cy="377.252" r="16.75"/>
		<circle opacity="0.1" fill="#231F20" cx="-74.146" cy="440.33" r="8.744"/>
		<circle opacity="0.1" fill="#231F20" cx="-152.519" cy="440.33" r="8.744"/>
		<circle opacity="0.1" fill="#231F20" cx="-27.328" cy="329.711" r="8.375"/>
		<circle opacity="0.1" fill="#231F20" cx="25.923" cy="325.266" r="10.119"/>
		<circle opacity="0.1" fill="#231F20" cx="127.536" cy="326.953" r="6.382"/>
		<circle opacity="0.1" fill="#231F20" cx="74.291" cy="374.918" r="11.25"/>
		<circle opacity="0.1" fill="#231F20" cx="195.696" cy="360.758" r="14.161"/>
		<circle opacity="0.1" fill="#231F20" cx="238.212" cy="323.783" r="11.602"/>
		<circle opacity="0.1" fill="#231F20" cx="138.904" cy="402.42" r="17.75"/>
		<circle opacity="0.1" fill="#231F20" cx="19.543" cy="442.336" r="13.499"/>
		<circle opacity="0.1" fill="#231F20" cx="24.971" cy="391.17" r="9.167"/>
		<circle opacity="0.1" fill="#231F20" cx="191.654" cy="452.455" r="10.119"/>
		<circle opacity="0.1" fill="#231F20" cx="95.29" cy="449.836" r="9.75"/>
		<circle opacity="0.1" fill="#231F20" cx="270.789" cy="425.293" r="14.792"/>
		<circle opacity="0.1" fill="#231F20" cx="226.074" cy="418.459" r="8.541"/>
		<circle opacity="0.1" fill="#231F20" cx="332.332" cy="429.273" r="10.813"/>
		<circle opacity="0.1" fill="#231F20" cx="306.93" cy="460.855" r="8.4"/>
		<circle opacity="0.1" fill="#231F20" cx="391.207" cy="417.752" r="7.25"/>
		<circle opacity="0.1" fill="#231F20" cx="72.494" cy="419.373" r="9.453"/>
		<circle opacity="0.1" fill="#231F20" cx="70.899" cy="334.811" r="7.858"/>
		<circle opacity="0.1" fill="#231F20" cx="605.061" cy="322.135" r="9.953"/>
		<circle opacity="0.1" fill="#231F20" cx="657.033" cy="315.701" r="11.252"/>
		<circle opacity="0.1" fill="#231F20" cx="709.133" cy="324.521" r="9.375"/>
		<circle opacity="0.1" fill="#231F20" cx="800.922" cy="332.463" r="17.315"/>
		<circle opacity="0.1" fill="#231F20" cx="743.174" cy="364.17" r="3.667"/>
		<circle opacity="0.1" fill="#231F20" cx="666.022" cy="377.658" r="8.989"/>
		<circle opacity="0.1" fill="#231F20" cx="758.604" cy="324.242" r="9.094"/>
		<circle opacity="0.1" fill="#231F20" cx="796.404" cy="386.17" r="14.167"/>
		<circle opacity="0.1" fill="#231F20" cx="717.842" cy="409.043" r="8.708"/>
		<circle opacity="0.1" fill="#231F20" cx="698.822" cy="370.814" r="10.312"/>
		<circle opacity="0.1" fill="#231F20" cx="617.977" cy="397.586" r="12.917"/>
		<circle opacity="0.1" fill="#231F20" cx="664.908" cy="432.211" r="7.875"/>
		<circle opacity="0.1" fill="#231F20" cx="760.781" cy="420.314" r="11.271"/>
		<circle opacity="0.1" fill="#231F20" cx="807.321" cy="442.502" r="10.917"/>
		<circle opacity="0.1" fill="#231F20" cx="738.03" cy="460.555" r="11.48"/>
		<circle opacity="0.1" fill="#231F20" cx="610.037" cy="445.063" r="4.977"/>
		<circle opacity="0.1" fill="#231F20" cx="648.993" cy="460.555" r="11.48"/>
		<circle opacity="0.1" fill="#231F20" cx="386.867" cy="460.664" r="11.59"/>
		<circle opacity="0.1" fill="#231F20" cx="444.416" cy="469.752" r="10.167"/>
		<circle opacity="0.1" fill="#231F20" cx="506.43" cy="469.068" r="13.234"/>
		<circle opacity="0.1" fill="#231F20" cx="579.726" cy="464.045" r="8.21"/>
		<circle opacity="0.1" fill="#231F20" cx="705.488" cy="446.752" r="6.667"/>
		<circle opacity="0.1" fill="#231F20" cx="177.504" cy="319.238" r="11.431"/>
		<circle opacity="0.1" fill="#231F20" cx="-263.685" cy="318.572" r="10.764"/>
	</g>
</g>
<path opacity="0.4" fill="#F1F2F2" d="M110.548-226.831h-439.743l6.642-37.667h439.743L110.548-226.831z M-323.236-231.831h429.589
	l4.878-27.667h-429.589L-323.236-231.831z"/>
<polygon opacity="0.4" fill="#D1D3D4" points="-318.358,-259.498 -323.236,-231.831 106.353,-231.831 111.23,-259.498 "/>
<polygon opacity="0.4" fill="#5DB566" points="-318.358,-259.498 -323.236,-231.831 -12.003,-231.831 -7.125,-259.498 "/>
<text transform="matrix(1 0 0 1 -308.0039 -280.2759)" opacity="0.4" fill="#58595B" font-family="'Aller-Bold'" font-size="22.0771">PLAYER NAME</text>
<path opacity="0.4" fill="#F1F2F2" d="M-285.825-139.385l-0.461-0.239c-0.32-0.167-7.977-4.223-19.304-17.216
	c-4.451-5.105-13.713-15.729-9.825-24.4c3.452-7.701,10.021-11.605,19.524-11.605c5.922,0,8.77,3.779,10.065,6.574
	c1.296-2.795,4.144-6.574,10.065-6.574c9.503,0,16.072,3.904,19.524,11.605c3.888,8.671-5.374,19.294-9.825,24.4
	c-11.327,12.994-18.983,17.05-19.304,17.216L-285.825-139.385z M-295.891-190.845c-8.766,0-14.555,3.41-17.7,10.423
	c-3.363,7.503,5.657,17.849,9.509,22.267c9.527,10.929,16.454,15.423,18.256,16.492c1.805-1.075,8.759-5.595,18.258-16.492
	c3.852-4.418,12.872-14.764,9.509-22.267c-3.146-7.014-8.935-10.423-17.7-10.423c-7.678,0-9.025,7.526-9.079,7.846l-0.986,5.892
	l-0.986-5.892C-286.866-183.317-288.25-190.845-295.891-190.845z"/>
<text transform="matrix(1 0 0 1 -249.0049 -158.0249)" opacity="0.4" font-family="'Aller-Bold'" font-size="32.1891">x2</text>
<text transform="matrix(1 0 0 1 733.4463 -243.9976)" opacity="0.4" font-family="'Aller-Bold'" font-size="32.1891">x3</text>
<text transform="matrix(1 0 0 1 733.4463 -191.9976)" opacity="0.4" font-family="'Aller-Bold'" font-size="32.1891">x5</text>
<path opacity="0.4" fill="#F1F2F2" d="M685.099-225.626l17.177-23.841l-17.966-1.583l40.963-29.715l-16.853,21.648l14.47,4.178
	L685.099-225.626z M689.815-252.572l16.138,1.422l-11.134,15.453l23.736-18.411l-13.528-3.906l10.003-12.851L689.815-252.572z"/>
<polygon opacity="0.4" fill="#FFEE58" points="720.151,-275.815 687.063,-251.811 704.114,-250.309 689.959,-230.662 
	720.723,-254.523 706.724,-258.565 "/>
<polygon opacity="0.4" fill="#231F20" points="706.724,-258.565 720.151,-275.815 698.33,-255.664 710.497,-252.498 
	689.959,-230.662 720.723,-254.523 "/>
<path opacity="0.4" fill="#ED1C24" d="M-257.147-180.831c-3.486-7.775-10-11.014-18.612-11.014s-10.065,8.681-10.065,8.681
	s-1.453-8.681-10.065-8.681s-15.126,3.239-18.612,11.014c-3.486,7.776,4.758,17.703,9.667,23.333
	c11.333,13,19.011,16.986,19.011,16.986s7.678-3.986,19.011-16.986C-261.905-163.128-253.661-173.055-257.147-180.831z"/>
<path opacity="0.4" fill="#231F20" d="M-275.76-191.845c-8.612,0-10.065,8.681-10.065,8.681v-0.001v42.653l0,0
	c0,0,7.678-3.986,19.011-16.986c4.909-5.631,13.153-15.558,9.667-23.333C-260.634-188.606-267.147-191.845-275.76-191.845z"/>
<g opacity="0.4">
	<circle fill="#AAEAF9" cx="-291.099" cy="377.377" r="36.138"/>
	<g>
		<path fill="#C49A6C" d="M-290.146,406.822l-1.602,0.607c-1.704,0.646-3.61-0.211-4.258-1.914l-16.344-43.059
			c-0.646-1.705,0.21-3.611,1.915-4.258l1.602-0.607c1.704-0.646,3.61,0.209,4.257,1.914l16.344,43.059
			C-287.585,404.27-288.442,406.174-290.146,406.822z"/>
		<path opacity="0.2" fill="#231F20" d="M-308.475,357.455l-1.159,0.439l18.687,49.23l1.159-0.439
			c1.506-0.572,2.264-2.256,1.691-3.762l-16.615-43.777C-305.284,357.641-306.969,356.883-308.475,357.455z"/>
		<path fill="#F1F2F2" d="M-275.274,369.811l-30.171,11.453c-1.619,0.613-3.43-0.201-4.045-1.82l-4.656-12.268
			c-0.615-1.619,0.199-3.432,1.819-4.045l28.514-15.816c1.619-0.615,3.43,0.199,4.045,1.818l6.313,16.633
			C-272.841,367.385-273.655,369.197-275.274,369.811z"/>
		<path fill="#B73232" d="M-286.143,348.605l-26.185,14.525c-1.62,0.613-2.435,2.426-1.819,4.045l4.656,12.268
			c0.615,1.619,2.426,2.434,4.045,1.82l27.707-10.518L-286.143,348.605z"/>
		<path opacity="0.2" fill="#231F20" d="M-312.093,372.586l2.603,6.857c0.615,1.619,2.426,2.434,4.045,1.82l30.171-11.453
			c1.619-0.613,2.434-2.426,1.819-4.045l-3.832-10.094L-312.093,372.586z"/>
	</g>
</g>
<g opacity="0.4">
	<circle fill="#AAEAF9" cx="-211.099" cy="377.377" r="36.138"/>
	<g>
		<g>
			<defs>
				<path id="SVGID_3_" d="M-204.676,347.354l-30.189,24.961c0,0-2.067,1.627-2.536,5.389c-0.018,0.074-0.027,0.152-0.03,0.232
					c-0.001,0.004-0.002,0.008-0.002,0.014c-0.004,0.037,0.004,0.07,0.003,0.107c0.002,0.037-0.005,0.07,0.001,0.109
					c0,0.004,0.001,0.01,0.002,0.014c0.006,0.08,0.019,0.156,0.039,0.23c0.601,3.742,2.723,5.297,2.723,5.297l31.045,23.889
					c0,0,7.164,4.785,8.112-0.143c0.84-4.365-19.92-24.691-25.107-29.689c5.01-5.178,25.045-26.219,24.053-30.553
					C-197.685,342.32-204.676,347.354-204.676,347.354z"/>
			</defs>
			<use xlink:href="#SVGID_3_"  overflow="visible" fill="#FFEE58"/>
			<clipPath id="SVGID_4_">
				<use xlink:href="#SVGID_3_"  overflow="visible"/>
			</clipPath>
			<g clip-path="url(#SVGID_4_)">
				
					<rect x="-215.399" y="398.427" transform="matrix(0.6126 -0.7904 0.7904 0.6126 -396.3322 -7.7147)" fill="#2BB673" width="18.726" height="4.057"/>
				
					<rect x="-211.232" y="402.189" transform="matrix(0.6127 -0.7903 0.7903 0.6127 -397.2809 -3.1652)" fill="#2BB673" width="18.724" height="3.085"/>
				
					<rect x="-216.214" y="351.913" transform="matrix(0.64 0.7684 -0.7684 0.64 197.4969 286.3798)" fill="#2BB673" width="18.725" height="4.056"/>
				
					<rect x="-212.164" y="348.981" transform="matrix(0.64 0.7684 -0.7684 0.64 196.3286 282.0373)" fill="#2BB673" width="18.725" height="3.084"/>
			</g>
		</g>
		<g>
			<defs>
				<path id="SVGID_5_" d="M-204.676,347.354l-30.189,24.961c0,0-2.067,1.627-2.536,5.389c-0.018,0.074-0.027,0.152-0.03,0.232
					c-0.001,0.004-0.002,0.008-0.002,0.014c-0.004,0.037,0.004,0.07,0.003,0.107c0.002,0.037-0.005,0.07,0.001,0.109
					c0,0.004,0.001,0.01,0.002,0.014c0.006,0.08,0.019,0.156,0.039,0.23c0.601,3.742,2.723,5.297,2.723,5.297l31.045,23.889
					c0,0,7.164,4.785,8.112-0.143c0.84-4.365-19.92-24.691-25.107-29.689c5.01-5.178,25.045-26.219,24.053-30.553
					C-197.685,342.32-204.676,347.354-204.676,347.354z"/>
			</defs>
			<use xlink:href="#SVGID_5_"  overflow="visible" fill="#FFEE58"/>
			<clipPath id="SVGID_6_">
				<use xlink:href="#SVGID_5_"  overflow="visible"/>
			</clipPath>
			<g clip-path="url(#SVGID_6_)">
				
					<rect x="-215.399" y="398.427" transform="matrix(0.6126 -0.7904 0.7904 0.6126 -396.3322 -7.7147)" fill="#2BB673" width="18.726" height="4.057"/>
				
					<rect x="-211.232" y="402.189" transform="matrix(0.6127 -0.7903 0.7903 0.6127 -397.2809 -3.1652)" fill="#2BB673" width="18.724" height="3.085"/>
				
					<rect x="-216.214" y="351.913" transform="matrix(0.64 0.7684 -0.7684 0.64 197.4969 286.3798)" fill="#2BB673" width="18.725" height="4.056"/>
				
					<rect x="-212.164" y="348.981" transform="matrix(0.64 0.7684 -0.7684 0.64 196.3286 282.0373)" fill="#2BB673" width="18.725" height="3.084"/>
			</g>
		</g>
		<path opacity="0.2" fill="#231F20" d="M-234.865,372.314c0,0-2.067,1.627-2.536,5.389c-0.018,0.074-0.027,0.152-0.03,0.232
			c-0.001,0.004-0.002,0.008-0.002,0.014c-0.004,0.037,0.004,0.07,0.003,0.107c0.002,0.037-0.005,0.07,0.001,0.109
			c0,0.004,0.001,0.01,0.002,0.014c0.006,0.08,0.019,0.156,0.039,0.23c0.601,3.742,2.723,5.297,2.723,5.297l31.045,23.889
			c0,0,4.952,3.305,7.166,1.584c0,0-29.177-22.287-36.806-31.195c-2.038-2.379-1.565-5.703-1.565-5.703L-234.865,372.314z"/>
		<path opacity="0.2" fill="#231F20" d="M-229.02,377.865l8.414-0.113c5.027-5.197,25.033-26.211,24.042-30.541
			c-0.196-0.854-0.574-1.4-1.061-1.729L-229.02,377.865z"/>
	</g>
</g>
<g opacity="0.4">
	<circle fill="#AAEAF9" cx="-131.099" cy="377.377" r="36.138"/>
	<g>
		<polygon fill="#58595B" points="-113.277,366.631 -126.387,360.984 -142.804,369.137 -154.125,372.299 -160.724,391.734 
			-144.228,398.135 -127.737,392.605 -111.49,399.016 -104.041,390.506 -101.475,379.887 		"/>
		<polygon opacity="0.2" fill="#231F20" points="-144.228,398.135 -127.737,392.605 -111.49,399.016 -104.041,390.506 
			-101.475,379.887 -113.277,366.631 -116.054,377.438 -127.532,372.299 -130.699,378.814 -144.949,382.574 -154.125,372.299 
			-160.724,391.734 		"/>
	</g>
</g>
<g opacity="0.4">
	<circle fill="#AAEAF9" cx="-51.099" cy="377.377" r="36.138"/>
	<g>
		<polygon fill="#C49A6C" points="-48.725,404.885 -68.957,356.279 -65.701,353.488 -52.224,383.738 -51.282,375.322 
			-48.725,376.279 -50.585,387.674 -43.841,406.512 		"/>
		<polygon opacity="0.2" fill="#231F20" points="-68.957,356.279 -48.725,404.885 -45.997,405.793 -67.047,354.643 		"/>
	</g>
</g>
<g opacity="0.4">
	<g>
		<polygon fill="#F1F2F2" points="714.686,-214.914 699.247,-214.914 683.81,-214.914 671.861,-202.967 699.247,-174.248 
			726.633,-202.967 		"/>
		<path fill="#F1F2F2" d="M699.247-172.798l-28.783-30.185l12.932-12.931H715.1l12.931,12.931L699.247-172.798z M673.259-202.95
			l25.988,27.253l25.988-27.253l-10.965-10.964h-30.047L673.259-202.95z"/>
	</g>
	<g>
		<defs>
			<polygon id="SVGID_7_" points="714.686,-214.914 699.247,-214.914 683.81,-214.914 671.861,-202.967 699.247,-174.248 
				726.633,-202.967 			"/>
		</defs>
		<use xlink:href="#SVGID_7_"  overflow="visible" fill="#6DE1FC"/>
		<clipPath id="SVGID_8_">
			<use xlink:href="#SVGID_7_"  overflow="visible"/>
		</clipPath>
		<g clip-path="url(#SVGID_8_)">
			<rect x="671.861" y="-202.967" fill="#24CEEA" width="62.677" height="31.844"/>
		</g>
		<g opacity="0.05" clip-path="url(#SVGID_8_)">
			<polygon fill="#231F20" points="683.81,-214.914 699.247,-202.998 714.686,-214.914 			"/>
		</g>
		<g opacity="0.05" clip-path="url(#SVGID_8_)">
			<polygon fill="#231F20" points="683.788,-202.998 691.208,-214.914 699.247,-202.998 			"/>
		</g>
		<g opacity="0.05" clip-path="url(#SVGID_8_)">
			<polygon fill="#231F20" points="699.247,-202.998 707.14,-214.914 714.664,-202.998 			"/>
		</g>
		<g opacity="0.05" clip-path="url(#SVGID_8_)">
			<polygon fill="#231F20" points="683.81,-214.914 680.538,-203.123 670.727,-212.123 			"/>
		</g>
		<g opacity="0.05" clip-path="url(#SVGID_8_)">
			<polygon fill="#231F20" points="714.686,-214.914 719.038,-203.123 725.288,-211.623 			"/>
		</g>
		<g opacity="0.05" clip-path="url(#SVGID_8_)">
			<polygon fill="#231F20" points="683.788,-202.998 699.247,-174.248 668.664,-201.123 671.861,-202.967 			"/>
		</g>
		<g opacity="0.05" clip-path="url(#SVGID_8_)">
			<polygon fill="#231F20" points="699.247,-174.248 699.247,-202.998 714.664,-202.998 			"/>
		</g>
		<g opacity="0.05" clip-path="url(#SVGID_8_)">
			<polygon fill="#231F20" points="677.497,-185.748 693.747,-202.914 687.914,-179.248 			"/>
		</g>
		<g opacity="0.05" clip-path="url(#SVGID_8_)">
			<polygon fill="#231F20" points="722.58,-185.748 706.33,-202.914 712.164,-179.248 			"/>
		</g>
	</g>
</g>
<g opacity="0.4">
	<path fill="#F1F2F2" d="M121.49,446.359v-0.256c-0.349,0.398-0.692,0.723-1.03,0.973c-0.34,0.25-0.707,0.441-1.103,0.57
		c-0.396,0.131-0.827,0.195-1.296,0.195c-0.621,0-1.196-0.131-1.725-0.395c-0.529-0.262-0.986-0.639-1.371-1.125
		c-0.389-0.488-0.681-1.061-0.879-1.719c-0.201-0.66-0.301-1.371-0.301-2.137c0-1.621,0.396-2.887,1.188-3.791
		s1.834-1.357,3.125-1.357c0.746,0,1.378,0.129,1.891,0.383c0.514,0.258,1.014,0.652,1.501,1.184v-3.828
		c0-0.531,0.104-0.934,0.317-1.205c0.212-0.273,0.515-0.408,0.908-0.408c0.392,0,0.693,0.125,0.905,0.375
		c0.214,0.25,0.319,0.617,0.319,1.105v11.436c0,0.494-0.114,0.865-0.342,1.111c-0.229,0.246-0.522,0.371-0.883,0.371
		c-0.355,0-0.648-0.129-0.879-0.385C121.605,447.199,121.49,446.834,121.49,446.359 M116.39,442.551
		c0,0.703,0.109,1.301,0.328,1.795c0.218,0.494,0.517,0.867,0.896,1.115c0.38,0.252,0.795,0.377,1.244,0.377
		c0.456,0,0.872-0.119,1.25-0.357c0.376-0.236,0.677-0.602,0.901-1.09c0.226-0.492,0.337-1.105,0.337-1.84
		c0-0.689-0.111-1.283-0.337-1.781c-0.225-0.496-0.528-0.877-0.911-1.141c-0.383-0.262-0.803-0.391-1.258-0.391
		c-0.476,0-0.899,0.133-1.273,0.402c-0.374,0.268-0.663,0.654-0.869,1.158C116.491,441.303,116.39,441.887,116.39,442.551"/>
	<path fill="#F1F2F2" d="M132.923,443.207h-5.071c0.007,0.59,0.125,1.107,0.356,1.557c0.231,0.451,0.539,0.789,0.922,1.018
		s0.806,0.34,1.268,0.34c0.31,0,0.594-0.035,0.851-0.107c0.257-0.074,0.505-0.186,0.746-0.342c0.24-0.154,0.461-0.322,0.664-0.498
		c0.202-0.18,0.465-0.422,0.788-0.725c0.133-0.113,0.323-0.17,0.57-0.17c0.267,0,0.481,0.074,0.646,0.219
		c0.164,0.146,0.248,0.352,0.248,0.617c0,0.234-0.093,0.508-0.276,0.822c-0.185,0.313-0.462,0.613-0.831,0.902
		c-0.372,0.287-0.835,0.525-1.396,0.717c-0.56,0.189-1.204,0.285-1.933,0.285c-1.666,0-2.961-0.477-3.885-1.426
		c-0.925-0.949-1.387-2.238-1.387-3.865c0-0.766,0.114-1.477,0.342-2.133c0.229-0.654,0.562-1.217,0.997-1.686
		c0.438-0.469,0.976-0.826,1.615-1.078c0.64-0.25,1.35-0.373,2.128-0.373c1.012,0,1.881,0.211,2.605,0.641
		c0.727,0.426,1.27,0.979,1.63,1.656s0.542,1.369,0.542,2.07c0,0.652-0.188,1.074-0.561,1.27
		C134.128,443.109,133.602,443.207,132.923,443.207 M127.852,441.734h4.702c-0.063-0.887-0.304-1.551-0.717-1.99
		c-0.416-0.439-0.961-0.66-1.639-0.66c-0.646,0-1.177,0.223-1.591,0.668C128.192,440.199,127.941,440.861,127.852,441.734"/>
	<path fill="#F1F2F2" d="M144.738,444.449c0,0.717-0.173,1.33-0.522,1.84c-0.348,0.51-0.862,0.896-1.544,1.158
		c-0.68,0.264-1.508,0.395-2.482,0.395c-0.931,0-1.729-0.143-2.394-0.428s-1.156-0.643-1.473-1.068
		c-0.316-0.428-0.475-0.855-0.475-1.287c0-0.285,0.101-0.529,0.304-0.73c0.203-0.203,0.46-0.305,0.77-0.305
		c0.272,0,0.48,0.066,0.626,0.199c0.146,0.133,0.287,0.32,0.418,0.561c0.267,0.463,0.586,0.807,0.955,1.035
		c0.371,0.229,0.875,0.342,1.516,0.342c0.52,0,0.945-0.115,1.277-0.346c0.332-0.232,0.498-0.496,0.498-0.795
		c0-0.455-0.172-0.787-0.518-0.996c-0.345-0.209-0.913-0.408-1.705-0.6c-0.893-0.221-1.619-0.455-2.18-0.697
		s-1.008-0.564-1.344-0.963c-0.335-0.4-0.504-0.891-0.504-1.473c0-0.52,0.155-1.01,0.465-1.473c0.312-0.461,0.769-0.83,1.375-1.105
		c0.604-0.277,1.332-0.414,2.188-0.414c0.672,0,1.275,0.068,1.809,0.209c0.537,0.139,0.983,0.326,1.341,0.561
		c0.358,0.232,0.63,0.494,0.815,0.777c0.188,0.285,0.28,0.564,0.28,0.838c0,0.297-0.101,0.541-0.298,0.73
		c-0.199,0.189-0.483,0.285-0.852,0.285c-0.266,0-0.492-0.076-0.679-0.23c-0.187-0.15-0.399-0.377-0.641-0.682
		c-0.196-0.252-0.427-0.455-0.692-0.609c-0.267-0.15-0.628-0.227-1.084-0.227c-0.469,0-0.857,0.1-1.168,0.301
		c-0.311,0.197-0.465,0.445-0.465,0.744c0,0.273,0.113,0.496,0.341,0.67c0.229,0.174,0.535,0.318,0.923,0.432
		c0.387,0.113,0.916,0.252,1.596,0.418c0.803,0.197,1.459,0.432,1.97,0.703c0.509,0.271,0.896,0.594,1.159,0.965
		C144.607,443.553,144.738,443.975,144.738,444.449"/>
	<path fill="#F1F2F2" d="M147.388,436.094c-0.361,0-0.67-0.111-0.927-0.334c-0.256-0.221-0.384-0.533-0.384-0.939
		c0-0.369,0.131-0.67,0.395-0.908c0.262-0.238,0.568-0.355,0.916-0.355c0.336,0,0.633,0.107,0.893,0.322
		c0.26,0.217,0.39,0.529,0.39,0.941c0,0.398-0.127,0.711-0.381,0.936C148.036,435.98,147.734,436.094,147.388,436.094
		 M148.67,438.771v7.492c0,0.52-0.124,0.914-0.371,1.18s-0.56,0.398-0.94,0.398c-0.379,0-0.688-0.137-0.926-0.408
		c-0.238-0.273-0.355-0.662-0.355-1.17v-7.418c0-0.512,0.117-0.898,0.355-1.158c0.237-0.26,0.547-0.389,0.926-0.389
		c0.381,0,0.693,0.129,0.94,0.389S148.67,438.309,148.67,438.771"/>
	<path fill="#F1F2F2" d="M160.028,439.199v7.531c0,0.861-0.093,1.602-0.276,2.223c-0.183,0.619-0.478,1.133-0.882,1.539
		c-0.406,0.404-0.937,0.705-1.592,0.9c-0.654,0.197-1.47,0.295-2.446,0.295c-0.892,0-1.689-0.125-2.394-0.375
		c-0.702-0.25-1.242-0.572-1.623-0.969c-0.38-0.395-0.57-0.803-0.57-1.221c0-0.316,0.107-0.574,0.324-0.773
		c0.215-0.199,0.475-0.299,0.777-0.299c0.38,0,0.713,0.168,0.998,0.502c0.139,0.172,0.282,0.346,0.432,0.52
		c0.148,0.174,0.314,0.322,0.493,0.447c0.181,0.121,0.398,0.213,0.651,0.273c0.253,0.059,0.545,0.09,0.874,0.09
		c0.671,0,1.191-0.092,1.563-0.279c0.369-0.188,0.629-0.449,0.778-0.785c0.149-0.334,0.235-0.693,0.261-1.076
		c0.025-0.385,0.045-1,0.057-1.85c-0.399,0.559-0.858,0.984-1.383,1.275c-0.521,0.291-1.144,0.436-1.865,0.436
		c-0.867,0-1.625-0.221-2.275-0.664c-0.648-0.443-1.146-1.064-1.495-1.861c-0.349-0.799-0.522-1.719-0.522-2.764
		c0-0.779,0.105-1.482,0.317-2.109c0.214-0.627,0.515-1.156,0.908-1.586c0.392-0.432,0.845-0.756,1.356-0.975
		c0.514-0.217,1.077-0.326,1.691-0.326c0.734,0,1.371,0.141,1.91,0.422c0.537,0.283,1.038,0.725,1.5,1.326v-0.352
		c0-0.451,0.109-0.799,0.332-1.047c0.223-0.244,0.507-0.369,0.855-0.369c0.5,0,0.832,0.162,0.996,0.488
		C159.946,438.113,160.028,438.584,160.028,439.199 M152.516,442.484c0,1.051,0.229,1.846,0.688,2.385
		c0.46,0.539,1.054,0.807,1.781,0.807c0.43,0,0.837-0.115,1.22-0.346c0.385-0.232,0.695-0.58,0.938-1.045
		c0.239-0.467,0.36-1.029,0.36-1.695c0-1.057-0.232-1.881-0.698-2.469c-0.466-0.59-1.078-0.885-1.838-0.885
		c-0.741,0-1.335,0.283-1.78,0.846C152.739,440.645,152.516,441.447,152.516,442.484"/>
	<path fill="#F1F2F2" d="M164.149,438.732v0.314c0.455-0.602,0.954-1.045,1.496-1.326c0.541-0.281,1.163-0.422,1.866-0.422
		c0.684,0,1.295,0.148,1.833,0.447c0.537,0.297,0.941,0.719,1.205,1.262c0.173,0.316,0.282,0.66,0.332,1.025
		c0.052,0.369,0.078,0.836,0.078,1.406v4.824c0,0.52-0.119,0.914-0.356,1.18c-0.238,0.266-0.546,0.398-0.926,0.398
		c-0.388,0-0.7-0.137-0.941-0.408c-0.241-0.273-0.36-0.662-0.36-1.17v-4.32c0-0.855-0.119-1.51-0.356-1.961
		c-0.238-0.453-0.71-0.68-1.42-0.68c-0.462,0-0.884,0.137-1.263,0.412c-0.381,0.277-0.659,0.656-0.836,1.137
		c-0.127,0.387-0.19,1.107-0.19,2.164v3.248c0,0.525-0.122,0.922-0.365,1.184c-0.243,0.264-0.559,0.395-0.944,0.395
		c-0.375,0-0.682-0.137-0.923-0.408c-0.239-0.273-0.36-0.662-0.36-1.17v-7.492c0-0.494,0.107-0.863,0.322-1.107
		c0.217-0.242,0.51-0.365,0.883-0.365c0.229,0,0.435,0.053,0.619,0.162c0.183,0.107,0.33,0.27,0.441,0.482
		C164.095,438.16,164.149,438.424,164.149,438.732"/>
	<path fill="#F1F2F2" d="M179.924,443.207h-5.071c0.007,0.59,0.125,1.107,0.357,1.557c0.229,0.451,0.537,0.789,0.921,1.018
		c0.382,0.229,0.805,0.34,1.267,0.34c0.31,0,0.594-0.035,0.852-0.107c0.254-0.074,0.504-0.186,0.746-0.342
		c0.238-0.154,0.461-0.322,0.664-0.498c0.201-0.18,0.465-0.422,0.787-0.725c0.133-0.113,0.323-0.17,0.57-0.17
		c0.266,0,0.482,0.074,0.646,0.219c0.164,0.146,0.246,0.352,0.246,0.617c0,0.234-0.092,0.508-0.275,0.822
		c-0.184,0.313-0.461,0.613-0.831,0.902c-0.371,0.287-0.835,0.525-1.396,0.717c-0.561,0.189-1.205,0.285-1.934,0.285
		c-1.665,0-2.96-0.477-3.885-1.426s-1.387-2.238-1.387-3.865c0-0.766,0.114-1.477,0.341-2.133c0.229-0.654,0.563-1.217,0.999-1.686
		s0.976-0.826,1.615-1.078c0.639-0.25,1.349-0.373,2.127-0.373c1.013,0,1.88,0.211,2.606,0.641c0.725,0.426,1.269,0.979,1.63,1.656
		c0.36,0.678,0.541,1.369,0.541,2.07c0,0.652-0.188,1.074-0.561,1.27C181.128,443.109,180.603,443.207,179.924,443.207
		 M174.853,441.734h4.701c-0.063-0.887-0.303-1.551-0.717-1.99c-0.415-0.439-0.961-0.66-1.639-0.66
		c-0.646,0-1.177,0.223-1.592,0.668C175.191,440.199,174.941,440.861,174.853,441.734"/>
	<path fill="#F1F2F2" d="M190.494,446.359v-0.256c-0.35,0.398-0.692,0.723-1.031,0.973s-0.704,0.441-1.101,0.57
		c-0.395,0.131-0.828,0.195-1.297,0.195c-0.621,0-1.195-0.131-1.723-0.395c-0.529-0.262-0.987-0.639-1.373-1.125
		c-0.387-0.488-0.68-1.061-0.879-1.719c-0.199-0.66-0.3-1.371-0.3-2.137c0-1.621,0.396-2.887,1.188-3.791
		c0.79-0.904,1.833-1.357,3.125-1.357c0.746,0,1.376,0.129,1.89,0.383c0.513,0.258,1.013,0.652,1.5,1.184v-3.828
		c0-0.531,0.106-0.934,0.318-1.205c0.212-0.273,0.515-0.408,0.907-0.408s0.694,0.125,0.906,0.375s0.319,0.617,0.319,1.105v11.436
		c0,0.494-0.114,0.865-0.342,1.111c-0.229,0.246-0.522,0.371-0.884,0.371c-0.354,0-0.647-0.129-0.879-0.385
		C190.609,447.199,190.494,446.834,190.494,446.359 M185.395,442.551c0,0.703,0.107,1.301,0.327,1.795
		c0.219,0.494,0.518,0.867,0.898,1.115c0.379,0.252,0.794,0.377,1.243,0.377c0.456,0,0.873-0.119,1.249-0.357
		c0.377-0.236,0.678-0.602,0.902-1.09c0.225-0.492,0.337-1.105,0.337-1.84c0-0.689-0.112-1.283-0.337-1.781
		c-0.225-0.496-0.528-0.877-0.913-1.141c-0.382-0.262-0.802-0.391-1.257-0.391c-0.475,0-0.899,0.133-1.273,0.402
		c-0.373,0.268-0.663,0.654-0.869,1.158S185.395,441.887,185.395,442.551"/>
	<path fill="#F1F2F2" d="M201.091,434.924v3.961c0.488-0.506,0.985-0.895,1.492-1.164c0.506-0.268,1.133-0.402,1.881-0.402
		c0.861,0,1.615,0.203,2.266,0.611c0.648,0.41,1.152,1.002,1.51,1.777c0.357,0.773,0.537,1.695,0.537,2.76
		c0,0.785-0.1,1.504-0.299,2.16c-0.2,0.654-0.49,1.223-0.869,1.703c-0.381,0.482-0.841,0.855-1.382,1.117
		c-0.542,0.264-1.14,0.395-1.791,0.395c-0.399,0-0.774-0.047-1.125-0.143c-0.353-0.096-0.652-0.219-0.897-0.375
		c-0.246-0.154-0.457-0.314-0.633-0.48c-0.174-0.164-0.404-0.412-0.689-0.74v0.256c0,0.488-0.116,0.857-0.351,1.107
		c-0.233,0.25-0.53,0.375-0.893,0.375c-0.367,0-0.66-0.125-0.878-0.375c-0.219-0.25-0.328-0.619-0.328-1.107v-11.322
		c0-0.525,0.105-0.922,0.318-1.191c0.211-0.268,0.508-0.402,0.888-0.402c0.399,0,0.705,0.127,0.922,0.383
		C200.984,434.084,201.091,434.449,201.091,434.924 M201.216,442.627c0,1.033,0.235,1.824,0.707,2.379s1.091,0.832,1.857,0.832
		c0.651,0,1.215-0.283,1.686-0.85c0.472-0.568,0.707-1.379,0.707-2.438c0-0.684-0.098-1.273-0.293-1.766
		c-0.197-0.494-0.476-0.877-0.837-1.145c-0.36-0.27-0.783-0.404-1.263-0.404c-0.494,0-0.936,0.135-1.32,0.404
		c-0.387,0.268-0.69,0.658-0.913,1.168C201.326,441.316,201.216,441.924,201.216,442.627"/>
	<path fill="#F1F2F2" d="M212.138,448.164l0.237-0.58l-3.191-8.035c-0.196-0.461-0.295-0.797-0.295-1.006
		c0-0.223,0.058-0.428,0.171-0.617c0.115-0.189,0.271-0.342,0.471-0.455c0.2-0.115,0.406-0.172,0.623-0.172
		c0.373,0,0.653,0.119,0.845,0.355c0.19,0.238,0.357,0.578,0.503,1.021l2.195,6.381l2.08-5.936c0.164-0.479,0.313-0.857,0.445-1.129
		c0.134-0.273,0.273-0.457,0.423-0.551c0.148-0.096,0.359-0.143,0.632-0.143c0.196,0,0.385,0.051,0.565,0.156
		s0.319,0.246,0.417,0.424c0.098,0.176,0.148,0.363,0.148,0.559c-0.026,0.119-0.066,0.291-0.125,0.514
		c-0.058,0.221-0.125,0.447-0.207,0.674l-3.382,8.854c-0.292,0.777-0.577,1.389-0.855,1.832c-0.279,0.443-0.647,0.785-1.107,1.021
		c-0.458,0.238-1.077,0.355-1.856,0.355c-0.76,0-1.329-0.082-1.708-0.246c-0.382-0.166-0.57-0.465-0.57-0.902
		c0-0.297,0.089-0.527,0.271-0.688c0.18-0.162,0.447-0.244,0.802-0.244c0.139,0,0.276,0.02,0.409,0.059
		c0.164,0.037,0.307,0.057,0.427,0.057c0.297,0,0.532-0.045,0.703-0.135c0.171-0.088,0.323-0.24,0.461-0.461
		C211.804,448.91,211.961,448.588,212.138,448.164"/>
	<path fill="#F1F2F2" d="M249.7,437.523h0.618v-0.779c0-0.814,0.101-1.457,0.308-1.938c0.204-0.479,0.555-0.826,1.047-1.045
		c0.49-0.217,1.163-0.326,2.016-0.326c1.521,0,2.273,0.367,2.273,1.115c0,0.238-0.079,0.443-0.24,0.615
		c-0.155,0.168-0.343,0.256-0.558,0.256c-0.101,0-0.278-0.02-0.527-0.061c-0.238-0.033-0.453-0.055-0.624-0.055
		c-0.467,0-0.766,0.141-0.905,0.414c-0.127,0.275-0.194,0.67-0.194,1.186v0.617h0.633c0.99,0,1.48,0.297,1.48,0.895
		c0,0.42-0.127,0.691-0.392,0.805c-0.262,0.115-0.624,0.172-1.089,0.172h-0.633v6.871c0,0.51-0.12,0.9-0.369,1.168
		c-0.241,0.271-0.555,0.406-0.943,0.406c-0.367,0-0.671-0.135-0.918-0.406c-0.244-0.268-0.364-0.658-0.364-1.168v-6.871h-0.714
		c-0.388,0-0.682-0.084-0.893-0.262c-0.209-0.172-0.315-0.4-0.315-0.678C248.396,437.83,248.832,437.523,249.7,437.523"/>
	<path fill="#F1F2F2" d="M258.189,444.098v2.168c0,0.523-0.133,0.918-0.374,1.18c-0.246,0.266-0.559,0.395-0.937,0.395
		c-0.382,0-0.688-0.131-0.927-0.4c-0.237-0.264-0.361-0.656-0.361-1.174v-7.223c0-1.166,0.42-1.75,1.261-1.75
		c0.435,0,0.743,0.135,0.935,0.41c0.188,0.271,0.295,0.672,0.316,1.207c0.309-0.535,0.624-0.936,0.948-1.207
		c0.332-0.275,0.763-0.41,1.311-0.41c0.549,0,1.071,0.135,1.585,0.41c0.516,0.271,0.771,0.635,0.771,1.084
		c0,0.314-0.11,0.58-0.326,0.781c-0.22,0.209-0.454,0.311-0.706,0.311c-0.099,0-0.331-0.063-0.691-0.178
		c-0.365-0.115-0.689-0.174-0.963-0.174c-0.381,0-0.692,0.102-0.933,0.299c-0.242,0.203-0.43,0.496-0.563,0.885
		c-0.129,0.395-0.22,0.867-0.273,1.404C258.213,442.658,258.189,443.318,258.189,444.098"/>
	<path fill="#F1F2F2" d="M270.11,443.205h-5.074c0.01,0.588,0.124,1.109,0.354,1.559c0.236,0.445,0.541,0.785,0.925,1.016
		c0.385,0.229,0.805,0.34,1.27,0.34c0.31,0,0.593-0.033,0.849-0.111c0.254-0.068,0.505-0.186,0.746-0.34
		c0.242-0.152,0.46-0.318,0.664-0.5c0.202-0.176,0.466-0.416,0.79-0.719c0.134-0.113,0.324-0.174,0.567-0.174
		c0.27,0,0.481,0.074,0.649,0.221c0.166,0.148,0.244,0.352,0.244,0.617c0,0.236-0.089,0.508-0.269,0.82
		c-0.187,0.316-0.463,0.615-0.836,0.906c-0.374,0.285-0.839,0.527-1.396,0.713c-0.561,0.191-1.206,0.287-1.933,0.287
		c-1.671,0-2.964-0.473-3.887-1.422c-0.924-0.953-1.391-2.242-1.391-3.869c0-0.766,0.117-1.479,0.347-2.135
		c0.226-0.658,0.559-1.215,0.999-1.688c0.437-0.471,0.97-0.828,1.613-1.078c0.637-0.248,1.346-0.373,2.128-0.373
		c1.01,0,1.88,0.213,2.605,0.645c0.725,0.424,1.274,0.977,1.63,1.654c0.36,0.682,0.542,1.369,0.542,2.074
		c0,0.648-0.189,1.07-0.563,1.266C271.313,443.107,270.789,443.205,270.11,443.205 M265.036,441.73h4.701
		c-0.062-0.885-0.298-1.551-0.714-1.986c-0.418-0.443-0.959-0.66-1.64-0.66c-0.646,0-1.177,0.219-1.592,0.668
		C265.378,440.199,265.124,440.857,265.036,441.73"/>
	<path fill="#F1F2F2" d="M280.897,443.205h-5.072c0.006,0.588,0.125,1.109,0.354,1.559c0.231,0.445,0.538,0.785,0.92,1.016
		c0.383,0.229,0.806,0.34,1.272,0.34c0.308,0,0.593-0.033,0.845-0.111c0.258-0.068,0.505-0.186,0.75-0.34
		c0.242-0.152,0.46-0.318,0.664-0.5c0.199-0.176,0.464-0.416,0.788-0.719c0.135-0.113,0.326-0.174,0.567-0.174
		c0.27,0,0.484,0.074,0.65,0.221c0.166,0.148,0.241,0.352,0.241,0.617c0,0.236-0.087,0.508-0.274,0.82
		c-0.176,0.316-0.455,0.615-0.83,0.906c-0.37,0.285-0.84,0.527-1.395,0.713c-0.559,0.191-1.208,0.287-1.936,0.287
		c-1.667,0-2.959-0.473-3.887-1.422c-0.923-0.953-1.388-2.242-1.388-3.869c0-0.766,0.116-1.479,0.347-2.135
		c0.228-0.658,0.56-1.215,0.997-1.688c0.435-0.471,0.972-0.828,1.614-1.078c0.637-0.248,1.35-0.373,2.129-0.373
		c1.008,0,1.878,0.213,2.613,0.645c0.72,0.424,1.266,0.977,1.62,1.654c0.359,0.682,0.546,1.369,0.546,2.074
		c0,0.648-0.192,1.07-0.563,1.266C282.098,443.107,281.573,443.205,280.897,443.205 M275.825,441.73h4.7
		c-0.063-0.885-0.304-1.551-0.715-1.986c-0.421-0.443-0.962-0.66-1.642-0.66c-0.646,0-1.176,0.219-1.593,0.668
		C276.163,440.199,275.909,440.857,275.825,441.73"/>
	<path fill="#F1F2F2" d="M286.577,438.752v0.311c0.486-0.6,0.994-1.041,1.524-1.324c0.52-0.283,1.119-0.426,1.783-0.426
		c0.795,0,1.535,0.207,2.207,0.617c0.671,0.414,1.198,1.016,1.588,1.807c0.39,0.795,0.586,1.729,0.586,2.813
		c0,0.797-0.112,1.531-0.336,2.201c-0.223,0.668-0.537,1.227-0.928,1.68c-0.395,0.451-0.856,0.803-1.391,1.047
		c-0.542,0.24-1.11,0.363-1.727,0.363c-0.739,0-1.365-0.148-1.866-0.447c-0.503-0.293-0.982-0.734-1.441-1.307v3.893
		c0,1.137-0.416,1.711-1.243,1.711c-0.49,0-0.81-0.146-0.973-0.439c-0.15-0.299-0.232-0.725-0.232-1.291v-11.193
		c0-0.496,0.105-0.859,0.319-1.107c0.216-0.24,0.513-0.365,0.886-0.365c0.368,0,0.666,0.125,0.895,0.375
		C286.465,437.922,286.577,438.277,286.577,438.752 M291.661,442.52c0-0.684-0.106-1.273-0.314-1.762
		c-0.208-0.492-0.499-0.867-0.866-1.129s-0.782-0.396-1.231-0.396c-0.715,0-1.319,0.285-1.81,0.844
		c-0.492,0.566-0.739,1.396-0.739,2.494c0,1.025,0.244,1.832,0.735,2.406c0.488,0.572,1.086,0.857,1.813,0.857
		c0.429,0,0.83-0.125,1.196-0.371c0.371-0.254,0.665-0.627,0.885-1.127C291.551,443.834,291.661,443.229,291.661,442.52"/>
	<path fill="#F1F2F2" d="M296.878,436.086c-0.363,0-0.669-0.113-0.923-0.334c-0.261-0.223-0.389-0.533-0.389-0.938
		c0-0.367,0.131-0.67,0.397-0.91c0.262-0.234,0.565-0.355,0.914-0.355c0.34,0,0.636,0.107,0.893,0.32
		c0.26,0.219,0.391,0.533,0.391,0.945c0,0.4-0.127,0.711-0.378,0.936C297.529,435.973,297.229,436.086,296.878,436.086
		 M298.161,438.766v7.502c0,0.516-0.123,0.908-0.369,1.172c-0.25,0.27-0.562,0.4-0.941,0.4c-0.381,0-0.685-0.133-0.928-0.406
		c-0.234-0.277-0.356-0.666-0.356-1.166v-7.428c0-0.51,0.122-0.895,0.356-1.154c0.243-0.266,0.547-0.393,0.928-0.393
		c0.38,0,0.691,0.127,0.941,0.393C298.038,437.945,298.161,438.307,298.161,438.766"/>
	<path fill="#F1F2F2" d="M306.521,446.656l-2.284-3.766l-1.408,1.328v2.064c0,0.5-0.133,0.883-0.397,1.15
		c-0.257,0.271-0.565,0.406-0.905,0.406c-0.399,0-0.715-0.131-0.941-0.4c-0.226-0.264-0.343-0.656-0.343-1.174v-11.064
		c0-0.572,0.114-1.01,0.331-1.313c0.222-0.305,0.545-0.453,0.953-0.453c0.398,0,0.713,0.137,0.948,0.412
		c0.234,0.27,0.354,0.674,0.354,1.201v6.293l2.916-3.063c0.362-0.375,0.632-0.641,0.827-0.777c0.188-0.139,0.419-0.209,0.688-0.209
		c0.326,0,0.595,0.104,0.816,0.309c0.211,0.207,0.32,0.467,0.32,0.773c0,0.379-0.354,0.889-1.056,1.521l-1.377,1.264l2.659,4.182
		c0.194,0.314,0.339,0.545,0.424,0.707c0.084,0.158,0.13,0.318,0.13,0.461c0,0.414-0.113,0.734-0.341,0.977
		c-0.224,0.236-0.522,0.354-0.885,0.354c-0.317,0-0.564-0.082-0.734-0.256S306.812,447.1,306.521,446.656"/>
	<path fill="#F1F2F2" d="M312.156,447.84c-0.392,0-0.728-0.127-1.014-0.381c-0.284-0.25-0.428-0.605-0.428-1.064
		c0-0.387,0.137-0.719,0.41-0.996c0.273-0.279,0.606-0.418,1.008-0.418c0.396,0,0.735,0.139,1.021,0.412
		c0.279,0.275,0.423,0.611,0.423,1.002c0,0.451-0.144,0.807-0.423,1.059C312.868,447.713,312.536,447.84,312.156,447.84"/>
	<path fill="#F1F2F2" d="M325.055,444.629c0,0.32-0.097,0.668-0.291,1.035c-0.19,0.369-0.487,0.717-0.886,1.049
		c-0.394,0.332-0.891,0.602-1.495,0.805c-0.6,0.201-1.279,0.307-2.029,0.307c-1.607,0-2.858-0.471-3.759-1.402
		c-0.895-0.936-1.346-2.188-1.346-3.76c0-1.066,0.204-2.006,0.62-2.824c0.407-0.814,1.003-1.447,1.781-1.893
		c0.778-0.449,1.716-0.672,2.794-0.672c0.673,0,1.288,0.1,1.852,0.297c0.562,0.195,1.032,0.451,1.425,0.758
		c0.388,0.314,0.687,0.645,0.891,0.992c0.207,0.352,0.307,0.682,0.307,0.988s-0.113,0.57-0.342,0.787
		c-0.236,0.215-0.516,0.324-0.839,0.324c-0.219,0-0.398-0.057-0.541-0.166c-0.145-0.113-0.305-0.291-0.479-0.543
		c-0.316-0.477-0.646-0.842-0.996-1.078c-0.343-0.244-0.779-0.363-1.313-0.363c-0.762,0-1.384,0.299-1.854,0.898
		c-0.468,0.596-0.702,1.42-0.702,2.453c0,0.488,0.062,0.939,0.183,1.348c0.117,0.408,0.291,0.756,0.52,1.045
		c0.23,0.287,0.504,0.504,0.826,0.654c0.324,0.152,0.682,0.225,1.064,0.225c0.521,0,0.966-0.119,1.337-0.359
		c0.376-0.242,0.702-0.607,0.986-1.104c0.157-0.291,0.326-0.518,0.509-0.684c0.182-0.162,0.409-0.248,0.675-0.248
		c0.317,0,0.581,0.123,0.787,0.361C324.949,444.1,325.055,444.359,325.055,444.629"/>
	<path fill="#F1F2F2" d="M336.246,442.568c0,0.771-0.123,1.484-0.356,2.139c-0.247,0.652-0.592,1.215-1.05,1.68
		c-0.455,0.469-1.002,0.828-1.632,1.08c-0.639,0.248-1.349,0.375-2.138,0.375c-0.785,0-1.493-0.127-2.121-0.383
		c-0.623-0.25-1.171-0.615-1.626-1.082c-0.461-0.477-0.81-1.035-1.052-1.678c-0.23-0.643-0.352-1.354-0.352-2.131
		c0-0.785,0.124-1.506,0.359-2.158c0.242-0.654,0.589-1.211,1.039-1.672c0.45-0.463,0.993-0.816,1.631-1.07
		c0.643-0.25,1.349-0.375,2.121-0.375c0.784,0,1.498,0.125,2.138,0.383c0.638,0.25,1.183,0.613,1.644,1.08
		c0.458,0.473,0.804,1.027,1.04,1.67C336.125,441.078,336.246,441.787,336.246,442.568 M333.642,442.568
		c0-1.059-0.233-1.881-0.697-2.469c-0.463-0.594-1.09-0.889-1.874-0.889c-0.508,0-0.955,0.133-1.344,0.395
		c-0.387,0.262-0.681,0.65-0.89,1.164s-0.314,1.113-0.314,1.799c0,0.68,0.102,1.268,0.309,1.773
		c0.208,0.512,0.502,0.898,0.886,1.166c0.386,0.268,0.835,0.404,1.354,0.404c0.784,0,1.411-0.295,1.874-0.891
		C333.408,444.43,333.642,443.609,333.642,442.568"/>
	<path fill="#F1F2F2" d="M346.138,442.76v3.445c0,0.547-0.12,0.951-0.369,1.229c-0.25,0.271-0.571,0.408-0.979,0.408
		c-0.392,0-0.714-0.137-0.951-0.408c-0.247-0.277-0.372-0.682-0.372-1.229v-4.131c0-0.652-0.02-1.162-0.063-1.523
		c-0.046-0.354-0.168-0.656-0.363-0.883c-0.196-0.236-0.508-0.352-0.93-0.352c-0.852,0-1.408,0.289-1.677,0.881
		c-0.269,0.576-0.406,1.412-0.406,2.506v3.502c0,0.539-0.123,0.947-0.362,1.225c-0.249,0.273-0.566,0.412-0.965,0.412
		c-0.395,0-0.716-0.139-0.966-0.412c-0.252-0.277-0.376-0.686-0.376-1.225v-7.418c0-0.49,0.11-0.861,0.335-1.111
		c0.229-0.258,0.525-0.383,0.889-0.383c0.357,0,0.652,0.123,0.893,0.355c0.235,0.238,0.354,0.566,0.354,0.984v0.246
		c0.454-0.535,0.936-0.932,1.445-1.182c0.516-0.26,1.082-0.385,1.713-0.385c0.651,0,1.211,0.131,1.677,0.389
		c0.47,0.262,0.854,0.656,1.161,1.178c0.439-0.529,0.909-0.924,1.41-1.182c0.5-0.256,1.052-0.385,1.662-0.385
		c0.706,0,1.32,0.143,1.834,0.418c0.51,0.279,0.892,0.68,1.146,1.195c0.222,0.473,0.33,1.211,0.33,2.217v5.063
		c0,0.547-0.122,0.951-0.367,1.229c-0.246,0.271-0.574,0.408-0.979,0.408c-0.396,0-0.714-0.139-0.965-0.412
		c-0.25-0.277-0.376-0.686-0.376-1.225v-4.361c0-0.559-0.024-1.002-0.07-1.338s-0.176-0.619-0.382-0.846
		c-0.212-0.229-0.531-0.344-0.953-0.344c-0.342,0-0.667,0.105-0.974,0.307c-0.308,0.199-0.548,0.477-0.722,0.813
		C346.236,440.875,346.138,441.648,346.138,442.76"/>
	<path fill="#F1F2F2" d="M225.433,441.941c-0.002-0.006-0.002-0.01-0.002-0.018C225.431,441.932,225.431,441.936,225.433,441.941"/>
	<path fill="#F1F2F2" d="M225.563,442.77h0.003c-0.05-0.236-0.088-0.471-0.119-0.701
		C225.479,442.301,225.517,442.537,225.563,442.77"/>
	<path fill="#F1F2F2" d="M226.422,445.176c-0.006-0.01-0.011-0.02-0.017-0.033C226.411,445.156,226.416,445.166,226.422,445.176"/>
	<path fill="#F1F2F2" d="M226.34,445.016c-0.021-0.043-0.044-0.09-0.065-0.133C226.296,444.93,226.318,444.973,226.34,445.016"/>
	<path fill="#F1F2F2" d="M225.805,443.697c0.127,0.4,0.28,0.787,0.457,1.158c-0.181-0.379-0.33-0.768-0.454-1.158H225.805z"/>
	<path fill="#F1F2F2" d="M235.47,432.004c0.502,0,0.871,0.041,1.296,0.111l0.119-0.762c0,0-1.171-0.361-2.71-0.234l-0.121-0.416
		c0.479-0.1,0.838-0.525,0.838-1.033c0-0.582-0.475-1.055-1.058-1.055s-1.055,0.473-1.055,1.055c0,0.508,0.358,0.934,0.836,1.033
		l0.133,0.463c-1.634,0.225-2.935,0.863-2.935,0.863l0.23,0.705c0.988-0.33,1.846-0.529,2.624-0.613
		C234.429,432.039,235.003,432.004,235.47,432.004"/>
	<path fill="#F1F2F2" d="M226.402,435.863l0.006-0.008c0.038-0.051,0.076-0.098,0.113-0.143l-0.313-0.227l-0.488-0.355
		c-0.026,0.037-0.795,0.744-1.4,2.047c-0.025-0.041-0.057-0.08-0.09-0.119c-0.182-0.197-0.436-0.299-0.758-0.293h-0.016
		c-0.199,0-0.337-0.066-0.427-0.148c0.09-0.113,0.144-0.256,0.144-0.412c0-0.369-0.299-0.67-0.67-0.67
		c-0.369,0-0.668,0.301-0.668,0.67s0.299,0.668,0.668,0.668c0.059,0,0.113-0.01,0.168-0.02c0.164,0.182,0.424,0.342,0.808,0.334
		c0.195-0.002,0.341,0.049,0.437,0.154c0.111,0.121,0.149,0.297,0.16,0.428c-0.001,0.002-0.001,0.006-0.003,0.006
		c-0.437,1.189-0.312,2.67-0.312,2.67l1.058,0.041c0.022-0.539,0.099-1.482,0.372-2.23
		C225.716,436.807,226.376,435.9,226.402,435.863"/>
	<path fill="#F1F2F2" d="M244.669,432.889c-0.367,0-0.669,0.299-0.669,0.668c0,0.059,0.01,0.113,0.023,0.166
		c-0.183,0.166-0.342,0.428-0.336,0.811c0.002,0.197-0.048,0.34-0.155,0.436c-0.085,0.076-0.19,0.115-0.296,0.141
		c-0.787-1.102-1.756-1.775-1.756-1.775l-0.758,0.814c0.573,0.521,1.159,1.174,1.728,1.99c0.395,0.564,0.799,1.289,1.137,2.014
		l1.023-0.486c0,0-0.467-1.154-1.126-2.191c0.115-0.039,0.23-0.102,0.331-0.191c0.201-0.182,0.299-0.438,0.293-0.758
		c-0.002-0.209,0.067-0.35,0.149-0.441c0.113,0.086,0.257,0.143,0.411,0.143c0.371,0,0.671-0.301,0.671-0.67
		S245.04,432.889,244.669,432.889"/>
	<path fill="#F1F2F2" d="M242.013,442.09c-1.409,0.688-3.729,1.594-6.781,2.02c-1.198,0.166-2.36,0.229-3.43,0.229
		c-1.39,0-2.619-0.104-3.562-0.223c-1.076-0.137-1.917-0.303-2.433-0.418c0.123,0.391,0.273,0.779,0.455,1.158
		c0.002,0.01,0.007,0.02,0.012,0.027c0.021,0.043,0.043,0.09,0.066,0.133c0.021,0.045,0.043,0.088,0.064,0.127
		c0.006,0.012,0.011,0.023,0.017,0.033c0.302,0.57,0.667,1.096,1.08,1.549c1.44,1.576,2.907,1.824,2.921,1.826l0.023,0.004
		l0.021,0.008c0.014,0.004,1.314,0.424,3.291,0.424c1.945,0,3.855-0.393,5.675-1.166c1.348-0.689,2.622-1.736,3.254-2.67
		c0.487-0.723,0.841-1.494,1.05-2.295c0.111-0.426,0.199-1.107,0.146-1.824C243.488,441.297,242.861,441.678,242.013,442.09"/>
	<path fill="#F1F2F2" d="M226.855,436.197c-0.042,0.059-0.653,0.924-1.136,2.252c-0.361,0.996-0.346,2.443-0.346,2.461v0.002
		c0,0.34,0.019,0.678,0.057,1.012c0,0.008,0,0.012,0.002,0.018c0.004,0.043,0.012,0.084,0.015,0.127
		c0.031,0.23,0.069,0.465,0.12,0.701c0.699,0.178,4.877,1.152,9.547,0.502c2.928-0.406,5.149-1.271,6.5-1.926
		c1.12-0.545,1.842-1.037,2.119-1.238c-0.276-1.029-1.042-2.641-1.742-3.646c-2.006-2.865-4.167-3.602-5.277-3.783
		c-0.424-0.07-0.764-0.109-1.244-0.109c-0.447,0-1.002,0.035-1.743,0.113c-0.743,0.078-1.571,0.273-2.532,0.596
		c-1.348,0.451-2.566,1.16-3.526,2.049l-0.033,0.029C227.493,435.486,227.196,435.762,226.855,436.197 M239.125,435.529
		c0.961,0,1.743,0.781,1.743,1.744c0,0.961-0.782,1.744-1.743,1.744c-0.962,0-1.742-0.783-1.742-1.744
		C237.383,436.311,238.163,435.529,239.125,435.529 M230.883,435.461c1.558,0,2.817,1.262,2.817,2.816
		c0,1.557-1.26,2.814-2.817,2.814c-1.556,0-2.815-1.258-2.815-2.814C228.067,436.723,229.327,435.461,230.883,435.461"/>
</g>
</svg>
