<?xml version="1.0" encoding="utf-8"?>
<!-- Generator: Adobe Illustrator 16.0.0, SVG Export Plug-In . SVG Version: 6.00 Build 0)  -->
<!DOCTYPE svg PUBLIC "-//W3C//DTD SVG 1.1//EN" "http://www.w3.org/Graphics/SVG/1.1/DTD/svg11.dtd">
<svg version="1.1" id="Layer_1" xmlns="http://www.w3.org/2000/svg" xmlns:xlink="http://www.w3.org/1999/xlink" x="0px" y="0px"
	 width="60px" height="32.333px" viewBox="0 0 60 32.333" enable-background="new 0 0 60 32.333" xml:space="preserve">
<g>
	<path fill="#ED342F" d="M124.397,33.357c-9.913,0-20.364-0.566-20.71,0.172c-0.417,0.89,1.453,3.763,0.953,4.888
		c-0.498,1.124-1.568,5.2-1.283,6.042c0.285,0.844,41.865,0.563,42.65,0.211c0.783-0.351-1.568-4.566-1.641-5.06
		c-0.07-0.491,1.141-5.269,0.928-5.832C145.08,33.216,135.238,33.357,124.397,33.357z"/>
	<path fill="#F26F25" d="M140.221,4.542c0,0,1.768-1.894,3.536-2.462c0,0,2.523,3.662,1.261,6.313
		c-1.261,2.651-4.103,0.631-4.103,0.631L140.221,4.542z"/>
	<path fill="#F26F25" d="M119.962,6.678c0,0,0.277-2.576,1.351-4.091c0,0,4.217,1.415,4.798,4.293
		c0.58,2.878-2.904,2.966-2.904,2.966L119.962,6.678z"/>
	<g>
		<path fill="#2A2648" d="M5.6,6.317c-5.307,2.346-2.755,19.43,0.62,21.588c3.375,2.158,44.214,1.586,47.518,0.572
			c3.309-1.016,5.306-20.636,2.067-22.033C52.567,5.048,10.627,4.095,5.6,6.317z"/>
		<path fill="#44416C" d="M5.6,4.275C0.293,6.62,2.845,23.702,6.22,25.862c3.375,2.158,44.214,1.586,47.518,0.57
			c3.309-1.016,5.306-20.634,2.067-22.031C52.567,3.005,10.627,2.053,5.6,4.275z"/>
		<path fill="#F89E22" d="M7.479,5.782C2.581,7.802,4.936,22.517,8.051,24.376c3.115,1.857,40.809,1.365,43.859,0.492
			c3.052-0.875,4.896-17.774,1.907-18.977C50.831,4.688,12.119,3.868,7.479,5.782z"/>
		<path fill="#F26F25" d="M8.187,6.279C3.442,8.192,5.723,22.126,8.74,23.884c3.017,1.762,39.527,1.297,42.483,0.469
			c2.954-0.828,4.741-16.832,1.847-17.971C50.176,5.243,12.681,4.466,8.187,6.279z"/>
		<path fill="#2A2648" d="M8.794,6.787C4.183,8.59,6.4,21.724,9.333,23.384s38.425,1.221,41.3,0.441
			c2.871-0.781,4.607-15.866,1.794-16.941C49.614,5.811,13.164,5.078,8.794,6.787z"/>
		<path fill="#44416C" d="M9.802,7.398C5.41,9.07,7.522,21.241,10.315,22.78s36.6,1.131,39.335,0.408
			c2.737-0.723,4.392-14.703,1.711-15.7C48.683,6.494,13.963,5.815,9.802,7.398z"/>
		<path fill="#2A2648" d="M21.975,16.641c-1.607,0.395-0.833,3.278,0.189,3.639c1.021,0.365,13.39,0.27,14.391,0.098
			s1.605-3.48,0.625-3.714C36.2,16.427,23.499,16.267,21.975,16.641z"/>
		<g>
			<circle fill="#F05B52" cx="42.873" cy="12.065" r="1.973"/>
			<path fill="#ED3435" d="M43.437,13.263c-1.091,0-1.973-0.884-1.973-1.974c0-0.256,0.052-0.5,0.142-0.725
				c-0.429,0.362-0.705,0.896-0.705,1.5c0,1.09,0.883,1.973,1.974,1.973c0.832,0,1.541-0.518,1.83-1.248
				C44.36,13.081,43.922,13.263,43.437,13.263z"/>
		</g>
		<g>
			<circle fill="#F89E22" cx="48.897" cy="12.065" r="1.974"/>
			<path fill="#F26F25" d="M49.461,13.263c-1.089,0-1.973-0.884-1.973-1.974c0-0.256,0.054-0.5,0.142-0.725
				c-0.428,0.362-0.706,0.896-0.706,1.5c0,1.09,0.884,1.973,1.974,1.973c0.833,0,1.542-0.518,1.83-1.248
				C50.386,13.081,49.947,13.263,49.461,13.263z"/>
		</g>
		<g>
			<circle fill="#F89E22" cx="42.873" cy="18.441" r="1.973"/>
			<path fill="#F26F25" d="M43.437,19.64c-1.091,0-1.973-0.883-1.973-1.972c0-0.258,0.052-0.501,0.142-0.727
				c-0.429,0.362-0.705,0.896-0.705,1.5c0,1.091,0.883,1.974,1.974,1.974c0.832,0,1.541-0.518,1.83-1.248
				C44.36,19.458,43.922,19.64,43.437,19.64z"/>
		</g>
		<g>
			<circle fill="#F05B52" cx="48.897" cy="18.441" r="1.974"/>
			<path fill="#ED3435" d="M49.461,19.64c-1.089,0-1.973-0.883-1.973-1.972c0-0.258,0.054-0.501,0.142-0.727
				c-0.428,0.362-0.706,0.896-0.706,1.5c0,1.091,0.884,1.974,1.974,1.974c0.833,0,1.542-0.518,1.83-1.248
				C50.386,19.458,49.947,19.64,49.461,19.64z"/>
		</g>
		<path fill="#F26F25" d="M17.793,12.935h-1.859v-1.86c0-0.85-0.696-1.546-1.546-1.546h-1.125c-0.849,0-1.545,0.696-1.545,1.546
			v1.86h-1.86c-0.851,0-1.546,0.695-1.546,1.545v1.124c0,0.85,0.695,1.547,1.546,1.547h1.86v1.86c0,0.85,0.696,1.545,1.545,1.545
			h1.125c0.85,0,1.546-0.695,1.546-1.545v-1.86h1.859c0.851,0,1.546-0.697,1.546-1.547V14.48
			C19.34,13.63,18.644,12.935,17.793,12.935z"/>
		<path fill="#F89E22" d="M16.863,13.429h-1.424v-1.424c0-0.651-0.532-1.184-1.183-1.184h-0.86c-0.651,0-1.184,0.533-1.184,1.184
			v1.424h-1.424c-0.65,0-1.183,0.532-1.183,1.183v0.86c0,0.651,0.532,1.184,1.183,1.184h1.424v1.424
			c0,0.649,0.533,1.183,1.184,1.183h0.86c0.651,0,1.183-0.534,1.183-1.183v-1.424h1.424c0.651,0,1.183-0.533,1.183-1.184v-0.86
			C18.046,13.961,17.514,13.429,16.863,13.429z"/>
		<path fill="#F89E22" d="M27.394,19.429h-3.142c-0.377,0-0.685-0.309-0.685-0.683v-0.396c0-0.374,0.308-0.682,0.685-0.682h3.142
			c0.377,0,0.683,0.308,0.683,0.682v0.396C28.076,19.12,27.771,19.429,27.394,19.429z"/>
		<path fill="#F89E22" d="M34.578,19.429h-3.142c-0.375,0-0.683-0.309-0.683-0.683v-0.396c0-0.374,0.308-0.682,0.683-0.682h3.142
			c0.377,0,0.685,0.308,0.685,0.682v0.396C35.263,19.12,34.955,19.429,34.578,19.429z"/>
		<path fill="#446899" d="M20.954,6.514c-0.027,0.906,0.465,1.861,1.207,2.435c1.027,0.797,2.373,1.031,3.663,1.181
			c2.925,0.338,5.886,0.368,8.818,0.091c1.115-0.106,2.316-0.3,3.102-1.102c0.519-0.531,0.779-1.26,0.96-1.98
			c0.042-0.169,0.078-0.342,0.112-0.514C33.135,6.461,26.49,6.402,20.954,6.514z"/>
	</g>
	<path fill="#FFCE12" d="M119.453,12.558c0,0,14.266-1.199,26.134,0.442c0,0,1.577-4.04,0.82-7.385c0,0-2.335,0.504-3.788,1.894
		c0,0-5.177-13.131-9.846-14.52c0,0-7.513,8.901-9.47,14.897c0,0-3.346-1.768-5.871-2.083
		C117.433,5.804,117.812,10.98,119.453,12.558z"/>
	<path fill="#FAAB20" d="M145.587,13c-7.26-3.534-21.842-2.083-23.483-2.587c-1.641-0.506-4.671-4.609-4.671-4.609
		s0.379,5.177,2.021,6.754C119.453,12.558,133.719,11.359,145.587,13z"/>
	<path fill="#FAAB20" d="M123.304,7.887c1.577,0.821,4.229,0.505,4.544,0c0.316-0.505,2.969-9.911,4.926-14.897
		C132.773-7.011,125.261,1.891,123.304,7.887z"/>
	<path fill="#FAAB20" d="M143.692,9.023c0.506-0.442,2.715-3.408,2.715-3.408s-2.335,0.504-3.788,1.894
		C142.619,8.33,143.188,9.466,143.692,9.023z"/>
	<path fill="#FFF225" d="M136.043-2.607c-0.717-1.031-1.527-2.086-2.525-2.854c-0.234-0.181-0.51,0.158-0.383,0.382
		c0.59,1.044,1.33,2.001,1.924,3.047c0.669,1.176,1.055,2.539,1.862,3.625c0.387,0.518,1.092,0.2,1.006-0.424
		C137.734-0.235,136.833-1.467,136.043-2.607z"/>
	<path fill="#FFF225" d="M139.165,3.803c-0.19-0.345-0.417-0.878-0.798-1.04c-0.187-0.079-0.364-0.018-0.437,0.178
		c-0.134,0.355,0.044,0.818,0.13,1.172c0.123,0.506,0.165,0.969,0.616,1.29c0.302,0.214,0.729-0.011,0.822-0.333
		C139.636,4.592,139.388,4.208,139.165,3.803z"/>
</g>
<g>
	<text transform="matrix(1 0 0 1 77.3154 72)" fill="#FFFFFF" font-family="'HoboStd'" font-size="10.0735">2011</text>
</g>
</svg>
