<?xml version="1.0" encoding="utf-8"?>
<!-- Generator: Adobe Illustrator 16.0.0, SVG Export Plug-In . SVG Version: 6.00 Build 0)  -->
<!DOCTYPE svg PUBLIC "-//W3C//DTD SVG 1.1//EN" "http://www.w3.org/Graphics/SVG/1.1/DTD/svg11.dtd">
<svg version="1.1" xmlns="http://www.w3.org/2000/svg" xmlns:xlink="http://www.w3.org/1999/xlink" x="0px" y="0px" width="442px"
	 height="309px" viewBox="0 0 442 309" enable-background="new 0 0 442 309" xml:space="preserve">
<g id="BACKGROUND" display="none">
	<rect x="-200" y="-277" display="inline" fill="#ABB5B7" width="800" height="800"/>
</g>
<g id="OBJECT">
	<g>
		<g>
			<g>
				<g>
					<polygon fill="#054242" points="267.744,109.782 267.346,115.899 310.185,91.166 310.168,85.463 					"/>
				</g>
				<g>
					<polygon fill="#0E6569" points="310.168,85.463 310.185,91.166 370.613,126.301 370.596,120.599 					"/>
				</g>
				<polygon fill="#FF434C" points="371.786,119.912 370.596,120.599 310.168,85.463 267.744,109.782 265.37,109.781 
					310.174,84.088 				"/>
			</g>
			<g>
				<g>
					<path fill="#1C2433" d="M318.169,99.57c-0.004-0.073-0.008-0.145-0.014-0.219c-0.003-0.036-0.006-0.075-0.01-0.112
						c-0.006-0.071-0.014-0.145-0.021-0.216c-0.004-0.035-0.007-0.069-0.013-0.104c-0.005-0.051-0.013-0.102-0.02-0.153
						c-0.012-0.076-0.022-0.151-0.035-0.227c-0.008-0.051-0.018-0.103-0.027-0.154c-0.013-0.073-0.027-0.147-0.043-0.221
						c-0.012-0.058-0.024-0.117-0.037-0.175c-0.011-0.05-0.022-0.1-0.034-0.149c-0.016-0.064-0.031-0.13-0.048-0.194
						c-0.013-0.048-0.024-0.097-0.038-0.146c-0.021-0.077-0.043-0.156-0.065-0.233c-0.01-0.029-0.018-0.057-0.027-0.086
						c-0.031-0.107-0.065-0.214-0.101-0.32c-0.053-0.157-0.109-0.314-0.168-0.469c-0.016-0.04-0.031-0.079-0.047-0.118
						c-0.052-0.132-0.104-0.265-0.161-0.395c-0.009-0.021-0.017-0.042-0.024-0.062c-0.064-0.145-0.131-0.29-0.199-0.433
						c-0.019-0.038-0.037-0.076-0.054-0.113c-0.057-0.114-0.114-0.228-0.172-0.339c-0.019-0.035-0.037-0.069-0.056-0.104
						c-0.076-0.143-0.153-0.281-0.233-0.42c-0.016-0.026-0.031-0.052-0.046-0.078c-0.071-0.121-0.145-0.239-0.219-0.357
						c-0.022-0.035-0.045-0.069-0.066-0.104c-0.093-0.144-0.188-0.286-0.285-0.426c-0.015-0.021-0.03-0.042-0.045-0.063
						c-0.103-0.145-0.207-0.286-0.314-0.425c-0.016-0.022-0.031-0.043-0.048-0.065c-0.035-0.043-0.068-0.086-0.104-0.128
						c-0.042-0.053-0.084-0.106-0.127-0.16c-0.035-0.042-0.071-0.084-0.108-0.126c-0.041-0.049-0.084-0.098-0.126-0.148
						c-0.087-0.099-0.176-0.197-0.266-0.293c-0.005-0.005-0.01-0.011-0.014-0.016c-0.095-0.101-0.191-0.199-0.287-0.295
						c-0.063-0.062-0.126-0.122-0.188-0.181c-0.018-0.017-0.034-0.033-0.051-0.05c-0.082-0.077-0.165-0.152-0.249-0.225
						c-0.023-0.021-0.045-0.038-0.067-0.058c-0.063-0.054-0.125-0.106-0.187-0.158c-0.032-0.025-0.063-0.049-0.094-0.075
						c-0.055-0.045-0.11-0.087-0.168-0.13c-0.031-0.026-0.066-0.05-0.1-0.076c-0.056-0.042-0.111-0.082-0.167-0.121
						c-0.033-0.024-0.066-0.047-0.1-0.07c-0.061-0.042-0.121-0.082-0.182-0.121c-0.029-0.019-0.058-0.038-0.086-0.056
						c-0.09-0.058-0.181-0.112-0.271-0.165c-0.087-0.05-0.174-0.097-0.259-0.142c-0.023-0.013-0.047-0.023-0.068-0.036
						c-0.076-0.04-0.154-0.078-0.229-0.113c-0.01-0.004-0.019-0.009-0.03-0.014c-0.085-0.039-0.169-0.075-0.254-0.109
						c-0.017-0.006-0.033-0.014-0.05-0.021c-0.083-0.032-0.164-0.063-0.246-0.09c-0.008-0.003-0.017-0.006-0.025-0.008
						c-0.078-0.026-0.154-0.05-0.23-0.072c-0.013-0.003-0.025-0.007-0.038-0.009c-0.062-0.019-0.122-0.033-0.184-0.046
						c-0.026-0.006-0.054-0.015-0.081-0.021c-0.087-0.019-0.171-0.035-0.255-0.047c0,0-0.007-0.001-0.01-0.001
						c-0.076-0.012-0.153-0.021-0.229-0.029c-0.024-0.002-0.05-0.002-0.074-0.005c-0.055-0.004-0.109-0.006-0.162-0.009
						c-0.024,0-0.049,0-0.072-0.001c-0.056-0.001-0.111,0.001-0.167,0.002c-0.019,0.001-0.039,0.001-0.057,0.002
						c-0.071,0.004-0.142,0.01-0.211,0.019c-0.015,0.002-0.028,0.004-0.043,0.006c-0.057,0.007-0.113,0.017-0.167,0.027
						c-0.021,0.004-0.039,0.007-0.058,0.012c-0.063,0.013-0.126,0.029-0.186,0.046c0,0-0.009,0-0.013,0.002
						c-0.065,0.019-0.127,0.041-0.19,0.064c-0.018,0.005-0.033,0.012-0.05,0.019c-0.051,0.02-0.101,0.042-0.15,0.064
						c-0.013,0.005-0.025,0.012-0.037,0.018c-0.064,0.029-0.126,0.062-0.187,0.097l4.149-2.412c0.011-0.005,0.021-0.011,0.031-0.018
						c0.051-0.028,0.104-0.055,0.155-0.08c0.013-0.006,0.026-0.012,0.039-0.017c0.029-0.015,0.058-0.029,0.089-0.041
						c0.021-0.008,0.039-0.016,0.06-0.023c0.017-0.007,0.032-0.014,0.05-0.02c0.063-0.023,0.124-0.044,0.188-0.063l0.003-0.001
						c0.004-0.001,0.008-0.002,0.008-0.002c0.065-0.019,0.128-0.033,0.191-0.046c0.018-0.005,0.037-0.009,0.055-0.013
						c0.021-0.003,0.039-0.008,0.06-0.011c0.035-0.005,0.072-0.011,0.109-0.015c0.015-0.003,0.027-0.006,0.043-0.007
						c0.063-0.007,0.124-0.013,0.188-0.018c0.008-0.001,0.015-0.001,0.022-0.001c0.019,0,0.038,0,0.057-0.001
						c0.055-0.003,0.111-0.004,0.167-0.004c0.024,0.001,0.047,0.002,0.072,0.002c0.019,0.001,0.035,0,0.055,0.001
						c0.035,0.002,0.071,0.004,0.106,0.007c0.026,0.003,0.051,0.004,0.076,0.006c0.074,0.006,0.15,0.016,0.228,0.027
						c0.004,0.001,0.006,0.001,0.009,0.002h0.002c0.083,0.012,0.169,0.028,0.254,0.047c0.026,0.005,0.056,0.013,0.082,0.02
						c0.053,0.013,0.105,0.024,0.16,0.039c0.005,0.001,0.01,0.004,0.016,0.005c0.101,0.028,0.201,0.058,0.305,0.094
						c0.02,0.006,0.041,0.015,0.062,0.022c0.083,0.03,0.165,0.06,0.249,0.095c0.012,0.004,0.022,0.007,0.034,0.012
						c0.066,0.028,0.134,0.059,0.202,0.09c0.009,0.004,0.02,0.009,0.029,0.013c0.075,0.036,0.151,0.074,0.229,0.113
						c0.023,0.012,0.045,0.023,0.067,0.035c0.086,0.045,0.173,0.092,0.26,0.143c0.091,0.052,0.182,0.107,0.271,0.164
						c0.029,0.019,0.058,0.037,0.087,0.056c0.062,0.04,0.122,0.08,0.182,0.121c0.033,0.023,0.066,0.046,0.099,0.07
						c0.057,0.04,0.112,0.08,0.168,0.12c0.033,0.026,0.066,0.051,0.101,0.076c0.057,0.042,0.11,0.086,0.167,0.13
						c0.03,0.025,0.063,0.049,0.094,0.074c0.062,0.052,0.124,0.104,0.186,0.158c0.022,0.02,0.047,0.038,0.068,0.057
						c0.083,0.074,0.166,0.149,0.248,0.226c0.018,0.017,0.035,0.032,0.052,0.049c0.054,0.052,0.109,0.104,0.163,0.156
						c0.009,0.007,0.016,0.016,0.023,0.024c0.098,0.096,0.194,0.194,0.289,0.295c0.004,0.004,0.009,0.01,0.014,0.016
						c0.09,0.096,0.179,0.194,0.266,0.293c0.008,0.009,0.017,0.019,0.024,0.028c0.035,0.04,0.068,0.081,0.102,0.12
						c0.036,0.042,0.072,0.083,0.107,0.127c0.042,0.052,0.085,0.105,0.128,0.158c0.035,0.043,0.069,0.085,0.102,0.129
						c0.008,0.008,0.014,0.015,0.021,0.023c0.01,0.014,0.02,0.027,0.029,0.042c0.107,0.139,0.212,0.281,0.313,0.425
						c0.011,0.015,0.021,0.028,0.032,0.042c0.004,0.006,0.009,0.014,0.014,0.021c0.098,0.139,0.192,0.281,0.285,0.426
						c0.009,0.013,0.019,0.027,0.027,0.041c0.014,0.021,0.024,0.042,0.039,0.063c0.074,0.118,0.146,0.237,0.219,0.357
						c0.01,0.019,0.022,0.037,0.033,0.057c0.005,0.005,0.008,0.014,0.012,0.021c0.081,0.14,0.158,0.279,0.234,0.42
						c0.006,0.011,0.013,0.022,0.019,0.033c0.012,0.023,0.024,0.046,0.035,0.07c0.06,0.112,0.117,0.226,0.172,0.341
						c0.013,0.023,0.024,0.045,0.035,0.068c0.008,0.015,0.014,0.028,0.021,0.042c0.068,0.145,0.136,0.289,0.199,0.433
						c0.001,0.006,0.004,0.009,0.006,0.015c0.006,0.015,0.012,0.03,0.02,0.045c0.056,0.132,0.109,0.264,0.161,0.396
						c0.009,0.021,0.018,0.042,0.026,0.064c0.012,0.033,0.025,0.066,0.037,0.101c0.012,0.032,0.024,0.066,0.038,0.1
						c0.031,0.088,0.063,0.177,0.093,0.265c0.005,0.018,0.013,0.035,0.019,0.053c0.001,0.005,0.003,0.009,0.004,0.015
						c0.034,0.103,0.067,0.206,0.1,0.31c0.007,0.029,0.016,0.058,0.023,0.087c0.019,0.059,0.035,0.118,0.052,0.177
						c0.006,0.019,0.01,0.037,0.016,0.056c0.014,0.048,0.025,0.098,0.038,0.146c0.016,0.064,0.032,0.129,0.049,0.193
						c0.011,0.048,0.021,0.098,0.033,0.148c0.008,0.034,0.017,0.068,0.023,0.104c0.006,0.024,0.01,0.048,0.015,0.072
						c0.015,0.073,0.029,0.147,0.042,0.221c0.009,0.05,0.019,0.102,0.027,0.153c0.013,0.077,0.023,0.151,0.034,0.228
						c0.006,0.036,0.012,0.072,0.016,0.107c0.002,0.015,0.004,0.029,0.006,0.044c0.004,0.035,0.008,0.069,0.013,0.104
						c0.008,0.072,0.015,0.145,0.021,0.216c0.003,0.038,0.007,0.076,0.011,0.112c0.005,0.074,0.009,0.146,0.013,0.219
						c0.001,0.033,0.004,0.065,0.004,0.098c0.004,0.105,0.007,0.208,0.006,0.311c-0.004,1.777-0.634,3.027-1.645,3.616l-4.15,2.413
						c1.013-0.589,1.641-1.84,1.646-3.617c0-0.103-0.003-0.207-0.007-0.31C318.173,99.636,318.171,99.603,318.169,99.57z"/>
					<g>
						<path fill="#30394F" d="M312.558,90.242c-3.113-1.799-5.647-0.354-5.657,3.224c-0.011,3.579,2.507,7.938,5.62,9.736
							c3.115,1.798,5.648,0.354,5.659-3.223C318.189,96.399,315.674,92.04,312.558,90.242z"/>
					</g>
				</g>
				<g>
					<path fill="#30394F" d="M284.428,114.154c0-0.02-0.002-0.039-0.004-0.06c0-0.009-0.001-0.02-0.002-0.03
						c-0.002-0.02-0.005-0.04-0.006-0.059c-0.002-0.01-0.004-0.02-0.004-0.029c-0.002-0.014-0.003-0.028-0.005-0.042
						c-0.004-0.021-0.007-0.041-0.01-0.063c-0.003-0.014-0.006-0.027-0.008-0.042c-0.004-0.02-0.009-0.04-0.013-0.062
						c-0.003-0.015-0.006-0.031-0.009-0.047c-0.004-0.013-0.007-0.027-0.011-0.041c-0.003-0.018-0.008-0.035-0.013-0.054
						c-0.003-0.012-0.007-0.026-0.01-0.039c-0.006-0.021-0.012-0.042-0.019-0.065c-0.002-0.007-0.005-0.016-0.006-0.023
						c-0.009-0.029-0.019-0.059-0.028-0.087c-0.015-0.043-0.031-0.086-0.047-0.129c-0.003-0.01-0.008-0.021-0.012-0.032
						c-0.015-0.035-0.029-0.071-0.045-0.107c-0.001-0.005-0.004-0.012-0.007-0.017c-0.017-0.039-0.035-0.08-0.054-0.119
						c-0.006-0.01-0.011-0.021-0.015-0.03c-0.017-0.033-0.031-0.063-0.048-0.094c-0.006-0.009-0.01-0.019-0.016-0.028
						c-0.021-0.039-0.041-0.077-0.063-0.116c-0.004-0.007-0.009-0.014-0.013-0.021c-0.02-0.033-0.039-0.065-0.06-0.098
						c-0.007-0.009-0.012-0.02-0.018-0.029c-0.026-0.04-0.052-0.079-0.079-0.116c-0.004-0.007-0.008-0.012-0.012-0.018
						c-0.028-0.041-0.058-0.08-0.087-0.118c-0.004-0.005-0.009-0.011-0.013-0.018c-0.01-0.011-0.019-0.023-0.028-0.034
						c-0.011-0.016-0.022-0.03-0.035-0.043c-0.009-0.012-0.019-0.024-0.028-0.035c-0.013-0.014-0.023-0.027-0.035-0.04
						c-0.023-0.028-0.048-0.055-0.073-0.081c-0.001-0.001-0.002-0.003-0.002-0.003c-0.027-0.029-0.054-0.056-0.079-0.083
						c-0.018-0.016-0.035-0.032-0.053-0.048c-0.004-0.005-0.009-0.01-0.014-0.015c-0.022-0.021-0.045-0.042-0.068-0.061
						c-0.006-0.005-0.012-0.01-0.019-0.016c-0.017-0.016-0.034-0.03-0.051-0.042c-0.009-0.009-0.017-0.014-0.025-0.021
						c-0.016-0.011-0.03-0.024-0.047-0.036c-0.008-0.006-0.017-0.013-0.026-0.02c-0.017-0.011-0.03-0.024-0.046-0.033
						c-0.009-0.007-0.019-0.014-0.027-0.02c-0.016-0.012-0.033-0.023-0.05-0.032c-0.008-0.007-0.016-0.011-0.022-0.016
						c-0.025-0.017-0.05-0.032-0.074-0.045c-0.024-0.014-0.048-0.027-0.072-0.039c-0.006-0.003-0.013-0.007-0.019-0.009
						c-0.021-0.011-0.043-0.021-0.062-0.031c-0.004-0.002-0.007-0.002-0.009-0.004c-0.023-0.01-0.046-0.021-0.07-0.03
						c-0.004-0.002-0.01-0.003-0.013-0.005c-0.023-0.009-0.046-0.018-0.068-0.025c-0.002-0.001-0.004-0.002-0.006-0.003
						c-0.022-0.006-0.043-0.013-0.064-0.02c0,0-0.006,0-0.01-0.002c-0.017-0.005-0.033-0.008-0.05-0.013
						c-0.008-0.002-0.015-0.002-0.022-0.004c-0.023-0.006-0.047-0.01-0.07-0.014h-0.003c-0.021-0.002-0.04-0.005-0.062-0.007
						c-0.008-0.001-0.014-0.001-0.021-0.001c-0.015-0.001-0.029-0.002-0.045-0.003c-0.006,0-0.013,0-0.02,0c-0.016,0-0.03,0-0.045,0
						c-0.006,0.001-0.011,0.001-0.017,0.001c-0.019,0.001-0.039,0.002-0.058,0.005c-0.004,0.001-0.008,0.002-0.012,0.002
						c-0.016,0.002-0.03,0.004-0.046,0.007c-0.005,0.002-0.011,0.003-0.015,0.003c-0.019,0.004-0.035,0.009-0.052,0.012
						l-0.003,0.002c-0.018,0.004-0.035,0.01-0.053,0.017c-0.004,0.002-0.009,0.003-0.014,0.004
						c-0.014,0.007-0.026,0.012-0.041,0.018c-0.002,0.002-0.006,0.004-0.006,0.004c-0.021,0.01-0.039,0.02-0.056,0.029
						c0.426-0.247,29.181-16.504,29.659-16.624c0.711-0.176,1.325,0.43,1.703,0.95c0.215,0.297,0.419,0.631,0.541,0.979
						c0.2,0.568,0.354,1.551-0.281,1.921l-29.435,16.537c0.276-0.161,0.448-0.502,0.45-0.99c0-0.028-0.001-0.055-0.002-0.085
						C284.429,114.171,284.428,114.162,284.428,114.154z"/>
					<g>
						<path fill="#231F20" d="M282.893,111.601c-0.854-0.493-1.547-0.097-1.55,0.882c-0.002,0.98,0.687,2.173,1.539,2.665
							c0.853,0.493,1.546,0.098,1.549-0.882C284.433,113.286,283.744,112.093,282.893,111.601z"/>
					</g>
				</g>
			</g>
			<g>
				<polygon fill="#FF8591" points="295.037,96.467 320.614,111.342 310.83,116.992 285.252,102.117 				"/>
				<polygon fill="#FF434C" points="310.83,116.992 310.838,119.548 285.259,104.672 285.252,102.117 				"/>
				<polygon fill="#898989" points="320.614,111.342 320.622,113.896 310.838,119.548 310.83,116.992 				"/>
			</g>
			<g>
				<g>
					<polygon fill="#FF434C" points="286.917,112.817 301.608,121.354 326.828,106.794 312.137,98.257 					"/>
				</g>
				<g>
					<polygon fill="#B22F3B" points="286.917,112.817 286.929,116.65 301.618,125.188 301.608,121.354 					"/>
				</g>
				<g>
					<polygon fill="#231F20" points="301.608,121.354 301.618,125.188 326.839,110.627 326.828,106.794 					"/>
				</g>
			</g>
			<g>
				<g enable-background="new    ">
					<g>
						<polygon fill="#B22F3B" points="339.021,113.842 339.04,115.911 347.814,110.846 347.796,108.776 						"/>
					</g>
					<g>
						<polygon fill="#808080" points="339.002,117.342 339.02,119.412 339.04,115.911 339.021,113.842 						"/>
					</g>
					<g>
						<polygon fill="#FF8591" points="316.358,112.878 331.496,121.676 339.002,117.342 339.021,113.842 347.796,108.776 
							335.67,101.729 						"/>
					</g>
					<g>
						<polygon fill="#C5C5C5" points="316.358,112.878 316.376,114.948 331.514,123.745 331.496,121.676 						"/>
					</g>
					<g>
						<polygon fill="#898989" points="331.496,121.676 331.514,123.745 339.02,119.412 339.002,117.342 						"/>
					</g>
				</g>
				<g enable-background="new    ">
					<g>
						<polygon fill="#FF434C" points="311.71,129.609 311.729,131.679 317.771,131.679 317.753,129.609 						"/>
					</g>
					<g>
						<polygon fill="#B22F3B" points="317.753,129.609 317.771,131.679 325.278,127.346 325.26,125.276 						"/>
					</g>
					<g>
						<polygon fill="#FF8591" points="290.812,127.628 302.938,134.675 311.71,129.609 317.753,129.609 325.26,125.276 
							310.122,116.479 						"/>
					</g>
					<g>
						<polygon fill="#C5C5C5" points="290.812,127.628 290.83,129.697 302.955,136.743 302.938,134.675 						"/>
					</g>
					<g>
						<polygon fill="#B22F3B" points="302.938,134.675 302.955,136.743 311.729,131.679 311.71,129.609 						"/>
					</g>
				</g>
			</g>
			<g>
				<g>
					<polygon fill="#268C8C" points="326.353,104.072 320.604,107.412 304.076,96.489 312.034,91.864 					"/>
				</g>
				<g>
					<polygon fill="#87071D" points="326.353,104.072 326.335,106.52 320.586,109.862 320.604,107.412 					"/>
				</g>
				<g>
					<polygon fill="#0E6569" points="320.604,107.412 320.586,109.862 304.059,102.878 304.076,96.489 					"/>
				</g>
			</g>
			<g>
				<g>
					<path fill="#1C2433" d="M358.969,127.879c-0.003-0.072-0.007-0.145-0.014-0.217c-0.002-0.038-0.005-0.076-0.009-0.113
						c-0.006-0.072-0.014-0.144-0.021-0.217c-0.005-0.034-0.008-0.069-0.013-0.104c-0.005-0.051-0.014-0.102-0.02-0.152
						c-0.012-0.076-0.022-0.152-0.035-0.227c-0.009-0.052-0.019-0.104-0.026-0.155c-0.014-0.072-0.027-0.146-0.043-0.22
						c-0.013-0.059-0.025-0.118-0.037-0.176c-0.012-0.051-0.023-0.099-0.034-0.148c-0.018-0.064-0.032-0.129-0.049-0.194
						c-0.013-0.048-0.023-0.097-0.038-0.146c-0.021-0.077-0.043-0.155-0.066-0.234c-0.008-0.028-0.018-0.057-0.025-0.086
						c-0.033-0.106-0.066-0.214-0.102-0.319c-0.053-0.157-0.109-0.313-0.168-0.47c-0.015-0.039-0.03-0.079-0.046-0.118
						c-0.053-0.131-0.106-0.265-0.162-0.395c-0.009-0.02-0.017-0.041-0.024-0.061c-0.064-0.146-0.131-0.29-0.199-0.434
						c-0.019-0.038-0.037-0.075-0.055-0.113c-0.057-0.115-0.112-0.227-0.171-0.339c-0.02-0.035-0.037-0.069-0.056-0.104
						c-0.076-0.141-0.153-0.281-0.233-0.418c-0.016-0.027-0.031-0.053-0.046-0.079c-0.071-0.12-0.145-0.241-0.219-0.358
						c-0.022-0.035-0.045-0.07-0.066-0.104c-0.093-0.145-0.188-0.286-0.285-0.427c-0.015-0.02-0.03-0.042-0.045-0.062
						c-0.103-0.145-0.207-0.287-0.314-0.426c-0.017-0.021-0.031-0.043-0.048-0.064c-0.033-0.043-0.068-0.085-0.103-0.128
						c-0.044-0.053-0.087-0.107-0.129-0.159c-0.035-0.043-0.071-0.085-0.107-0.127c-0.042-0.049-0.083-0.098-0.126-0.147
						c-0.087-0.1-0.176-0.198-0.265-0.294c-0.006-0.005-0.01-0.01-0.015-0.015c-0.095-0.101-0.191-0.199-0.287-0.296
						c-0.063-0.061-0.126-0.122-0.188-0.181c-0.017-0.016-0.034-0.032-0.051-0.049c-0.081-0.077-0.166-0.152-0.25-0.226
						c-0.021-0.019-0.044-0.038-0.066-0.057c-0.063-0.054-0.125-0.105-0.187-0.157c-0.031-0.026-0.063-0.05-0.093-0.075
						c-0.056-0.044-0.111-0.088-0.169-0.131c-0.032-0.025-0.065-0.051-0.1-0.075c-0.056-0.041-0.11-0.083-0.167-0.12
						c-0.033-0.024-0.066-0.047-0.1-0.071c-0.06-0.042-0.122-0.081-0.182-0.121c-0.028-0.019-0.058-0.038-0.086-0.057
						c-0.09-0.056-0.18-0.111-0.271-0.164c-0.087-0.05-0.174-0.097-0.259-0.143c-0.023-0.011-0.047-0.023-0.068-0.035
						c-0.076-0.039-0.154-0.077-0.229-0.112c-0.01-0.004-0.019-0.009-0.03-0.014c-0.085-0.039-0.169-0.075-0.253-0.11
						c-0.017-0.006-0.034-0.013-0.051-0.019c-0.083-0.034-0.164-0.064-0.246-0.092c-0.009-0.003-0.019-0.004-0.025-0.007
						c-0.078-0.027-0.155-0.05-0.23-0.071c-0.014-0.005-0.025-0.009-0.037-0.012c-0.063-0.017-0.123-0.03-0.185-0.045
						c-0.026-0.005-0.055-0.013-0.081-0.02c-0.085-0.018-0.171-0.034-0.254-0.047c-0.004-0.001-0.007-0.001-0.007-0.001
						c-0.08-0.012-0.156-0.021-0.232-0.028c-0.025-0.003-0.05-0.003-0.075-0.006c-0.054-0.003-0.108-0.007-0.161-0.008
						c-0.025-0.001-0.048-0.002-0.072-0.002c-0.056,0-0.111,0-0.167,0.003c-0.019,0-0.038,0-0.056,0.002
						c-0.072,0.004-0.143,0.01-0.212,0.02c-0.016,0-0.028,0.003-0.043,0.006c-0.058,0.007-0.113,0.017-0.168,0.026
						c-0.019,0.004-0.038,0.008-0.057,0.011c-0.063,0.015-0.125,0.029-0.187,0.046c-0.003,0.002-0.008,0.002-0.011,0.004
						c-0.065,0.019-0.128,0.04-0.191,0.063c-0.018,0.006-0.034,0.013-0.051,0.02c-0.05,0.02-0.1,0.041-0.148,0.063
						c-0.014,0.007-0.026,0.012-0.039,0.019c-0.063,0.03-0.125,0.062-0.187,0.098l4.151-2.412c0.01-0.007,0.02-0.012,0.03-0.018
						c0.051-0.029,0.104-0.056,0.155-0.081c0.013-0.005,0.026-0.011,0.039-0.019c0.029-0.013,0.059-0.026,0.089-0.04
						c0.02-0.008,0.04-0.015,0.059-0.023c0.019-0.006,0.034-0.013,0.053-0.019c0.061-0.023,0.123-0.045,0.187-0.063h0.003
						c0.005-0.002,0.008-0.002,0.012-0.003c0.062-0.018,0.124-0.033,0.188-0.047c0.019-0.003,0.037-0.007,0.056-0.01
						c0.02-0.004,0.038-0.008,0.058-0.012c0.037-0.007,0.073-0.011,0.11-0.016c0.013-0.002,0.028-0.004,0.043-0.006
						c0.063-0.007,0.126-0.014,0.188-0.017c0.008-0.001,0.015-0.001,0.022-0.002c0.019-0.002,0.039-0.002,0.058-0.002
						c0.055-0.003,0.11-0.003,0.166-0.003c0.023,0,0.048,0,0.072,0.001c0.019,0.001,0.035,0.001,0.055,0.002
						c0.035,0.001,0.071,0.005,0.106,0.007c0.026,0.002,0.05,0.004,0.076,0.006c0.075,0.007,0.15,0.017,0.228,0.027
						c0,0,0.007,0.001,0.009,0.002h0.002c0.084,0.013,0.169,0.029,0.254,0.048c0.027,0.006,0.055,0.012,0.081,0.02
						c0.054,0.013,0.105,0.024,0.161,0.039c0.004,0.001,0.011,0.003,0.017,0.004c0.101,0.028,0.2,0.058,0.304,0.093
						c0.02,0.008,0.041,0.016,0.062,0.023c0.083,0.029,0.165,0.06,0.249,0.094c0.012,0.006,0.022,0.008,0.034,0.013
						c0.066,0.028,0.134,0.058,0.203,0.089c0.009,0.005,0.019,0.009,0.026,0.015c0.078,0.034,0.153,0.072,0.231,0.112
						c0.023,0.011,0.044,0.023,0.066,0.034c0.087,0.046,0.173,0.092,0.262,0.143c0.09,0.053,0.181,0.107,0.27,0.164
						c0.03,0.02,0.058,0.039,0.086,0.057c0.063,0.04,0.122,0.08,0.183,0.121c0.033,0.023,0.066,0.047,0.1,0.07
						c0.056,0.039,0.111,0.08,0.167,0.121c0.033,0.025,0.066,0.05,0.102,0.076c0.056,0.042,0.109,0.086,0.165,0.13
						c0.031,0.025,0.063,0.05,0.095,0.075c0.062,0.052,0.124,0.104,0.185,0.156c0.023,0.02,0.047,0.039,0.069,0.058
						c0.084,0.075,0.167,0.149,0.249,0.227c0.017,0.016,0.034,0.033,0.051,0.048c0.056,0.053,0.108,0.104,0.163,0.157
						c0.009,0.008,0.017,0.017,0.023,0.024c0.099,0.097,0.194,0.194,0.289,0.295c0.005,0.005,0.009,0.01,0.013,0.015
						c0.091,0.096,0.18,0.194,0.267,0.294c0.008,0.009,0.017,0.019,0.024,0.028c0.035,0.04,0.068,0.081,0.102,0.12
						c0.037,0.042,0.072,0.084,0.107,0.127c0.043,0.053,0.086,0.106,0.128,0.159c0.035,0.042,0.069,0.085,0.103,0.127
						c0.007,0.009,0.012,0.017,0.018,0.024c0.013,0.014,0.021,0.028,0.031,0.042c0.107,0.138,0.212,0.28,0.314,0.426
						c0.011,0.014,0.021,0.027,0.03,0.042c0.006,0.006,0.009,0.014,0.015,0.02c0.097,0.141,0.192,0.282,0.285,0.427
						c0.009,0.015,0.019,0.027,0.027,0.042c0.014,0.021,0.025,0.042,0.039,0.063c0.074,0.118,0.146,0.237,0.217,0.357
						c0.013,0.02,0.024,0.037,0.035,0.056c0.004,0.007,0.008,0.015,0.012,0.022c0.081,0.137,0.158,0.278,0.234,0.418
						c0.007,0.012,0.012,0.023,0.019,0.034c0.012,0.023,0.023,0.047,0.035,0.069c0.06,0.113,0.117,0.226,0.172,0.341
						c0.012,0.023,0.024,0.046,0.035,0.07c0.008,0.013,0.014,0.028,0.021,0.042c0.068,0.144,0.136,0.288,0.198,0.434
						c0.003,0.004,0.004,0.009,0.006,0.013c0.007,0.015,0.013,0.031,0.02,0.047c0.057,0.131,0.111,0.263,0.162,0.395
						c0.008,0.022,0.018,0.042,0.025,0.064c0.013,0.034,0.025,0.068,0.037,0.102c0.013,0.034,0.026,0.067,0.039,0.1
						c0.031,0.088,0.063,0.176,0.093,0.265c0.005,0.019,0.013,0.035,0.019,0.053c0.002,0.006,0.002,0.009,0.003,0.014
						c0.035,0.104,0.069,0.207,0.101,0.31c0.008,0.03,0.016,0.058,0.023,0.088c0.019,0.059,0.035,0.118,0.053,0.176
						c0.005,0.02,0.01,0.039,0.015,0.058c0.013,0.049,0.025,0.096,0.038,0.145c0.017,0.065,0.033,0.129,0.049,0.194
						c0.011,0.05,0.021,0.099,0.033,0.148c0.008,0.034,0.017,0.068,0.024,0.104c0.003,0.024,0.008,0.048,0.013,0.073
						c0.016,0.073,0.029,0.146,0.042,0.221c0.01,0.051,0.021,0.102,0.028,0.153c0.013,0.076,0.023,0.151,0.033,0.229
						c0.007,0.036,0.012,0.071,0.017,0.106c0.002,0.015,0.004,0.029,0.007,0.045c0.004,0.034,0.007,0.069,0.012,0.104
						c0.008,0.073,0.015,0.145,0.021,0.218c0.003,0.036,0.006,0.075,0.009,0.112c0.006,0.072,0.009,0.145,0.014,0.217
						c0.001,0.033,0.003,0.065,0.004,0.098c0.004,0.104,0.007,0.207,0.006,0.311c-0.004,1.778-0.633,3.028-1.644,3.617l-4.151,2.411
						c1.013-0.589,1.641-1.838,1.645-3.616c0.002-0.103-0.001-0.207-0.006-0.31C358.974,127.944,358.972,127.911,358.969,127.879z"
						/>
					<g>
						<path fill="#30394F" d="M353.358,118.551c-3.113-1.799-5.647-0.354-5.657,3.224c-0.01,3.58,2.507,7.937,5.621,9.735
							c3.113,1.8,5.647,0.355,5.657-3.223C358.99,124.708,356.475,120.349,353.358,118.551z"/>
					</g>
				</g>
				<g>
					<path fill="#30394F" d="M332.942,138.166c0-0.02-0.002-0.04-0.003-0.059c-0.001-0.011-0.001-0.021-0.003-0.032
						c-0.001-0.02-0.003-0.038-0.005-0.058c-0.002-0.012-0.004-0.021-0.004-0.03c-0.002-0.014-0.004-0.026-0.006-0.041
						c-0.003-0.021-0.005-0.041-0.009-0.063c-0.003-0.015-0.006-0.027-0.008-0.041c-0.005-0.021-0.008-0.041-0.013-0.061
						c-0.003-0.017-0.006-0.032-0.01-0.048c-0.003-0.015-0.006-0.027-0.009-0.042c-0.004-0.018-0.009-0.035-0.013-0.053
						c-0.004-0.013-0.008-0.026-0.012-0.04c-0.005-0.021-0.011-0.043-0.018-0.063c-0.002-0.008-0.005-0.017-0.006-0.024
						c-0.01-0.029-0.019-0.059-0.028-0.088c-0.016-0.044-0.031-0.086-0.046-0.13c-0.004-0.009-0.01-0.021-0.013-0.03
						c-0.016-0.037-0.03-0.073-0.045-0.108c-0.002-0.007-0.004-0.011-0.007-0.018c-0.018-0.039-0.035-0.078-0.055-0.118
						c-0.005-0.01-0.01-0.021-0.015-0.031c-0.016-0.031-0.031-0.062-0.048-0.092c-0.005-0.01-0.009-0.02-0.015-0.029
						c-0.021-0.038-0.041-0.076-0.063-0.114c-0.005-0.007-0.009-0.014-0.013-0.021c-0.021-0.033-0.04-0.065-0.061-0.098
						c-0.006-0.01-0.012-0.02-0.018-0.029c-0.025-0.039-0.052-0.078-0.078-0.115c-0.005-0.007-0.009-0.013-0.012-0.018
						c-0.028-0.04-0.057-0.08-0.085-0.117c-0.006-0.006-0.01-0.012-0.015-0.018c-0.01-0.012-0.02-0.023-0.028-0.035
						c-0.012-0.015-0.022-0.029-0.035-0.043c-0.01-0.013-0.02-0.023-0.029-0.035c-0.012-0.014-0.022-0.027-0.034-0.04
						c-0.023-0.028-0.049-0.055-0.072-0.081l-0.004-0.004c-0.026-0.027-0.053-0.054-0.079-0.082
						c-0.017-0.016-0.034-0.032-0.052-0.049c-0.005-0.004-0.009-0.009-0.013-0.013c-0.023-0.021-0.047-0.042-0.069-0.063
						c-0.005-0.005-0.013-0.01-0.019-0.016c-0.017-0.014-0.034-0.029-0.051-0.043c-0.01-0.007-0.017-0.013-0.025-0.02
						c-0.016-0.013-0.03-0.025-0.046-0.036c-0.01-0.008-0.019-0.015-0.027-0.021c-0.015-0.013-0.031-0.022-0.046-0.033
						c-0.01-0.007-0.019-0.014-0.027-0.02c-0.018-0.012-0.033-0.021-0.05-0.032c-0.007-0.006-0.016-0.012-0.023-0.016
						c-0.023-0.017-0.05-0.031-0.073-0.046c-0.024-0.013-0.049-0.026-0.072-0.039c-0.006-0.004-0.013-0.005-0.019-0.009
						c-0.021-0.012-0.042-0.021-0.063-0.031l-0.008-0.003c-0.022-0.012-0.047-0.021-0.069-0.031
						c-0.005-0.001-0.01-0.002-0.015-0.005c-0.021-0.009-0.044-0.017-0.066-0.024c0,0-0.006-0.003-0.009-0.004
						c-0.021-0.006-0.041-0.013-0.062-0.019c-0.004-0.001-0.008-0.002-0.008-0.002c-0.02-0.005-0.036-0.009-0.053-0.013
						c-0.008-0.002-0.016-0.005-0.022-0.006c-0.024-0.005-0.047-0.011-0.07-0.014c0,0-0.001,0-0.002,0
						c-0.021-0.004-0.043-0.006-0.063-0.007c-0.006-0.001-0.013-0.001-0.021-0.001c-0.015-0.002-0.029-0.003-0.044-0.004
						c-0.006,0-0.013,0-0.02,0c-0.016,0-0.03,0-0.045,0.001c-0.006,0-0.012,0-0.015,0.001c-0.021,0.001-0.04,0.002-0.06,0.004
						c-0.004,0.001-0.009,0.001-0.013,0.002c-0.016,0.002-0.03,0.005-0.045,0.007c-0.006,0.002-0.011,0.003-0.015,0.004
						c-0.018,0.004-0.035,0.008-0.052,0.013c0,0-0.002,0-0.004,0.001c-0.017,0.006-0.033,0.01-0.052,0.017
						c-0.004,0.002-0.01,0.005-0.013,0.006c-0.016,0.005-0.028,0.011-0.041,0.019c0,0-0.008,0.002-0.011,0.004
						c-0.018,0.008-0.034,0.018-0.051,0.026c0.425-0.247,21.466-12.208,21.944-12.326c0.71-0.176,1.324,0.429,1.703,0.95
						c0.215,0.297,0.417,0.63,0.54,0.979c0.199,0.568,0.354,1.552-0.281,1.92l-21.721,12.24c0.278-0.161,0.449-0.504,0.451-0.99
						c0-0.027-0.001-0.057-0.002-0.085C332.944,138.184,332.943,138.175,332.942,138.166z"/>
					<g>
						<path fill="#231F20" d="M331.408,135.612c-0.854-0.492-1.547-0.097-1.55,0.882c-0.002,0.981,0.687,2.174,1.538,2.665
							c0.854,0.493,1.547,0.099,1.55-0.882C332.948,137.298,332.26,136.104,331.408,135.612z"/>
					</g>
				</g>
			</g>
			<g>
				<polygon fill="#FF434C" points="335.032,119.651 357.967,132.979 348.181,138.629 325.246,125.301 				"/>
				<polygon fill="#B22F3B" points="348.181,138.629 348.188,141.185 325.254,127.857 325.246,125.301 				"/>
				<polygon fill="#898989" points="357.967,132.979 357.974,135.534 348.188,141.185 348.181,138.629 				"/>
			</g>
			<g>
				<polygon fill="#FF8591" points="317.018,106.531 335.055,117.096 325.269,122.746 307.23,112.182 				"/>
				<polygon fill="#FF434C" points="325.269,122.746 325.276,125.301 307.237,114.737 307.23,112.182 				"/>
				<polygon fill="#231F20" points="335.055,117.096 335.062,119.651 325.276,125.301 325.269,122.746 				"/>
			</g>
			<g>
				<path fill="#1C2433" d="M330.273,144.6c-0.004-0.072-0.009-0.145-0.015-0.218c-0.003-0.037-0.006-0.075-0.008-0.111
					c-0.008-0.073-0.015-0.144-0.022-0.217c-0.005-0.035-0.008-0.069-0.012-0.104c-0.007-0.051-0.016-0.102-0.021-0.152
					c-0.012-0.076-0.022-0.15-0.034-0.228c-0.01-0.051-0.019-0.102-0.028-0.153c-0.013-0.072-0.026-0.146-0.041-0.221
					c-0.014-0.059-0.025-0.117-0.038-0.176c-0.013-0.049-0.023-0.099-0.034-0.148c-0.015-0.063-0.031-0.128-0.049-0.193
					c-0.013-0.048-0.023-0.097-0.037-0.146c-0.021-0.077-0.044-0.156-0.067-0.233c-0.008-0.029-0.016-0.058-0.024-0.088
					c-0.032-0.106-0.066-0.214-0.102-0.319c-0.053-0.157-0.109-0.313-0.169-0.47c-0.015-0.039-0.029-0.079-0.046-0.117
					c-0.052-0.133-0.105-0.265-0.161-0.396c-0.009-0.02-0.017-0.04-0.025-0.06c-0.063-0.146-0.131-0.29-0.199-0.434
					c-0.018-0.038-0.037-0.075-0.056-0.113c-0.055-0.114-0.112-0.226-0.172-0.339c-0.017-0.035-0.035-0.07-0.054-0.104
					c-0.076-0.141-0.152-0.28-0.233-0.419c-0.015-0.025-0.03-0.053-0.046-0.078c-0.071-0.12-0.145-0.24-0.219-0.357
					c-0.022-0.034-0.044-0.07-0.066-0.104c-0.093-0.144-0.188-0.285-0.285-0.426c-0.015-0.021-0.029-0.043-0.046-0.063
					c-0.102-0.144-0.206-0.286-0.313-0.426c-0.017-0.021-0.031-0.042-0.048-0.063c-0.033-0.044-0.068-0.086-0.103-0.129
					c-0.044-0.054-0.085-0.107-0.129-0.159c-0.035-0.042-0.071-0.084-0.107-0.127c-0.041-0.049-0.083-0.099-0.126-0.146
					c-0.087-0.101-0.176-0.197-0.265-0.295c-0.006-0.004-0.01-0.01-0.015-0.015c-0.095-0.101-0.19-0.2-0.289-0.295
					c-0.061-0.062-0.123-0.121-0.186-0.182c-0.018-0.016-0.034-0.032-0.052-0.048c-0.083-0.077-0.164-0.152-0.249-0.227
					c-0.022-0.02-0.045-0.038-0.068-0.058c-0.062-0.054-0.123-0.105-0.186-0.157c-0.031-0.024-0.063-0.051-0.093-0.074
					c-0.057-0.044-0.112-0.088-0.168-0.131c-0.033-0.026-0.066-0.05-0.101-0.076c-0.056-0.04-0.11-0.081-0.166-0.121
					c-0.034-0.023-0.067-0.046-0.101-0.069c-0.06-0.042-0.12-0.081-0.183-0.121c-0.027-0.018-0.056-0.037-0.086-0.056
					c-0.09-0.057-0.18-0.112-0.27-0.165c-0.088-0.051-0.174-0.097-0.261-0.143c-0.022-0.011-0.044-0.022-0.067-0.034
					c-0.077-0.04-0.153-0.077-0.229-0.112c-0.01-0.004-0.021-0.01-0.028-0.015c-0.087-0.038-0.172-0.074-0.255-0.109
					c-0.017-0.006-0.033-0.013-0.05-0.02c-0.084-0.033-0.165-0.063-0.246-0.092c-0.009-0.003-0.018-0.005-0.026-0.008
					c-0.078-0.025-0.153-0.05-0.231-0.072c-0.011-0.003-0.024-0.007-0.037-0.01c-0.061-0.018-0.122-0.031-0.183-0.047
					c-0.026-0.005-0.055-0.014-0.082-0.019c-0.085-0.019-0.17-0.035-0.255-0.048c-0.002-0.001-0.006-0.001-0.009-0.001
					c-0.078-0.012-0.153-0.021-0.229-0.028c-0.026-0.001-0.05-0.003-0.076-0.005c-0.054-0.004-0.107-0.007-0.162-0.008
					c-0.023-0.001-0.047-0.002-0.071-0.003c-0.057-0.001-0.111,0.001-0.166,0.004c-0.019,0-0.038,0.001-0.058,0.002
					c-0.07,0.003-0.141,0.01-0.21,0.018c-0.015,0.002-0.03,0.005-0.044,0.007c-0.057,0.008-0.113,0.017-0.169,0.027
					c-0.018,0.004-0.035,0.007-0.055,0.012c-0.063,0.014-0.126,0.028-0.188,0.046c-0.004,0.001-0.007,0.002-0.011,0.002
					c-0.065,0.019-0.129,0.042-0.19,0.065c-0.018,0.004-0.034,0.012-0.051,0.019c-0.051,0.02-0.1,0.041-0.149,0.063
					c-0.013,0.006-0.026,0.011-0.039,0.017c-0.063,0.031-0.126,0.063-0.186,0.099l4.15-2.411c0.01-0.007,0.021-0.012,0.03-0.018
					c0.052-0.029,0.103-0.057,0.155-0.081c0.013-0.007,0.026-0.012,0.039-0.018c0.029-0.014,0.06-0.028,0.09-0.04
					c0.02-0.009,0.04-0.016,0.06-0.023c0.017-0.006,0.034-0.014,0.051-0.021c0.061-0.021,0.123-0.043,0.187-0.063
					c0,0,0.002,0,0.003,0c0.005,0,0.009-0.002,0.013-0.003c0.061-0.018,0.122-0.032,0.187-0.046
					c0.019-0.004,0.037-0.008,0.056-0.011c0.021-0.005,0.04-0.008,0.059-0.013c0.036-0.006,0.072-0.01,0.108-0.016
					c0.016-0.002,0.03-0.005,0.044-0.006c0.063-0.008,0.126-0.015,0.188-0.019c0.008,0,0.015,0,0.022,0
					c0.02-0.002,0.038-0.002,0.058-0.003c0.056-0.002,0.111-0.003,0.166-0.002c0.024,0,0.048,0,0.071,0.001
					c0.019,0,0.037,0,0.057,0.001c0.034,0.002,0.07,0.005,0.105,0.008c0.026,0.002,0.05,0.004,0.076,0.006
					c0.075,0.008,0.149,0.017,0.228,0.027c0.004,0,0.007,0,0.01,0.001h0.001c0.084,0.014,0.169,0.029,0.254,0.048
					c0.027,0.006,0.055,0.014,0.082,0.02c0.054,0.014,0.107,0.024,0.16,0.039c0.006,0.001,0.011,0.003,0.016,0.006
					c0.101,0.026,0.202,0.058,0.306,0.094c0.02,0.007,0.04,0.016,0.061,0.021c0.082,0.03,0.165,0.062,0.249,0.095
					c0.012,0.006,0.022,0.008,0.032,0.014c0.068,0.027,0.137,0.058,0.205,0.089c0.009,0.004,0.019,0.009,0.027,0.013
					c0.077,0.035,0.154,0.074,0.23,0.112c0.022,0.012,0.046,0.024,0.067,0.035c0.087,0.047,0.174,0.093,0.261,0.143
					c0.091,0.053,0.182,0.108,0.271,0.166c0.029,0.018,0.057,0.036,0.087,0.056c0.06,0.038,0.12,0.079,0.181,0.121
					c0.034,0.022,0.067,0.046,0.101,0.069c0.056,0.039,0.111,0.079,0.166,0.12c0.033,0.025,0.067,0.051,0.101,0.076
					c0.057,0.042,0.111,0.087,0.166,0.13c0.032,0.025,0.063,0.05,0.094,0.076c0.063,0.05,0.125,0.103,0.188,0.155
					c0.022,0.021,0.045,0.04,0.067,0.059c0.084,0.074,0.167,0.149,0.25,0.226c0.017,0.017,0.033,0.033,0.05,0.05
					c0.056,0.052,0.11,0.104,0.165,0.156c0.007,0.008,0.015,0.018,0.022,0.024c0.098,0.096,0.193,0.194,0.288,0.295
					c0.006,0.005,0.01,0.011,0.015,0.016c0.089,0.097,0.178,0.193,0.265,0.293c0.009,0.01,0.017,0.018,0.025,0.028
					c0.034,0.04,0.067,0.08,0.101,0.12c0.036,0.042,0.072,0.083,0.107,0.126c0.043,0.053,0.086,0.106,0.128,0.159
					c0.034,0.044,0.068,0.085,0.103,0.129c0.007,0.007,0.013,0.016,0.02,0.023c0.01,0.014,0.021,0.027,0.029,0.04
					c0.107,0.14,0.212,0.281,0.315,0.426c0.009,0.015,0.021,0.029,0.03,0.043c0.005,0.007,0.009,0.014,0.013,0.021
					c0.098,0.141,0.193,0.283,0.286,0.427c0.01,0.013,0.019,0.026,0.027,0.039c0.014,0.021,0.026,0.043,0.038,0.064
					c0.075,0.117,0.147,0.237,0.22,0.358c0.011,0.019,0.022,0.036,0.033,0.055c0.005,0.008,0.009,0.015,0.013,0.022
					c0.08,0.138,0.158,0.279,0.233,0.42c0.006,0.011,0.014,0.021,0.019,0.033c0.014,0.022,0.024,0.048,0.036,0.07
					c0.059,0.112,0.116,0.226,0.173,0.34c0.012,0.022,0.022,0.046,0.034,0.069c0.007,0.015,0.013,0.028,0.021,0.042
					c0.068,0.145,0.135,0.289,0.198,0.435c0.001,0.005,0.004,0.009,0.006,0.013c0.007,0.016,0.012,0.03,0.02,0.048
					c0.056,0.13,0.109,0.263,0.161,0.395c0.009,0.021,0.019,0.042,0.025,0.063c0.014,0.034,0.026,0.068,0.038,0.102
					c0.013,0.034,0.025,0.066,0.036,0.1c0.033,0.088,0.064,0.177,0.095,0.266c0.007,0.018,0.012,0.034,0.019,0.052
					c0.001,0.005,0.004,0.01,0.005,0.015c0.034,0.104,0.066,0.206,0.099,0.31c0.008,0.03,0.017,0.06,0.025,0.089
					c0.017,0.059,0.034,0.118,0.051,0.176c0.005,0.02,0.009,0.037,0.015,0.057c0.013,0.049,0.025,0.098,0.039,0.146
					c0.017,0.065,0.032,0.13,0.048,0.193c0.011,0.051,0.022,0.1,0.033,0.148c0.008,0.035,0.017,0.069,0.024,0.104
					c0.005,0.025,0.009,0.049,0.013,0.073c0.017,0.074,0.029,0.147,0.044,0.221c0.009,0.051,0.019,0.103,0.026,0.153
					c0.013,0.075,0.024,0.151,0.034,0.227c0.006,0.036,0.012,0.072,0.017,0.108c0.002,0.015,0.003,0.028,0.005,0.045
					c0.004,0.033,0.009,0.068,0.013,0.104c0.008,0.072,0.015,0.145,0.021,0.217c0.003,0.037,0.007,0.074,0.008,0.112
					c0.008,0.073,0.012,0.145,0.016,0.218c0.001,0.032,0.002,0.065,0.004,0.098c0.003,0.104,0.006,0.208,0.006,0.311
					c-0.005,1.778-0.632,3.027-1.645,3.616l-4.15,2.412c1.012-0.589,1.64-1.839,1.645-3.616c0-0.103-0.002-0.207-0.006-0.311
					C330.276,144.666,330.273,144.633,330.273,144.6z"/>
				<g>
					<path fill="#30394F" d="M324.662,135.271c-3.114-1.798-5.647-0.354-5.658,3.226c-0.009,3.578,2.507,7.938,5.621,9.734
						c3.114,1.798,5.648,0.355,5.658-3.223C330.293,141.429,327.776,137.071,324.662,135.271z"/>
				</g>
			</g>
			<g>
				<path fill="#414042" d="M317.323,92.202c-0.004-1.157-0.415-1.973-1.075-2.356l-1.104-0.642c0.66,0.384,1.07,1.198,1.074,2.356
					l0.046,16.668l1.105,0.642L317.323,92.202z"/>
				<g>
					<path fill="#054242" d="M313.632,88.695c2.701-1.559,4.904-0.302,4.913,2.801l0.047,16.669l-1.223,0.705l-0.046-16.668
						c-0.008-2.328-1.662-3.272-3.688-2.102l-2.768,1.598c-2.027,1.17-3.671,4.018-3.663,6.347l0.046,16.668l-1.223,0.707
						l-0.047-16.668c-0.01-3.104,2.181-6.899,4.882-8.458L313.632,88.695z"/>
				</g>
				<path fill="#0E6569" d="M314.028,88.485c0.079-0.038,0.155-0.072,0.232-0.106c0.027-0.011,0.056-0.024,0.084-0.035
					c0.07-0.029,0.142-0.056,0.211-0.081c0.021-0.006,0.038-0.015,0.058-0.02c0.088-0.032,0.177-0.06,0.264-0.083
					c0.054-0.014,0.106-0.027,0.158-0.039c0.021-0.006,0.044-0.011,0.066-0.015c0.074-0.017,0.148-0.03,0.221-0.041
					c0.007-0.001,0.013-0.002,0.019-0.004c0.063-0.009,0.126-0.017,0.188-0.022c0.022-0.002,0.044-0.003,0.066-0.005
					c0.04-0.002,0.079-0.004,0.117-0.005c0.098-0.005,0.192-0.004,0.285,0.001c0.016,0.001,0.031,0.002,0.046,0.004
					c0.076,0.006,0.149,0.015,0.223,0.026c0.023,0.005,0.046,0.007,0.067,0.012c0.085,0.015,0.167,0.033,0.247,0.056
					c0,0,0.004,0.001,0.007,0.003c0.078,0.021,0.152,0.049,0.225,0.078c0.021,0.008,0.042,0.018,0.062,0.026
					c0.063,0.027,0.123,0.057,0.183,0.089c0.019,0.01,0.039,0.02,0.059,0.031l-1.104-0.642c-0.01-0.005-0.019-0.011-0.028-0.016
					c-0.01-0.005-0.021-0.01-0.031-0.016c-0.06-0.033-0.12-0.061-0.182-0.088c-0.011-0.006-0.021-0.012-0.033-0.017
					c-0.009-0.005-0.02-0.006-0.028-0.01c-0.073-0.03-0.147-0.057-0.225-0.079c0,0-0.004-0.002-0.006-0.002l-0.002-0.001
					c-0.08-0.023-0.161-0.042-0.245-0.058c-0.01,0-0.019-0.003-0.029-0.006c-0.013-0.002-0.026-0.003-0.039-0.004
					c-0.072-0.011-0.147-0.02-0.223-0.025c-0.012-0.001-0.023-0.004-0.034-0.005c-0.004,0-0.008,0-0.012,0
					c-0.094-0.005-0.188-0.005-0.284-0.003c-0.011,0.001-0.019,0-0.028,0c-0.03,0.001-0.061,0.005-0.091,0.008
					c-0.021,0-0.044,0.001-0.066,0.003c-0.062,0.005-0.124,0.013-0.188,0.022c-0.006,0.001-0.013,0.002-0.019,0.004h-0.003
					c-0.072,0.011-0.145,0.024-0.219,0.04c-0.022,0.005-0.044,0.011-0.065,0.016c-0.049,0.012-0.098,0.023-0.146,0.036
					c-0.005,0.001-0.009,0.003-0.013,0.003c-0.087,0.024-0.176,0.051-0.264,0.082c-0.02,0.007-0.038,0.015-0.059,0.021
					c-0.069,0.026-0.141,0.052-0.211,0.081c-0.01,0.004-0.02,0.007-0.03,0.011c-0.018,0.008-0.035,0.018-0.053,0.025
					c-0.076,0.033-0.154,0.068-0.232,0.105c-0.029,0.014-0.059,0.029-0.088,0.043c-0.104,0.051-0.206,0.106-0.31,0.166l-2.768,1.599
					c-0.079,0.045-0.157,0.094-0.235,0.143c-0.025,0.016-0.05,0.033-0.076,0.049c-0.052,0.033-0.104,0.068-0.155,0.104
					c-0.029,0.02-0.06,0.04-0.087,0.061c-0.048,0.033-0.098,0.069-0.145,0.104c-0.029,0.022-0.059,0.043-0.088,0.066
					c-0.048,0.037-0.096,0.076-0.146,0.114c-0.025,0.022-0.054,0.042-0.079,0.065c-0.056,0.044-0.109,0.091-0.165,0.138
					c-0.019,0.017-0.037,0.032-0.057,0.049c-0.072,0.063-0.145,0.128-0.216,0.195c-0.017,0.016-0.033,0.031-0.049,0.046
					c-0.045,0.043-0.092,0.086-0.136,0.131c-0.008,0.008-0.014,0.015-0.021,0.022c-0.169,0.167-0.334,0.344-0.493,0.525
					c-0.008,0.008-0.014,0.016-0.021,0.024c-0.009,0.009-0.017,0.021-0.026,0.032c-0.124,0.143-0.245,0.29-0.362,0.44
					c-0.003,0.004-0.006,0.007-0.01,0.013c-0.009,0.01-0.017,0.022-0.025,0.033c-0.094,0.121-0.185,0.245-0.274,0.371
					c-0.007,0.012-0.019,0.025-0.026,0.037c-0.005,0.007-0.009,0.013-0.013,0.02c-0.085,0.121-0.168,0.245-0.249,0.37
					c-0.007,0.012-0.016,0.024-0.022,0.035c-0.012,0.018-0.022,0.036-0.033,0.055c-0.066,0.104-0.13,0.208-0.191,0.312
					c-0.01,0.017-0.02,0.032-0.03,0.049c-0.003,0.007-0.007,0.013-0.01,0.019c-0.069,0.122-0.138,0.244-0.204,0.366
					c-0.006,0.01-0.011,0.021-0.017,0.03c-0.01,0.019-0.021,0.041-0.029,0.061c-0.053,0.098-0.103,0.196-0.15,0.297
					c-0.011,0.02-0.021,0.039-0.031,0.061c-0.006,0.011-0.011,0.024-0.017,0.035c-0.06,0.126-0.117,0.251-0.172,0.377
					c-0.003,0.004-0.004,0.008-0.008,0.012c-0.006,0.015-0.01,0.029-0.017,0.043c-0.049,0.113-0.096,0.228-0.14,0.341
					c-0.007,0.02-0.016,0.038-0.022,0.057c-0.007,0.015-0.01,0.031-0.017,0.045c-0.051,0.135-0.101,0.271-0.146,0.407
					c-0.001,0.004-0.003,0.006-0.003,0.01c-0.003,0.009-0.006,0.019-0.009,0.028c-0.046,0.139-0.089,0.279-0.128,0.419
					c-0.006,0.018-0.011,0.034-0.016,0.052c-0.005,0.016-0.009,0.03-0.013,0.047c-0.013,0.043-0.021,0.084-0.032,0.126
					c-0.016,0.057-0.03,0.113-0.043,0.168c-0.01,0.043-0.021,0.086-0.028,0.129c-0.008,0.03-0.016,0.062-0.021,0.091
					c-0.006,0.021-0.009,0.042-0.014,0.062c-0.013,0.064-0.023,0.128-0.035,0.192c-0.009,0.044-0.018,0.089-0.023,0.133
					c-0.012,0.065-0.021,0.13-0.03,0.196c-0.005,0.031-0.011,0.064-0.015,0.094c-0.002,0.008-0.002,0.016-0.002,0.023
					c-0.019,0.142-0.031,0.28-0.042,0.419c-0.002,0.03-0.003,0.06-0.005,0.09c-0.008,0.142-0.014,0.283-0.014,0.423l0.048,16.668
					l1.104,0.643l-0.047-16.668c-0.001-0.14,0.005-0.282,0.013-0.424c0.002-0.03,0.005-0.06,0.006-0.089
					c0.011-0.138,0.023-0.279,0.041-0.419c0.005-0.04,0.012-0.078,0.016-0.117c0.01-0.066,0.02-0.132,0.031-0.197
					c0.006-0.044,0.016-0.089,0.022-0.133c0.013-0.065,0.024-0.128,0.037-0.193c0.012-0.051,0.022-0.102,0.033-0.154
					c0.01-0.042,0.019-0.085,0.029-0.127c0.014-0.057,0.028-0.113,0.042-0.168c0.012-0.042,0.021-0.084,0.033-0.127
					c0.009-0.032,0.02-0.065,0.029-0.098c0.039-0.141,0.081-0.28,0.127-0.42c0.004-0.012,0.008-0.024,0.012-0.037
					c0.046-0.136,0.096-0.271,0.146-0.408c0.013-0.034,0.025-0.068,0.04-0.102c0.044-0.114,0.09-0.229,0.14-0.341
					c0.007-0.018,0.015-0.037,0.022-0.056c0.055-0.126,0.113-0.252,0.174-0.376c0.015-0.033,0.031-0.065,0.046-0.098
					c0.049-0.099,0.099-0.198,0.15-0.296c0.017-0.031,0.031-0.061,0.047-0.09c0.065-0.123,0.134-0.246,0.204-0.365
					c0.014-0.024,0.026-0.045,0.041-0.069c0.062-0.104,0.125-0.209,0.19-0.313c0.019-0.03,0.037-0.061,0.056-0.089
					c0.082-0.125,0.164-0.25,0.249-0.37c0.013-0.02,0.027-0.038,0.04-0.057c0.089-0.126,0.181-0.25,0.274-0.372
					c0.011-0.015,0.023-0.031,0.035-0.046c0.116-0.15,0.238-0.298,0.362-0.44c0.015-0.019,0.03-0.036,0.047-0.056
					c0.079-0.091,0.16-0.181,0.242-0.268v-0.001c0.081-0.086,0.166-0.172,0.25-0.255c0.052-0.052,0.105-0.102,0.157-0.153
					c0.017-0.016,0.033-0.031,0.05-0.047c0.07-0.065,0.143-0.131,0.215-0.195c0.02-0.016,0.039-0.031,0.058-0.048
					c0.054-0.047,0.109-0.094,0.165-0.139c0.025-0.021,0.052-0.043,0.079-0.064c0.048-0.039,0.097-0.077,0.145-0.114
					c0.029-0.021,0.059-0.045,0.087-0.065c0.048-0.036,0.098-0.072,0.146-0.105c0.027-0.021,0.057-0.041,0.085-0.061
					c0.053-0.035,0.105-0.07,0.157-0.104c0.026-0.017,0.05-0.034,0.076-0.05c0.076-0.049,0.155-0.096,0.233-0.143l2.77-1.598
					c0.104-0.06,0.206-0.115,0.309-0.166C313.971,88.514,313.999,88.5,314.028,88.485z"/>
			</g>
			<g>
				<path fill="#1C2433" d="M282.964,119.818c-0.005-0.073-0.009-0.145-0.013-0.218c-0.003-0.037-0.007-0.074-0.011-0.112
					c-0.005-0.071-0.014-0.144-0.021-0.215c-0.004-0.035-0.008-0.07-0.012-0.105c-0.007-0.051-0.015-0.101-0.022-0.152
					c-0.009-0.075-0.02-0.151-0.033-0.227c-0.009-0.051-0.019-0.102-0.027-0.153c-0.014-0.075-0.028-0.148-0.043-0.221
					c-0.012-0.059-0.023-0.118-0.037-0.177c-0.011-0.05-0.021-0.098-0.035-0.147c-0.015-0.066-0.031-0.131-0.047-0.193
					c-0.012-0.05-0.025-0.098-0.038-0.146c-0.021-0.078-0.044-0.156-0.066-0.234c-0.009-0.028-0.017-0.057-0.025-0.087
					c-0.032-0.106-0.065-0.212-0.103-0.319c-0.052-0.156-0.107-0.313-0.169-0.469c-0.014-0.04-0.029-0.079-0.044-0.119
					c-0.052-0.131-0.105-0.264-0.161-0.394c-0.009-0.021-0.019-0.041-0.026-0.061c-0.063-0.146-0.129-0.29-0.198-0.434
					c-0.018-0.038-0.036-0.075-0.055-0.113c-0.056-0.114-0.113-0.227-0.173-0.339c-0.018-0.035-0.035-0.07-0.054-0.103
					c-0.075-0.142-0.153-0.281-0.234-0.42c-0.015-0.026-0.031-0.052-0.046-0.078c-0.071-0.121-0.144-0.24-0.218-0.358
					c-0.022-0.035-0.044-0.07-0.066-0.104c-0.092-0.144-0.188-0.286-0.285-0.426c-0.016-0.021-0.031-0.042-0.045-0.063
					c-0.103-0.145-0.207-0.286-0.313-0.426c-0.018-0.021-0.034-0.043-0.051-0.064c-0.033-0.043-0.067-0.086-0.102-0.128
					c-0.042-0.053-0.085-0.106-0.129-0.158c-0.034-0.043-0.071-0.085-0.106-0.128c-0.042-0.049-0.084-0.098-0.127-0.147
					c-0.086-0.099-0.175-0.198-0.265-0.293c-0.005-0.006-0.01-0.01-0.015-0.016c-0.094-0.101-0.19-0.199-0.288-0.296
					c-0.061-0.061-0.124-0.122-0.187-0.181c-0.017-0.017-0.033-0.032-0.052-0.049c-0.081-0.077-0.165-0.152-0.248-0.225
					c-0.022-0.02-0.046-0.039-0.068-0.058c-0.062-0.053-0.124-0.106-0.188-0.157c-0.029-0.025-0.061-0.05-0.092-0.075
					c-0.056-0.044-0.111-0.089-0.167-0.131c-0.033-0.025-0.066-0.05-0.1-0.075c-0.056-0.041-0.111-0.082-0.169-0.121
					c-0.031-0.023-0.064-0.046-0.098-0.069c-0.062-0.043-0.122-0.082-0.183-0.122c-0.029-0.018-0.058-0.038-0.086-0.056
					c-0.09-0.057-0.18-0.111-0.271-0.163c-0.087-0.05-0.174-0.098-0.261-0.143c-0.022-0.012-0.045-0.024-0.067-0.035
					c-0.077-0.04-0.153-0.077-0.23-0.113c-0.009-0.004-0.02-0.009-0.028-0.014c-0.085-0.039-0.17-0.075-0.256-0.11
					c-0.017-0.005-0.032-0.013-0.05-0.019c-0.081-0.033-0.165-0.064-0.244-0.092c-0.01-0.002-0.019-0.004-0.027-0.007
					c-0.076-0.026-0.154-0.05-0.23-0.071c-0.013-0.005-0.023-0.008-0.037-0.011c-0.061-0.018-0.123-0.031-0.183-0.045
					c-0.027-0.007-0.056-0.014-0.082-0.02c-0.086-0.019-0.171-0.035-0.255-0.048c-0.004-0.001-0.007-0.001-0.007-0.001
					c-0.08-0.012-0.156-0.021-0.231-0.028c-0.024-0.003-0.05-0.003-0.076-0.005c-0.054-0.004-0.107-0.007-0.16-0.009
					c-0.025,0-0.049,0-0.072,0c-0.056-0.001-0.112,0-0.166,0.002c-0.02,0-0.039,0-0.058,0.001c-0.071,0.005-0.142,0.01-0.211,0.019
					c-0.015,0.002-0.028,0.004-0.044,0.007c-0.056,0.007-0.111,0.017-0.167,0.027c-0.019,0.003-0.037,0.008-0.056,0.011
					c-0.063,0.013-0.126,0.029-0.187,0.045c-0.004,0.002-0.009,0.002-0.013,0.004c-0.065,0.02-0.129,0.04-0.191,0.063
					c-0.017,0.007-0.033,0.013-0.05,0.02c-0.05,0.021-0.101,0.041-0.148,0.064c-0.014,0.006-0.026,0.011-0.04,0.018
					c-0.063,0.03-0.125,0.062-0.186,0.097l4.15-2.411c0.011-0.006,0.021-0.012,0.031-0.018c0.051-0.029,0.103-0.055,0.156-0.08
					c0.012-0.007,0.024-0.012,0.038-0.018c0.029-0.015,0.06-0.029,0.089-0.042c0.019-0.009,0.04-0.015,0.06-0.023
					c0.017-0.006,0.033-0.013,0.05-0.019c0.063-0.023,0.124-0.044,0.189-0.062l0.002-0.001c0.003-0.001,0.008-0.002,0.013-0.003
					c0.061-0.018,0.122-0.033,0.185-0.045c0.021-0.005,0.039-0.008,0.058-0.013c0.02-0.003,0.039-0.007,0.06-0.011
					c0.035-0.006,0.071-0.01,0.107-0.016c0.015-0.001,0.029-0.004,0.044-0.005c0.063-0.008,0.125-0.014,0.189-0.019
					c0.006,0,0.015,0,0.021-0.001c0.019-0.001,0.037-0.001,0.056-0.002c0.056-0.001,0.111-0.002,0.167-0.002
					c0.024,0.001,0.048,0.001,0.072,0.001c0.019,0.001,0.037,0,0.056,0.001c0.035,0.001,0.072,0.005,0.107,0.008
					c0.023,0.002,0.049,0.002,0.073,0.005c0.076,0.007,0.152,0.017,0.229,0.029l0.009,0.001c0.001,0,0.001,0,0.001,0
					c0.085,0.012,0.169,0.028,0.255,0.047c0.026,0.006,0.055,0.013,0.082,0.02c0.053,0.013,0.105,0.025,0.159,0.039
					c0.006,0.001,0.011,0.003,0.017,0.004c0.101,0.028,0.202,0.058,0.305,0.093c0.02,0.008,0.041,0.017,0.061,0.024
					c0.083,0.029,0.166,0.06,0.25,0.094c0.011,0.005,0.021,0.007,0.033,0.012c0.066,0.029,0.135,0.058,0.203,0.09
					c0.01,0.004,0.019,0.008,0.028,0.013c0.075,0.036,0.153,0.073,0.231,0.114c0.021,0.01,0.044,0.022,0.066,0.034
					c0.087,0.045,0.173,0.092,0.261,0.143c0.091,0.053,0.18,0.106,0.271,0.163c0.027,0.019,0.057,0.039,0.085,0.058
					c0.062,0.039,0.122,0.08,0.183,0.121c0.034,0.023,0.065,0.046,0.1,0.069c0.056,0.04,0.112,0.08,0.167,0.121
					c0.034,0.025,0.067,0.05,0.101,0.076c0.056,0.042,0.111,0.086,0.167,0.13c0.031,0.025,0.062,0.05,0.094,0.075
					c0.062,0.052,0.124,0.104,0.186,0.157c0.022,0.019,0.045,0.038,0.067,0.058c0.084,0.074,0.168,0.148,0.249,0.225
					c0.019,0.017,0.035,0.034,0.052,0.049c0.056,0.052,0.109,0.104,0.163,0.157c0.009,0.008,0.017,0.017,0.024,0.024
					c0.097,0.098,0.193,0.195,0.288,0.295c0.004,0.006,0.009,0.01,0.014,0.016c0.091,0.095,0.178,0.194,0.265,0.293
					c0.009,0.01,0.018,0.019,0.025,0.029c0.035,0.039,0.068,0.08,0.102,0.119c0.036,0.042,0.072,0.085,0.107,0.128
					c0.043,0.052,0.086,0.105,0.128,0.159c0.033,0.042,0.069,0.085,0.103,0.127c0.006,0.008,0.013,0.016,0.019,0.023
					c0.011,0.013,0.02,0.028,0.029,0.041c0.108,0.14,0.212,0.281,0.314,0.426c0.011,0.015,0.021,0.028,0.031,0.042
					c0.006,0.006,0.01,0.014,0.015,0.021c0.097,0.139,0.191,0.281,0.285,0.426c0.009,0.014,0.019,0.027,0.026,0.042
					c0.015,0.02,0.027,0.041,0.039,0.062c0.075,0.119,0.148,0.237,0.219,0.357c0.011,0.019,0.022,0.038,0.035,0.056
					c0.003,0.008,0.007,0.016,0.011,0.022c0.081,0.139,0.158,0.278,0.235,0.419c0.004,0.011,0.012,0.022,0.019,0.033
					c0.013,0.023,0.021,0.047,0.035,0.069c0.059,0.113,0.115,0.227,0.172,0.341c0.011,0.023,0.024,0.046,0.035,0.069
					c0.008,0.014,0.013,0.029,0.021,0.042c0.068,0.144,0.134,0.288,0.197,0.434c0.003,0.005,0.005,0.008,0.006,0.013
					c0.007,0.016,0.013,0.031,0.019,0.047c0.057,0.132,0.111,0.263,0.162,0.396c0.009,0.021,0.018,0.042,0.027,0.064
					c0.012,0.033,0.023,0.067,0.037,0.101c0.012,0.033,0.025,0.066,0.037,0.1c0.033,0.088,0.063,0.176,0.093,0.265
					c0.007,0.019,0.013,0.036,0.019,0.054c0.001,0.005,0.003,0.008,0.005,0.013c0.035,0.104,0.066,0.208,0.098,0.311
					c0.01,0.029,0.018,0.058,0.026,0.087c0.017,0.059,0.035,0.118,0.052,0.177c0.005,0.019,0.01,0.038,0.014,0.057
					c0.015,0.049,0.025,0.096,0.038,0.146c0.018,0.064,0.033,0.129,0.049,0.194c0.013,0.049,0.023,0.097,0.034,0.147
					c0.007,0.034,0.017,0.068,0.023,0.104c0.005,0.024,0.009,0.049,0.014,0.073c0.016,0.074,0.029,0.146,0.043,0.221
					c0.01,0.051,0.019,0.102,0.027,0.153c0.013,0.077,0.023,0.152,0.035,0.229c0.004,0.035,0.012,0.07,0.016,0.106
					c0.002,0.015,0.003,0.03,0.005,0.044c0.004,0.035,0.008,0.07,0.012,0.104c0.008,0.072,0.016,0.145,0.021,0.217
					c0.004,0.037,0.007,0.074,0.01,0.112c0.006,0.072,0.01,0.146,0.013,0.218c0.002,0.032,0.004,0.066,0.006,0.099
					c0.004,0.104,0.006,0.206,0.006,0.309c-0.006,1.778-0.634,3.029-1.646,3.617l-4.148,2.412c1.011-0.588,1.64-1.839,1.644-3.617
					c0-0.104-0.002-0.207-0.005-0.31C282.967,119.884,282.965,119.851,282.964,119.818z"/>
				<g>
					<path fill="#30394F" d="M277.354,110.49c-3.115-1.8-5.648-0.355-5.658,3.223c-0.011,3.581,2.506,7.938,5.621,9.736
						c3.114,1.799,5.647,0.355,5.657-3.223C282.985,116.647,280.467,112.288,277.354,110.49z"/>
				</g>
			</g>
			<g>
				<path fill="#B22F3B" d="M319.041,99.283c-0.008-2.294-1.631-3.22-3.629-2.067l-2.335,1.348
					c-1.999,1.153-3.611,3.949-3.605,6.245l0.024,8.671l9.569-5.524L319.041,99.283z"/>
				<path fill="#FF434C" d="M315.707,97.061c0.058-0.028,0.114-0.054,0.172-0.079c0.021-0.009,0.041-0.017,0.062-0.026
					c0.054-0.022,0.107-0.042,0.161-0.06c0.013-0.005,0.024-0.01,0.037-0.016c0.066-0.021,0.131-0.042,0.195-0.059
					c0.038-0.01,0.074-0.019,0.113-0.028c0.017-0.004,0.035-0.009,0.052-0.013c0.056-0.011,0.11-0.022,0.163-0.03
					c0.083-0.013,0.163-0.02,0.242-0.024c0.016-0.001,0.032-0.002,0.049-0.002c0.071-0.002,0.142-0.002,0.21,0.001
					c0.012,0.001,0.022,0.002,0.035,0.003c0.055,0.005,0.109,0.011,0.163,0.02c0.017,0.003,0.034,0.005,0.051,0.008
					c0.061,0.011,0.121,0.025,0.181,0.042c0.003,0.001,0.004,0.002,0.008,0.003c0.055,0.016,0.109,0.036,0.163,0.058
					c0.015,0.006,0.03,0.013,0.046,0.02c0.045,0.02,0.089,0.041,0.134,0.064c0.014,0.007,0.027,0.015,0.043,0.023l-2.241-1.303
					c-0.007-0.003-0.014-0.007-0.02-0.011c-0.008-0.003-0.017-0.007-0.024-0.011c-0.043-0.024-0.087-0.045-0.133-0.066
					c-0.008-0.004-0.016-0.008-0.024-0.012c-0.008-0.002-0.015-0.004-0.022-0.007c-0.054-0.021-0.107-0.042-0.163-0.058
					l-0.005-0.001l-0.002-0.001c-0.06-0.017-0.119-0.031-0.182-0.042c-0.008-0.001-0.013-0.004-0.021-0.005
					c-0.01-0.003-0.02-0.003-0.029-0.003c-0.053-0.009-0.107-0.016-0.163-0.02c-0.009,0-0.017-0.002-0.025-0.003
					c0,0-0.008,0-0.011,0c-0.067-0.003-0.138-0.003-0.208-0.002c-0.008,0-0.015,0-0.021,0c-0.01,0-0.018,0.002-0.027,0.003
					c-0.079,0.004-0.16,0.012-0.242,0.024l0,0c-0.054,0.008-0.108,0.02-0.163,0.032c-0.019,0.002-0.036,0.009-0.055,0.012
					c-0.034,0.008-0.065,0.016-0.101,0.025c-0.004,0-0.008,0.001-0.009,0.002c-0.065,0.019-0.131,0.038-0.196,0.061
					c-0.014,0.004-0.025,0.01-0.037,0.015c-0.054,0.019-0.109,0.039-0.163,0.061c-0.006,0.002-0.013,0.004-0.021,0.007
					c-0.013,0.006-0.026,0.012-0.039,0.019c-0.057,0.025-0.114,0.051-0.172,0.079c-0.022,0.01-0.045,0.021-0.066,0.033
					c-0.076,0.038-0.152,0.078-0.229,0.122l-2.336,1.349c-0.095,0.057-0.19,0.116-0.284,0.179c-0.017,0.011-0.033,0.022-0.048,0.032
					c-0.091,0.061-0.179,0.127-0.267,0.193c-0.017,0.013-0.034,0.027-0.052,0.04c-0.088,0.07-0.177,0.142-0.263,0.218
					c-0.008,0.007-0.016,0.014-0.022,0.021c-0.084,0.074-0.167,0.151-0.248,0.23c-0.008,0.007-0.016,0.015-0.024,0.022
					c-0.004,0.006-0.01,0.011-0.015,0.016c-0.063,0.062-0.124,0.125-0.185,0.189c-0.003,0.004-0.007,0.007-0.01,0.01
					c-0.058,0.062-0.115,0.124-0.17,0.189c-0.005,0.005-0.012,0.011-0.016,0.018c-0.007,0.007-0.015,0.016-0.02,0.024
					c-0.092,0.104-0.18,0.213-0.267,0.324c-0.003,0.002-0.006,0.005-0.006,0.005c-0.01,0.011-0.015,0.021-0.021,0.03
					c-0.07,0.089-0.137,0.18-0.202,0.272c-0.006,0.009-0.014,0.019-0.02,0.028c-0.003,0.005-0.006,0.009-0.01,0.013
					c-0.062,0.09-0.124,0.181-0.184,0.273c-0.004,0.008-0.011,0.018-0.017,0.026c-0.009,0.015-0.017,0.028-0.024,0.042
					c-0.048,0.076-0.095,0.152-0.14,0.229c-0.008,0.012-0.016,0.024-0.022,0.036c-0.003,0.005-0.006,0.01-0.008,0.015
					c-0.052,0.088-0.102,0.178-0.149,0.267c-0.005,0.008-0.01,0.015-0.014,0.022c-0.007,0.016-0.015,0.031-0.021,0.045
					c-0.037,0.072-0.074,0.145-0.11,0.216c-0.008,0.016-0.016,0.031-0.023,0.045c-0.005,0.009-0.008,0.019-0.012,0.028
					c-0.045,0.093-0.087,0.185-0.127,0.278c0,0-0.004,0.006-0.004,0.008c-0.005,0.01-0.009,0.021-0.013,0.031
					c-0.037,0.084-0.071,0.168-0.104,0.253c-0.006,0.014-0.012,0.028-0.017,0.041c-0.005,0.012-0.008,0.022-0.013,0.034
					c-0.037,0.1-0.074,0.2-0.107,0.302c0,0-0.002,0.003-0.003,0.005c-0.001,0.005-0.003,0.011-0.005,0.019
					c-0.035,0.104-0.066,0.208-0.096,0.311c-0.004,0.013-0.008,0.026-0.012,0.039c-0.002,0.007-0.004,0.015-0.006,0.021
					c-0.033,0.121-0.062,0.242-0.089,0.361c-0.002,0.011-0.005,0.022-0.007,0.033c-0.003,0.017-0.006,0.032-0.01,0.047
					c-0.009,0.047-0.019,0.094-0.026,0.142c-0.007,0.033-0.013,0.065-0.018,0.098c-0.008,0.049-0.015,0.098-0.022,0.146
					c-0.004,0.022-0.008,0.045-0.01,0.068c-0.001,0.007-0.001,0.012-0.003,0.019c-0.013,0.104-0.022,0.208-0.03,0.31
					c-0.002,0.021-0.002,0.043-0.003,0.066c-0.007,0.105-0.011,0.21-0.011,0.313l0.025,8.673l2.24,1.301l-0.024-8.671
					c0-0.104,0.004-0.209,0.01-0.314c0.001-0.022,0.003-0.044,0.004-0.066c0.009-0.103,0.018-0.206,0.03-0.31
					c0.004-0.03,0.008-0.059,0.014-0.087c0.006-0.049,0.013-0.096,0.021-0.147c0.006-0.032,0.012-0.065,0.019-0.097
					c0.008-0.047,0.018-0.094,0.027-0.142c0.005-0.027,0.011-0.053,0.017-0.079c0.026-0.121,0.056-0.242,0.089-0.362
					c0.005-0.02,0.011-0.041,0.017-0.06c0.029-0.104,0.062-0.208,0.095-0.312c0.003-0.007,0.006-0.016,0.008-0.023
					c0.033-0.101,0.069-0.202,0.108-0.301c0.01-0.026,0.019-0.051,0.029-0.076c0.033-0.085,0.067-0.17,0.104-0.253
					c0.005-0.013,0.01-0.027,0.016-0.039c0.041-0.093,0.083-0.185,0.128-0.277c0.011-0.024,0.022-0.048,0.035-0.072
					c0.035-0.073,0.072-0.146,0.111-0.219c0.011-0.022,0.021-0.043,0.033-0.065c0.048-0.091,0.098-0.181,0.149-0.27
					c0.011-0.017,0.021-0.033,0.03-0.05c0.046-0.077,0.093-0.154,0.141-0.229c0.015-0.022,0.028-0.045,0.042-0.066
					c0.06-0.093,0.12-0.183,0.183-0.274c0.01-0.013,0.02-0.028,0.028-0.041c0.067-0.091,0.134-0.182,0.202-0.272
					c0.009-0.012,0.018-0.024,0.026-0.036c0.087-0.111,0.175-0.218,0.266-0.324c0.014-0.014,0.024-0.028,0.037-0.042
					c0.056-0.063,0.112-0.126,0.17-0.188c0.003-0.003,0.006-0.008,0.01-0.01c0.061-0.065,0.121-0.127,0.184-0.189
					c0.013-0.014,0.027-0.026,0.041-0.04c0.08-0.079,0.162-0.155,0.246-0.229c0.007-0.008,0.016-0.015,0.023-0.021
					c0.086-0.077,0.175-0.148,0.264-0.218c0.017-0.014,0.034-0.027,0.052-0.041c0.087-0.067,0.176-0.132,0.265-0.193
					c0.017-0.011,0.032-0.021,0.049-0.031c0.094-0.064,0.188-0.124,0.285-0.18l2.335-1.348c0.077-0.045,0.153-0.085,0.23-0.124
					C315.662,97.082,315.685,97.072,315.707,97.061z"/>
			</g>
			<g>
				<g>
					<polygon fill="#268C8C" points="294.938,101.8 307.046,115.292 301.298,118.631 286.979,106.425 					"/>
				</g>
				<g>
					<polygon fill="#054242" points="307.046,115.292 307.027,117.74 301.279,121.082 301.298,118.631 					"/>
				</g>
				<g>
					<polygon fill="#0E6569" points="301.298,118.631 301.279,121.082 286.961,112.814 286.979,106.425 					"/>
				</g>
			</g>
			<g>
				<g>
					<polygon fill="#0E6569" points="265.37,109.781 265.386,115.484 328.757,152.296 328.74,146.594 					"/>
				</g>
				<polygon fill="#FF434C" points="329.933,145.906 328.74,146.594 265.37,109.781 267.744,109.782 				"/>
			</g>
			<g>
				<path fill="#054242" d="M373.05,125.353c-0.004,0.076-0.006,0.152-0.012,0.229c-0.005,0.084-0.011,0.168-0.017,0.253
					c-0.008,0.076-0.015,0.153-0.022,0.23c-0.008,0.085-0.019,0.169-0.029,0.254c-0.01,0.077-0.021,0.153-0.03,0.23
					c-0.015,0.085-0.026,0.169-0.04,0.254c-0.014,0.077-0.027,0.153-0.043,0.231c-0.015,0.083-0.033,0.169-0.05,0.252
					c-0.017,0.079-0.035,0.16-0.054,0.238c-0.021,0.085-0.041,0.168-0.062,0.251c-0.02,0.081-0.041,0.159-0.064,0.239
					c-0.022,0.083-0.048,0.166-0.072,0.251c-0.023,0.079-0.048,0.159-0.074,0.238c-0.026,0.084-0.056,0.167-0.084,0.25
					c-0.027,0.079-0.055,0.159-0.084,0.24c-0.029,0.079-0.06,0.16-0.091,0.238c-0.035,0.09-0.07,0.178-0.106,0.267
					c-0.032,0.08-0.065,0.157-0.101,0.236c-0.038,0.09-0.077,0.177-0.117,0.266c-0.037,0.079-0.074,0.156-0.111,0.235
					c-0.042,0.09-0.086,0.177-0.13,0.266c-0.04,0.077-0.081,0.156-0.121,0.234c-0.047,0.089-0.095,0.176-0.143,0.264
					c-0.042,0.075-0.084,0.15-0.127,0.225c-0.063,0.109-0.127,0.219-0.193,0.326c-0.039,0.067-0.08,0.135-0.121,0.201
					c-0.074,0.12-0.151,0.237-0.23,0.354c-0.036,0.056-0.071,0.112-0.109,0.169c-0.117,0.174-0.237,0.345-0.363,0.52
					c-0.004,0.004-0.008,0.01-0.013,0.016c-0.122,0.166-0.248,0.334-0.378,0.499c-0.105,0.136-0.214,0.271-0.326,0.406
					c-0.024,0.03-0.052,0.062-0.077,0.093c-0.097,0.113-0.192,0.229-0.293,0.342c-0.029,0.034-0.06,0.069-0.091,0.104
					c-0.122,0.138-0.246,0.275-0.374,0.411c-0.02,0.023-0.042,0.045-0.063,0.068c-0.112,0.118-0.224,0.234-0.339,0.353
					c-0.035,0.036-0.071,0.072-0.105,0.107c-0.137,0.137-0.274,0.271-0.415,0.407c-0.007,0.008-0.017,0.017-0.023,0.024
					c-0.126,0.119-0.254,0.238-0.384,0.356c-0.096,0.088-0.195,0.176-0.295,0.264c-0.075,0.068-0.151,0.137-0.229,0.204
					c-0.104,0.09-0.209,0.179-0.317,0.27c-0.076,0.063-0.151,0.128-0.229,0.192c-0.114,0.093-0.23,0.187-0.349,0.28
					c-0.073,0.06-0.146,0.117-0.22,0.176c-0.137,0.106-0.273,0.211-0.412,0.313c-0.062,0.047-0.12,0.093-0.181,0.14
					c-0.201,0.148-0.406,0.296-0.614,0.444c-0.029,0.019-0.06,0.039-0.087,0.059c-0.182,0.127-0.366,0.254-0.552,0.379
					c-0.075,0.05-0.153,0.1-0.229,0.149c-0.143,0.095-0.285,0.188-0.432,0.282c-0.09,0.057-0.181,0.112-0.272,0.17
					c-0.136,0.085-0.271,0.17-0.412,0.254c-0.196,0.12-0.396,0.239-0.598,0.357c-0.323,0.187-0.648,0.37-0.978,0.549
					c-0.11,0.059-0.222,0.116-0.331,0.175c-0.223,0.117-0.444,0.235-0.67,0.35c-0.133,0.066-0.268,0.133-0.402,0.199
					c-0.205,0.102-0.412,0.203-0.618,0.302c-0.146,0.068-0.293,0.135-0.438,0.202c-0.2,0.093-0.402,0.185-0.604,0.274
					c-0.153,0.067-0.305,0.134-0.458,0.198c-0.201,0.086-0.402,0.172-0.604,0.256c-0.157,0.064-0.314,0.127-0.473,0.191
					c-0.201,0.079-0.404,0.16-0.61,0.238c-0.159,0.062-0.318,0.121-0.479,0.181c-0.205,0.077-0.411,0.152-0.619,0.226
					c-0.162,0.057-0.321,0.114-0.483,0.171c-0.211,0.072-0.424,0.144-0.637,0.214c-0.173,0.057-0.347,0.113-0.521,0.169
					c-0.109,0.035-0.221,0.069-0.332,0.104c-0.227,0.07-0.456,0.14-0.684,0.207c-0.109,0.032-0.218,0.064-0.327,0.095
					c-0.27,0.079-0.544,0.156-0.817,0.23c-0.061,0.016-0.121,0.033-0.182,0.049c-0.334,0.089-0.668,0.175-1.003,0.257
					c-0.093,0.023-0.185,0.046-0.277,0.066c-0.248,0.061-0.495,0.119-0.745,0.175c-0.115,0.026-0.231,0.052-0.349,0.077
					c-0.234,0.052-0.474,0.103-0.711,0.151c-0.109,0.023-0.217,0.045-0.326,0.068c-0.309,0.061-0.618,0.12-0.929,0.178
					c-0.033,0.006-0.065,0.012-0.098,0.018c-0.18,0.033-0.358,0.062-0.538,0.093c-0.199,0.033-0.397,0.069-0.596,0.102
					c-0.181,0.027-0.36,0.053-0.539,0.08c-0.199,0.031-0.399,0.062-0.598,0.09c-0.184,0.026-0.368,0.048-0.551,0.07
					c-0.197,0.027-0.393,0.054-0.589,0.077c-0.184,0.022-0.367,0.041-0.552,0.061c-0.196,0.022-0.393,0.045-0.59,0.064
					c-0.349,0.035-0.699,0.066-1.048,0.094c-0.104,0.009-0.206,0.017-0.312,0.024c-0.248,0.018-0.497,0.036-0.745,0.052
					c-0.127,0.009-0.253,0.017-0.379,0.022c-0.231,0.013-0.463,0.025-0.693,0.035c-0.127,0.006-0.253,0.012-0.377,0.015
					c-0.293,0.013-0.586,0.021-0.877,0.028c-0.043,0.001-0.087,0.002-0.13,0.003c-0.338,0.007-0.674,0.01-1.011,0.011
					c-0.093,0-0.186,0-0.278-0.001c-0.258-0.001-0.515-0.003-0.771-0.008c-0.095-0.001-0.19-0.003-0.285-0.005
					c-0.329-0.007-0.657-0.016-0.983-0.029c-0.047-0.002-0.094-0.005-0.141-0.007c-0.29-0.013-0.578-0.027-0.866-0.044
					c-0.087-0.004-0.174-0.01-0.261-0.016c-0.328-0.021-0.656-0.044-0.982-0.071c-0.014-0.001-0.026-0.002-0.04-0.003
					c-0.314-0.026-0.628-0.057-0.94-0.089c-0.082-0.008-0.163-0.017-0.244-0.024c-0.323-0.035-0.646-0.071-0.966-0.112
					c-0.012-0.001-0.022-0.003-0.034-0.005c-0.31-0.039-0.618-0.082-0.926-0.127c-0.08-0.013-0.162-0.024-0.243-0.036
					c-0.317-0.049-0.634-0.099-0.947-0.153l-0.02,6.388c0.314,0.055,0.632,0.105,0.948,0.154c0.082,0.012,0.163,0.024,0.244,0.036
					c0.083,0.012,0.165,0.024,0.247,0.037c0.226,0.031,0.451,0.063,0.678,0.091c0.012,0.001,0.022,0.002,0.034,0.005
					c0.32,0.04,0.643,0.077,0.966,0.111c0.081,0.009,0.163,0.018,0.244,0.026c0.313,0.031,0.626,0.06,0.942,0.087
					c0.013,0.001,0.025,0.002,0.038,0.003c0.003,0,0.007,0.001,0.01,0.001c0.324,0.027,0.648,0.05,0.974,0.07
					c0.086,0.006,0.174,0.011,0.26,0.016c0.288,0.018,0.576,0.032,0.866,0.045c0.047,0.002,0.094,0.005,0.141,0.006
					c0.272,0.011,0.545,0.02,0.817,0.027c0.055,0.001,0.11,0.001,0.166,0.002c0.096,0.002,0.19,0.005,0.285,0.006
					c0.257,0.003,0.515,0.006,0.771,0.008c0.093,0,0.186,0,0.278,0c0.337,0,0.674-0.005,1.011-0.011
					c0.043-0.001,0.087-0.003,0.13-0.004c0.222-0.005,0.443-0.009,0.666-0.018c0.07-0.002,0.141-0.007,0.211-0.008
					c0.126-0.005,0.252-0.011,0.377-0.018c0.231-0.009,0.462-0.021,0.695-0.034c0.124-0.007,0.25-0.015,0.377-0.021
					c0.248-0.016,0.498-0.034,0.746-0.052c0.104-0.009,0.208-0.016,0.312-0.024c0.343-0.028,0.683-0.059,1.027-0.092
					c0.006-0.001,0.013-0.002,0.02-0.003c0.197-0.02,0.394-0.042,0.59-0.063c0.185-0.021,0.369-0.04,0.554-0.061
					c0.194-0.023,0.391-0.051,0.585-0.076c0.185-0.024,0.369-0.047,0.553-0.071c0.199-0.028,0.396-0.061,0.596-0.09
					c0.181-0.027,0.36-0.052,0.54-0.082c0.199-0.031,0.397-0.067,0.598-0.101c0.173-0.029,0.348-0.058,0.521-0.089
					c0.005-0.001,0.011-0.003,0.017-0.003c0.032-0.007,0.064-0.013,0.098-0.02c0.311-0.057,0.62-0.115,0.929-0.178
					c0.109-0.021,0.218-0.044,0.326-0.066c0.239-0.049,0.477-0.099,0.713-0.152c0.115-0.025,0.231-0.051,0.348-0.076
					c0.249-0.057,0.497-0.115,0.744-0.174c0.093-0.023,0.186-0.045,0.278-0.068c0.335-0.082,0.668-0.168,1.004-0.256
					c0.059-0.017,0.12-0.034,0.18-0.051c0.273-0.074,0.548-0.15,0.819-0.228c0.108-0.032,0.217-0.064,0.326-0.096
					c0.228-0.067,0.457-0.137,0.683-0.208c0.111-0.034,0.223-0.068,0.332-0.104c0.066-0.02,0.134-0.04,0.2-0.061
					c0.108-0.035,0.214-0.073,0.32-0.109c0.214-0.068,0.426-0.14,0.637-0.212c0.161-0.057,0.323-0.113,0.484-0.17
					c0.207-0.074,0.413-0.149,0.62-0.226c0.159-0.06,0.318-0.12,0.479-0.182c0.204-0.078,0.407-0.158,0.608-0.238
					c0.158-0.063,0.316-0.127,0.473-0.191c0.202-0.084,0.404-0.169,0.604-0.255c0.154-0.065,0.307-0.131,0.46-0.199
					c0.201-0.09,0.403-0.181,0.604-0.273c0.146-0.067,0.294-0.135,0.438-0.202c0.207-0.1,0.413-0.202,0.618-0.302
					c0.135-0.066,0.27-0.132,0.403-0.2c0.225-0.113,0.446-0.232,0.669-0.349c0.109-0.06,0.222-0.116,0.331-0.177
					c0.33-0.178,0.655-0.36,0.978-0.547c0.178-0.104,0.355-0.209,0.529-0.314c0.024-0.014,0.047-0.029,0.07-0.044
					c0.139-0.083,0.274-0.169,0.409-0.253c0.091-0.057,0.185-0.113,0.274-0.17c0.146-0.094,0.287-0.188,0.43-0.281
					c0.075-0.051,0.155-0.101,0.231-0.151c0.185-0.124,0.366-0.251,0.547-0.376c0.03-0.021,0.061-0.04,0.092-0.063
					c0.208-0.146,0.412-0.296,0.613-0.444c0.063-0.047,0.121-0.093,0.183-0.139c0.139-0.104,0.275-0.207,0.409-0.313
					c0.075-0.058,0.148-0.118,0.223-0.178c0.116-0.093,0.234-0.185,0.348-0.278c0.077-0.064,0.153-0.13,0.23-0.194
					c0.106-0.089,0.212-0.178,0.316-0.27c0.076-0.066,0.152-0.134,0.228-0.202c0.1-0.089,0.199-0.177,0.296-0.266
					c0.026-0.022,0.054-0.046,0.079-0.07c0.102-0.095,0.203-0.19,0.304-0.287c0.008-0.007,0.017-0.015,0.023-0.021
					c0.141-0.136,0.278-0.271,0.415-0.407c0.035-0.037,0.069-0.072,0.105-0.108c0.115-0.118,0.229-0.236,0.34-0.354
					c0.021-0.022,0.042-0.044,0.062-0.067c0.128-0.136,0.253-0.273,0.374-0.41c0.032-0.035,0.062-0.069,0.092-0.104
					c0.1-0.114,0.197-0.229,0.292-0.343c0.027-0.031,0.053-0.062,0.077-0.092c0.104-0.124,0.204-0.248,0.302-0.373
					c0.009-0.012,0.017-0.022,0.024-0.033c0.13-0.167,0.258-0.333,0.378-0.499c0.005-0.007,0.009-0.012,0.013-0.017
					c0.126-0.172,0.246-0.347,0.364-0.52c0.037-0.057,0.072-0.112,0.109-0.167c0.079-0.12,0.155-0.238,0.229-0.355
					c0.041-0.067,0.082-0.134,0.123-0.201c0.064-0.108,0.129-0.217,0.192-0.327c0.019-0.031,0.037-0.062,0.056-0.093
					c0.023-0.044,0.047-0.088,0.07-0.131c0.048-0.089,0.096-0.176,0.143-0.264c0.04-0.079,0.082-0.157,0.121-0.235
					c0.045-0.088,0.088-0.177,0.13-0.265c0.039-0.079,0.074-0.157,0.11-0.235c0.041-0.089,0.081-0.178,0.12-0.266
					c0.033-0.079,0.066-0.158,0.099-0.236c0.038-0.09,0.073-0.178,0.106-0.268c0.019-0.046,0.039-0.094,0.057-0.141
					c0.012-0.033,0.023-0.065,0.035-0.099c0.028-0.079,0.057-0.159,0.083-0.239c0.028-0.083,0.058-0.165,0.084-0.249
					c0.026-0.08,0.052-0.159,0.074-0.239c0.024-0.083,0.05-0.167,0.072-0.251c0.023-0.078,0.045-0.16,0.065-0.238
					c0.02-0.085,0.041-0.167,0.061-0.25c0.019-0.081,0.037-0.16,0.054-0.24c0.009-0.045,0.021-0.091,0.029-0.136
					c0.008-0.038,0.014-0.077,0.021-0.116c0.016-0.076,0.029-0.153,0.043-0.231c0.014-0.085,0.025-0.169,0.04-0.253
					c0.011-0.077,0.022-0.155,0.03-0.23c0.011-0.086,0.021-0.171,0.03-0.255c0.008-0.077,0.015-0.154,0.021-0.23
					c0.006-0.084,0.012-0.17,0.017-0.254c0.006-0.077,0.009-0.152,0.012-0.229c0.002-0.035,0.005-0.069,0.007-0.104
					c0.003-0.096,0.004-0.191,0.004-0.288l0.019-6.389C373.061,125.091,373.055,125.221,373.05,125.353z"/>
				<g>
					<path fill="#FF434C" d="M371.768,119.777c3.421,6.539,0.019,14.417-9.828,20.14c-9.847,5.722-23.438,7.718-34.738,5.76
						l12.776-7.426l4.888-0.347l13.543-7.871l0.585-2.831L371.768,119.777z"/>
				</g>
			</g>
			<path fill="#054242" d="M323.47,105.1c-0.987-0.973-1.73-2.948-2.667-3.969c-0.273-0.296-2.776-2.743-2.664-2.978
				c0,0,0.012-0.022,0.013-0.024c-0.876-0.75-1.669-1.447-1.888-1.674c-1.859-1.917,3.329-0.853,4.516-2.985l-0.021,2.662
				c0,0,0.504,0.403,1.277,1.039c-0.068,0.109-0.215,0.235-0.339,0.357c1.56,1.581,2.364,0.332,3.914,1.931
				c0.854,0.882,2.319,4.754,3.303,5.5c0.922,0.7,1.924,0.93,2.937,1.414c1.054,0.502,1.714,1.304,2.432,2.205
				c0.919,1.153,0.173,1.907-1.094,2.146c-1.773,0.338-2.996-1.522-4.186-2.512C327.283,106.779,325.07,106.679,323.47,105.1z"/>
			<path fill="#054242" d="M326.49,116.932c0-0.021,0.002-0.04,0.002-0.061c0-6.016,0-13.229,0-13.229
				c0-2.681-1.089-4.386-7.37-7.291c-6.32-2.922-7.792,6.893-7.792,8.984c0,1.612-0.095,4.023-0.139,6.934l0,0v0.003
				c-0.013,0.866,0.002,2.692-0.028,3.151c-0.029,0.43,0.014,1.322,0.041,1.367c1.531,2.446,8.796,6.935,13.767,3.211
				c0.623-0.534,1.054-0.98,1.328-1.293C326.55,118.423,326.49,116.932,326.49,116.932z"/>
			<path fill="#FFFFFF" d="M323.861,92.192c0,4.014-2.354,7.266-5.259,7.266c-2.905,0-5.26-3.252-5.26-7.266
				c0-4.012,2.354-2.879,5.26-2.879C321.507,89.313,323.861,88.18,323.861,92.192z"/>
			<path fill="#B22F3B" d="M321.676,86.115c-1.62-0.64-4.52-1.131-6.238-0.652c-1.873,0.522-1.679,2.109-2.514,3.875
				c-0.759,1.609-0.988,3.635-0.546,5.368c0.593,2.326,2.158,3.345,4.33,3.767c0.993,0.194,2.009,0.224,3.019,0.24
				c6.498,0.098,6.221-1.335,6.408-2.258c0.752-3.7,0.206-8.241-3.593-9.97C322.261,86.357,321.97,86.232,321.676,86.115z"/>
			<path fill="#BDEEF9" d="M326.165,96.226c0.383-2.058,0.253-3.915-0.304-5.546c-0.29,0.698-0.822,1.132-1.844,1.248
				c-1.838,0.206-3.622-0.202-5.298-1.021c-1.597-0.782-3.405-0.49-4.013,1.313c-0.736,2.189,2.623,2.991,4.126,3.351
				C320.949,96.077,323.876,96.87,326.165,96.226z"/>
			<g>
				<path fill="#171415" d="M332.596,113.857c0.113,0.039,0.227,0.075,0.336,0.107l0,0l0,0l-1.104-0.641
					c-0.11-0.033-0.224-0.07-0.336-0.107c-0.036-0.013-0.072-0.028-0.108-0.042c-0.077-0.028-0.154-0.058-0.23-0.088
					c-0.085-0.034-0.169-0.071-0.25-0.11c-0.013-0.006-0.025-0.01-0.037-0.016c-0.101-0.049-0.2-0.101-0.294-0.156l0,0l0,0l0,0
					l1.104,0.642c0.015,0.009,0.029,0.018,0.045,0.026c0.079,0.044,0.163,0.089,0.25,0.129c0.012,0.006,0.023,0.011,0.037,0.017
					c0.07,0.034,0.143,0.066,0.215,0.097c0.011,0.004,0.021,0.009,0.033,0.012c0.077,0.033,0.155,0.061,0.231,0.089
					C332.524,113.83,332.561,113.846,332.596,113.857z"/>
				<path fill="#1C191A" d="M332.552,114.79c0.007-0.014,0.015-0.028,0.022-0.042l-1.105-0.642c-0.016,0.029-0.032,0.06-0.048,0.088
					c-0.035,0.066-0.072,0.131-0.108,0.195c-0.016,0.026-0.03,0.053-0.047,0.079c-0.041,0.07-0.084,0.142-0.128,0.21
					c-0.01,0.016-0.019,0.032-0.029,0.047c-0.054,0.086-0.112,0.172-0.171,0.256c-0.015,0.02-0.028,0.039-0.043,0.059
					c-0.057,0.081-0.116,0.16-0.176,0.239c-0.01,0.012-0.019,0.025-0.029,0.037c-0.077,0.1-0.157,0.197-0.239,0.292
					c-0.017,0.02-0.033,0.039-0.05,0.058c-0.035,0.041-0.071,0.081-0.107,0.119c-0.021,0.024-0.042,0.048-0.064,0.071
					c-0.042,0.043-0.083,0.086-0.125,0.128c-0.018,0.018-0.034,0.035-0.051,0.052c-0.076,0.075-0.152,0.146-0.229,0.215
					c-0.019,0.017-0.038,0.032-0.056,0.049c-0.075,0.066-0.15,0.128-0.226,0.188c-0.006,0.006-0.013,0.01-0.017,0.015
					c-0.082,0.063-0.163,0.124-0.246,0.182c-0.021,0.014-0.04,0.028-0.06,0.041c-0.085,0.058-0.17,0.113-0.255,0.165
					c-0.021,0.013-0.041,0.025-0.063,0.037c-0.067,0.039-0.134,0.074-0.199,0.106c-0.02,0.011-0.038,0.02-0.059,0.029
					c-0.048,0.024-0.098,0.045-0.146,0.066c-0.019,0.008-0.038,0.017-0.057,0.025c-0.039,0.015-0.077,0.03-0.115,0.043
					c-0.019,0.007-0.037,0.013-0.058,0.021c-0.052,0.018-0.104,0.034-0.155,0.048c-0.005,0.001-0.007,0.001-0.011,0.002
					c-0.087,0.024-0.172,0.042-0.257,0.055c-0.009,0.002-0.019,0.004-0.027,0.005c-0.069,0.01-0.138,0.017-0.205,0.021
					c-0.017,0-0.03,0.001-0.045,0.001c-0.063,0.003-0.121,0.003-0.181-0.001c0,0-0.006,0-0.01,0
					c-0.058-0.004-0.116-0.012-0.173-0.021c-0.015-0.002-0.03-0.006-0.043-0.009c-0.05-0.009-0.097-0.018-0.143-0.032
					c-0.008-0.003-0.016-0.003-0.024-0.005c-0.054-0.016-0.105-0.034-0.155-0.056c-0.013-0.004-0.025-0.009-0.037-0.016
					c-0.044-0.019-0.087-0.041-0.129-0.063c-0.013-0.007-0.025-0.014-0.038-0.021l1.104,0.643c0.007,0.004,0.013,0.006,0.02,0.01
					c0.006,0.003,0.012,0.006,0.019,0.009c0.042,0.023,0.084,0.044,0.13,0.063c0.006,0.003,0.014,0.008,0.022,0.01
					c0.003,0.002,0.009,0.004,0.015,0.006c0.05,0.02,0.102,0.039,0.155,0.055c0.001,0,0.004,0,0.005,0.001
					c0.006,0.002,0.013,0.003,0.019,0.006c0.047,0.012,0.095,0.023,0.142,0.031c0.009,0.002,0.017,0.005,0.024,0.006
					c0.007,0.001,0.014,0.001,0.02,0.002c0.058,0.009,0.115,0.017,0.174,0.021h0.002c0.002,0,0.006,0,0.008,0
					c0.059,0.003,0.118,0.003,0.18,0.001c0.008,0,0.017,0.002,0.024,0.001c0.006-0.001,0.015-0.002,0.021-0.002
					c0.067-0.004,0.135-0.01,0.205-0.02c0,0,0.007-0.001,0.009-0.002c0.008,0,0.013-0.003,0.019-0.004
					c0.084-0.013,0.17-0.03,0.258-0.054l0,0c0.003-0.001,0.007-0.003,0.009-0.003c0.052-0.015,0.105-0.03,0.157-0.049
					c0.019-0.006,0.038-0.014,0.058-0.021c0.037-0.013,0.076-0.027,0.114-0.043c0.007-0.002,0.016-0.004,0.022-0.008
					c0.012-0.005,0.022-0.011,0.035-0.016c0.048-0.021,0.098-0.043,0.146-0.067c0.019-0.009,0.039-0.019,0.059-0.029
					c0.065-0.033,0.132-0.067,0.198-0.107c0.021-0.012,0.042-0.024,0.063-0.036c0.085-0.052,0.17-0.107,0.255-0.164
					c0.02-0.015,0.039-0.028,0.06-0.042c0.083-0.059,0.165-0.118,0.245-0.181c0.006-0.005,0.013-0.01,0.018-0.015
					c0.076-0.06,0.151-0.123,0.225-0.188c0.019-0.016,0.038-0.032,0.058-0.049c0.076-0.069,0.153-0.142,0.228-0.214
					c0,0,0.005-0.005,0.007-0.006c0.015-0.017,0.03-0.031,0.046-0.047c0.041-0.042,0.083-0.084,0.124-0.127
					c0.021-0.024,0.043-0.048,0.065-0.072c0.035-0.039,0.072-0.078,0.106-0.119c0.009-0.009,0.018-0.019,0.027-0.028
					c0.008-0.01,0.016-0.02,0.023-0.03c0.082-0.095,0.161-0.192,0.239-0.292c0.003-0.004,0.005-0.007,0.005-0.007
					c0.01-0.012,0.017-0.022,0.023-0.031c0.061-0.079,0.119-0.157,0.176-0.239c0.01-0.011,0.019-0.023,0.027-0.035
					c0.005-0.007,0.01-0.017,0.016-0.024c0.059-0.084,0.116-0.17,0.171-0.257c0,0,0.005-0.005,0.008-0.009
					c0.007-0.012,0.015-0.026,0.021-0.038c0.044-0.068,0.088-0.139,0.128-0.209c0.008-0.013,0.017-0.025,0.024-0.037
					c0.008-0.014,0.015-0.029,0.022-0.042c0.038-0.064,0.072-0.129,0.107-0.193C332.533,114.822,332.543,114.806,332.552,114.79z"/>
				<path fill="#30394F" d="M333.352,112.375c0.002-0.009,0.002-0.019,0.003-0.029c0.007-0.064,0.014-0.129,0.02-0.193
					c0.003-0.032,0.006-0.064,0.009-0.095c0.007-0.096,0.012-0.19,0.013-0.285c-0.021-1.03-0.403-1.788-1.016-2.144l-1.104-0.643
					c0.611,0.355,0.995,1.115,1.016,2.144c-0.002,0.094-0.006,0.189-0.014,0.286c-0.001,0.03-0.006,0.062-0.009,0.094
					c-0.006,0.065-0.011,0.127-0.02,0.193c-0.007,0.057-0.016,0.115-0.024,0.173c-0.004,0.026-0.008,0.054-0.013,0.081
					c-0.014,0.086-0.03,0.172-0.049,0.259c-0.025,0.116-0.056,0.232-0.086,0.347c-0.01,0.035-0.02,0.069-0.028,0.105
					c-0.022,0.07-0.043,0.143-0.067,0.215c-0.011,0.036-0.022,0.073-0.036,0.109c-0.021,0.065-0.045,0.131-0.069,0.196
					c-0.018,0.044-0.032,0.089-0.049,0.132l1.104,0.641c0.007-0.018,0.014-0.035,0.021-0.053c0.011-0.026,0.019-0.052,0.027-0.079
					c0.025-0.065,0.049-0.131,0.071-0.197c0.005-0.014,0.01-0.028,0.016-0.043c0.008-0.021,0.013-0.043,0.021-0.064
					c0.023-0.072,0.044-0.144,0.064-0.216c0.008-0.021,0.015-0.043,0.021-0.064c0.004-0.014,0.007-0.028,0.011-0.04
					c0.031-0.118,0.06-0.232,0.085-0.349l0,0c0.02-0.087,0.034-0.173,0.05-0.259c0.005-0.028,0.009-0.054,0.012-0.082
					C333.337,112.47,333.345,112.423,333.352,112.375z"/>
				<path fill="#30394F" d="M329.268,113.118c0.009-0.047,0.017-0.096,0.025-0.146c0.005-0.027,0.01-0.055,0.015-0.082
					c0.009-0.058,0.018-0.115,0.026-0.174c0.004-0.022,0.008-0.043,0.01-0.065c0.012-0.082,0.023-0.164,0.033-0.249l0.002-0.006
					c0.001-0.002,0.001-0.007,0.002-0.01c0.021-0.165,0.039-0.334,0.059-0.507c0.001-0.015,0.003-0.031,0.004-0.046
					c0.019-0.165,0.034-0.332,0.049-0.499c0.001-0.019,0.003-0.037,0.005-0.055c0.015-0.17,0.028-0.34,0.041-0.51
					c0-0.014,0.002-0.027,0.002-0.041c0.013-0.182,0.025-0.363,0.037-0.541l-1.105-0.642c-0.011,0.176-0.023,0.357-0.035,0.539
					c-0.002,0.014-0.003,0.027-0.004,0.042c-0.012,0.169-0.025,0.339-0.041,0.508c-0.001,0.019-0.003,0.037-0.004,0.056
					c-0.015,0.167-0.031,0.334-0.049,0.497c-0.001,0.017-0.003,0.034-0.004,0.049c-0.019,0.171-0.039,0.341-0.06,0.504
					c0,0.006-0.002,0.012-0.002,0.018c-0.011,0.084-0.022,0.167-0.034,0.249c-0.004,0.021-0.007,0.042-0.01,0.065
					c-0.01,0.058-0.018,0.116-0.028,0.175c-0.004,0.027-0.009,0.055-0.013,0.082c-0.009,0.049-0.017,0.099-0.026,0.146
					c-0.004,0.028-0.01,0.057-0.015,0.085c-0.009,0.045-0.019,0.088-0.027,0.133c-0.006,0.028-0.013,0.057-0.017,0.085
					c-0.008,0.03-0.015,0.058-0.021,0.087c-0.008,0.03-0.015,0.06-0.022,0.089c-0.007,0.028-0.013,0.055-0.021,0.082
					c-0.01,0.04-0.022,0.081-0.032,0.119c-0.014,0.046-0.03,0.095-0.047,0.146c-0.012,0.03-0.022,0.06-0.033,0.092
					c-0.012,0.03-0.022,0.059-0.035,0.089c-0.018,0.047-0.037,0.093-0.057,0.143c-0.011,0.023-0.02,0.045-0.03,0.068
					c-0.036,0.083-0.074,0.167-0.116,0.253c-0.007,0.015-0.015,0.031-0.023,0.046c-0.054,0.112-0.111,0.227-0.174,0.345
					c-0.002,0.002-0.004,0.006-0.006,0.009c-0.043,0.082-0.089,0.164-0.135,0.247c-0.015,0.026-0.028,0.052-0.044,0.077
					c-0.033,0.059-0.066,0.118-0.101,0.177c-0.013,0.024-0.027,0.047-0.043,0.072c-0.069,0.12-0.141,0.239-0.214,0.359
					c-0.008,0.012-0.016,0.025-0.022,0.036c-0.075,0.122-0.151,0.242-0.227,0.363c-0.007,0.009-0.013,0.018-0.018,0.027
					c-0.098,0.151-0.196,0.301-0.295,0.449c-0.002,0.003-0.004,0.008-0.006,0.011c-0.102,0.152-0.201,0.302-0.301,0.446l0,0l0,0
					l1.104,0.642c0.101-0.145,0.2-0.293,0.301-0.444c0.003-0.004,0.006-0.009,0.009-0.013c0.097-0.148,0.195-0.298,0.293-0.45
					c0,0,0.002-0.003,0.004-0.007c0.005-0.006,0.01-0.013,0.014-0.021c0.077-0.12,0.153-0.241,0.228-0.361
					c0.006-0.012,0.015-0.024,0.021-0.036c0.075-0.121,0.147-0.242,0.217-0.36c0.007-0.013,0.014-0.026,0.021-0.037
					c0.008-0.012,0.013-0.022,0.02-0.034c0.034-0.06,0.068-0.119,0.101-0.177c0.015-0.025,0.031-0.051,0.045-0.076
					c0.046-0.083,0.092-0.167,0.135-0.248l0.001-0.003c0.002-0.002,0.003-0.003,0.003-0.003c0.063-0.121,0.121-0.235,0.176-0.347
					c0.005-0.01,0.011-0.021,0.016-0.032c0.003-0.004,0.005-0.01,0.007-0.016c0.042-0.086,0.08-0.17,0.116-0.251
					c0.002-0.007,0.006-0.012,0.008-0.017c0.009-0.019,0.015-0.035,0.021-0.054c0.021-0.048,0.04-0.095,0.059-0.142
					c0.004-0.01,0.01-0.021,0.014-0.031c0.006-0.02,0.014-0.038,0.021-0.058c0.012-0.031,0.022-0.063,0.032-0.092
					c0.005-0.011,0.009-0.022,0.013-0.034c0.013-0.038,0.024-0.075,0.035-0.111c0.007-0.023,0.015-0.046,0.021-0.071
					c0.005-0.016,0.009-0.032,0.013-0.048c0.007-0.026,0.013-0.053,0.021-0.081c0.007-0.03,0.015-0.06,0.022-0.09
					c0.005-0.029,0.013-0.057,0.019-0.086c0.003-0.012,0.006-0.024,0.009-0.036c0.004-0.016,0.006-0.034,0.009-0.05
					c0.01-0.042,0.019-0.087,0.026-0.132C329.257,113.175,329.262,113.147,329.268,113.118z"/>
				<path fill="#30394F" d="M330.56,108.335c0.03-0.013,0.06-0.025,0.09-0.037c0.058-0.023,0.115-0.045,0.172-0.066
					c0.028-0.009,0.056-0.021,0.084-0.029c0.068-0.023,0.137-0.045,0.205-0.064c0.015-0.004,0.029-0.007,0.042-0.012
					c0.025-0.007,0.052-0.013,0.078-0.02c0.042-0.01,0.087-0.021,0.128-0.029c0.029-0.007,0.057-0.01,0.085-0.015
					c0.039-0.009,0.08-0.017,0.12-0.022c0.021-0.003,0.039-0.004,0.06-0.007c0.043-0.006,0.087-0.011,0.128-0.015
					c0.023-0.002,0.047-0.004,0.069-0.005c0.031-0.002,0.062-0.003,0.093-0.004c0.089-0.002,0.177-0.003,0.262,0.002
					c0.009,0,0.018,0.001,0.026,0.002c0.075,0.005,0.147,0.015,0.218,0.026c0.021,0.003,0.041,0.006,0.063,0.011
					c0.073,0.013,0.146,0.029,0.217,0.049l0.007,0.002c0.072,0.02,0.141,0.047,0.21,0.074c0.02,0.009,0.037,0.016,0.056,0.024
					c0.057,0.025,0.112,0.052,0.166,0.082c0.018,0.01,0.035,0.018,0.053,0.028h-0.001h0.001l-1.104-0.643
					c-0.008-0.005-0.017-0.009-0.024-0.014c-0.009-0.005-0.019-0.008-0.028-0.014c-0.055-0.029-0.108-0.056-0.167-0.082
					c-0.01-0.004-0.019-0.01-0.029-0.014c-0.009-0.004-0.018-0.007-0.024-0.009c-0.069-0.028-0.139-0.054-0.211-0.075h-0.002
					l-0.006-0.001c-0.07-0.02-0.143-0.037-0.217-0.05c-0.011-0.002-0.019-0.005-0.028-0.007c-0.01-0.001-0.021-0.001-0.033-0.003
					c-0.071-0.012-0.144-0.021-0.218-0.026c-0.007,0-0.013-0.002-0.021-0.003h-0.006c-0.085-0.004-0.174-0.004-0.263-0.001
					c-0.009,0-0.021-0.001-0.029,0c-0.021,0-0.043,0.003-0.063,0.004c-0.021,0.002-0.045,0.002-0.068,0.004
					c-0.042,0.004-0.085,0.009-0.128,0.015c-0.021,0.003-0.04,0.005-0.061,0.009c-0.007,0-0.011,0-0.019,0.001
					c-0.032,0.005-0.066,0.013-0.101,0.02c-0.028,0.005-0.057,0.009-0.085,0.015c-0.042,0.009-0.087,0.021-0.129,0.03
					c-0.026,0.007-0.052,0.011-0.077,0.02l-0.008,0.001c-0.012,0.004-0.022,0.008-0.034,0.011c-0.068,0.02-0.137,0.04-0.207,0.064
					c-0.026,0.009-0.054,0.02-0.081,0.028c-0.058,0.021-0.115,0.043-0.173,0.066c-0.017,0.007-0.033,0.012-0.049,0.019
					c-0.014,0.005-0.028,0.013-0.041,0.02c-0.059,0.024-0.117,0.051-0.177,0.08c-0.026,0.012-0.054,0.024-0.08,0.037
					c-0.086,0.042-0.172,0.087-0.259,0.134c-0.027,0.016-0.054,0.031-0.081,0.046c-0.109,0.063-0.217,0.131-0.323,0.203
					c-0.022,0.015-0.044,0.031-0.067,0.045c-0.103,0.071-0.204,0.145-0.306,0.222c-0.018,0.014-0.035,0.029-0.054,0.043
					c-0.092,0.074-0.185,0.151-0.275,0.229c-0.015,0.013-0.028,0.025-0.043,0.037c-0.098,0.087-0.195,0.178-0.29,0.27
					c-0.01,0.01-0.02,0.019-0.029,0.028c-0.016,0.016-0.03,0.032-0.047,0.048c-0.045,0.045-0.089,0.091-0.134,0.136
					c-0.027,0.031-0.055,0.059-0.083,0.09c-0.046,0.049-0.091,0.099-0.134,0.148c-0.019,0.021-0.038,0.041-0.057,0.063
					c-0.004,0.005-0.009,0.012-0.014,0.018c-0.104,0.121-0.208,0.246-0.309,0.375c-0.009,0.011-0.018,0.021-0.026,0.032
					c-0.007,0.009-0.013,0.02-0.02,0.028c-0.088,0.113-0.172,0.228-0.256,0.344c-0.005,0.008-0.011,0.017-0.017,0.025
					c-0.011,0.016-0.021,0.031-0.03,0.045c-0.069,0.101-0.141,0.204-0.207,0.308c-0.007,0.011-0.015,0.021-0.021,0.033
					c-0.002,0.003-0.005,0.009-0.008,0.012c-0.07,0.111-0.139,0.224-0.205,0.337c-0.008,0.011-0.016,0.023-0.021,0.034
					c-0.01,0.017-0.018,0.034-0.028,0.051c-0.056,0.096-0.11,0.194-0.163,0.293c-0.008,0.015-0.018,0.027-0.024,0.042
					c-0.002,0.006-0.005,0.011-0.008,0.016c-0.061,0.114-0.118,0.229-0.176,0.346c-0.005,0.011-0.01,0.021-0.017,0.032
					c-0.007,0.018-0.015,0.035-0.022,0.052c-0.049,0.102-0.096,0.205-0.141,0.308c-0.007,0.015-0.015,0.029-0.021,0.044
					c-0.003,0.006-0.005,0.012-0.008,0.018c-0.053,0.122-0.102,0.245-0.151,0.368c-0.003,0.011-0.009,0.023-0.014,0.035
					c-0.006,0.016-0.011,0.032-0.018,0.047c-0.048,0.13-0.096,0.26-0.139,0.39c-0.002,0.004-0.002,0.006-0.003,0.007l-0.001,0.002
					c-0.048,0.145-0.092,0.29-0.133,0.434c-0.004,0.014-0.009,0.03-0.013,0.043c-0.003,0.013-0.006,0.026-0.01,0.039
					c-0.012,0.042-0.022,0.086-0.034,0.128c-0.012,0.048-0.024,0.096-0.036,0.142c-0.01,0.045-0.02,0.087-0.029,0.131
					c-0.006,0.031-0.016,0.064-0.022,0.095c-0.002,0.013-0.004,0.026-0.008,0.038c-0.014,0.074-0.027,0.147-0.041,0.219
					c-0.005,0.029-0.011,0.057-0.017,0.084c-0.017,0.1-0.031,0.199-0.044,0.298c0,0.002-0.002,0.005-0.002,0.008
					c0,0.009-0.001,0.019-0.002,0.028c-0.014,0.105-0.022,0.209-0.031,0.313c-0.003,0.03-0.006,0.06-0.008,0.091
					c-0.007,0.113-0.013,0.227-0.015,0.338c-0.019,1.391,0.476,2.346,1.265,2.805l1.105,0.641c-0.789-0.458-1.284-1.413-1.265-2.805
					c0-0.111,0.008-0.224,0.015-0.339c0.002-0.028,0.004-0.059,0.006-0.089c0.009-0.104,0.02-0.209,0.033-0.313
					c0.001-0.012,0.002-0.023,0.004-0.035c0.012-0.099,0.027-0.199,0.044-0.299c0.004-0.027,0.012-0.055,0.015-0.083
					c0.015-0.072,0.028-0.146,0.043-0.22c0.009-0.044,0.021-0.089,0.029-0.134c0.01-0.043,0.019-0.085,0.03-0.13
					c0.011-0.047,0.023-0.094,0.036-0.141c0.01-0.042,0.021-0.087,0.034-0.129c0.007-0.028,0.015-0.056,0.022-0.083
					c0.04-0.145,0.085-0.29,0.133-0.434c0.001-0.004,0.002-0.006,0.003-0.01c0.043-0.13,0.092-0.259,0.14-0.39
					c0.011-0.026,0.021-0.055,0.031-0.083c0.048-0.122,0.099-0.245,0.15-0.368c0.009-0.02,0.021-0.042,0.029-0.063
					c0.045-0.103,0.092-0.206,0.14-0.307c0.014-0.028,0.027-0.056,0.04-0.085c0.058-0.116,0.115-0.231,0.176-0.346
					c0.009-0.019,0.021-0.038,0.03-0.057c0.054-0.1,0.108-0.197,0.164-0.295c0.017-0.026,0.033-0.055,0.049-0.083
					c0.068-0.113,0.136-0.225,0.206-0.336c0.01-0.016,0.021-0.032,0.03-0.046c0.066-0.104,0.136-0.207,0.206-0.308
					c0.017-0.023,0.033-0.046,0.049-0.07c0.082-0.117,0.167-0.231,0.253-0.344c0.016-0.02,0.032-0.04,0.048-0.06
					c0.1-0.128,0.203-0.253,0.308-0.375c0.023-0.026,0.047-0.052,0.07-0.079c0.044-0.049,0.088-0.1,0.134-0.149
					c0.027-0.03,0.057-0.059,0.084-0.088c0.044-0.047,0.088-0.093,0.134-0.137c0.024-0.026,0.05-0.05,0.075-0.076
					c0.097-0.093,0.193-0.184,0.291-0.271c0.013-0.013,0.028-0.025,0.043-0.037c0.091-0.08,0.182-0.156,0.275-0.229
					c0.019-0.014,0.035-0.03,0.053-0.042c0.102-0.079,0.204-0.152,0.307-0.223c0.022-0.015,0.044-0.03,0.066-0.045
					c0.107-0.07,0.215-0.139,0.324-0.203c0.025-0.015,0.054-0.03,0.08-0.044c0.087-0.049,0.174-0.093,0.259-0.134
					c0.027-0.015,0.054-0.026,0.081-0.039C330.443,108.386,330.502,108.36,330.56,108.335z"/>
				<g>
					<path fill="#1C2433" d="M334.502,111.046c0.004,0.026,0.005,0.055,0.005,0.084c0,0.03,0,0.059-0.004,0.091
						c-0.075,2.721-1.958,6.161-4.349,7.542c-0.026,0.016-0.054,0.031-0.081,0.046c-2.385,1.324-4.502,0.306-4.462-2.544
						c0.038-2.736,1.935-6.237,4.353-7.634c0.025-0.015,0.054-0.03,0.08-0.044C332.476,107.238,334.408,108.315,334.502,111.046z
						 M332.932,113.965c0.286-0.729,0.453-1.48,0.464-2.192c-0.037-1.881-1.284-2.855-2.926-2.126
						c0.064,1.217,0.192,2.528,0.44,3.069C331.18,113.305,332.128,113.728,332.932,113.965 M326.722,115.625
						c0.015,0.67,0.182,1.225,0.464,1.628c0.781-1.141,1.656-2.541,1.927-3.456c0.244-0.826,0.385-2.3,0.465-3.611
						C327.988,111.396,326.686,113.709,326.722,115.625 M330.069,117.533c1.011-0.604,1.898-1.63,2.505-2.785
						c-0.797-0.172-1.81-0.262-2.513,0.144c-0.702,0.406-1.712,1.665-2.505,2.754c0.597,0.464,1.465,0.491,2.449-0.077
						C330.026,117.557,330.048,117.544,330.069,117.533"/>
				</g>
			</g>
			<g>
				<g>
					<polygon fill="#FF434C" points="341.104,105.969 359.866,131.038 352.077,135.564 322.268,116.916 					"/>
				</g>
				<g>
					<polygon fill="#054242" points="359.866,131.038 359.854,134.872 352.066,139.397 352.077,135.564 					"/>
				</g>
				<g>
					<polygon fill="#0E6569" points="352.077,135.564 352.066,139.397 322.258,120.75 322.268,116.916 					"/>
				</g>
			</g>
			<polygon fill="#FFFFFF" points="341.628,112.241 331.06,118.382 347.783,128.845 352.153,126.306 			"/>
			<path fill="#054242" d="M319.173,107.916c1.122,0.494,1.635,1.158,2.825,1.479c1.118,0.3,1.626,0.467,2.747,0.532
				c1.166,0.069,2.081,0.563,3.084,1.125c1.285,0.723,0.879,1.702-0.203,2.402c-1.517,0.98-3.35-0.28-4.824-0.75
				c-2.134-0.679-4.392-0.915-6.469-1.775C315.052,110.4,316.689,106.821,319.173,107.916z"/>
		</g>
		<g>
			<path fill="#FF434C" d="M347.712,123.424l-1.69,0.638l-3.658-2.855c-0.529-0.412-0.858-0.654-0.991-0.729
				c-0.132-0.073-0.28-0.111-0.448-0.111c-0.169,0-0.448,0.074-0.839,0.221l-0.167,0.064l-0.796-0.621
				c0.641-0.446,0.897-0.965,0.772-1.557l0.995-0.375L347.712,123.424z"/>
		</g>
	</g>
	<g>
		<defs>
			<rect id="SVGID_1_" x="-6" y="-79" width="400" height="400"/>
		</defs>
		<clipPath id="SVGID_2_">
			<use xlink:href="#SVGID_1_"  overflow="visible"/>
		</clipPath>
	</g>
	<g>
		<g>
			<g>
				<polygon fill="#7277B7" points="386.834,113.839 380.631,117.445 399.478,128.325 329.111,169.218 310.264,158.337 
					304.062,161.942 329.152,176.428 411.926,128.325 				"/>
				<polygon fill="#7277B7" points="230.733,161.269 249.577,172.149 179.212,213.04 160.366,202.16 154.163,205.765 
					179.253,220.25 262.025,172.149 236.937,157.663 				"/>
				<polygon fill="#7277B7" points="126.562,93.939 120.359,97.543 139.204,108.425 68.838,149.316 49.993,138.437 43.789,142.042 
					68.879,156.527 151.652,108.425 				"/>
				<polygon fill="#7277B7" points="220.144,106.306 201.297,95.425 195.094,99.029 220.185,113.515 302.958,65.413 277.867,50.927 
					271.663,54.531 290.51,65.413 				"/>
			</g>
			<g>
				<polygon fill="#7277B7" points="262.735,300.616 288.322,285.748 262.567,270.879 236.982,285.748 				"/>
				<polygon fill="#7277B7" points="185.661,285.736 211.415,300.606 236.982,285.748 211.229,270.88 				"/>
				<polygon fill="#7277B7" points="236.814,256.011 262.567,270.879 288.154,256.011 262.4,241.142 				"/>
				<polygon fill="#7277B7" points="365.06,241.151 390.646,226.282 364.894,211.413 339.308,226.283 				"/>
				<polygon fill="#7277B7" points="313.907,270.878 339.493,256.011 313.74,241.142 288.154,256.011 				"/>
				<polygon fill="#7277B7" points="287.986,226.272 313.74,241.142 339.308,226.283 313.553,211.413 				"/>
				<polygon fill="#7277B7" points="339.139,196.546 364.894,211.413 390.479,196.545 364.725,181.677 				"/>
				<polygon fill="#7277B7" points="416.231,211.413 441.8,196.556 416.046,181.688 390.479,196.545 				"/>
			</g>
		</g>
	</g>
</g>
<g id="DESIGNED_BY_FREEPIK">
</g>
</svg>
