<?xml version="1.0" encoding="utf-8"?>
<!-- Generator: Adobe Illustrator 16.0.0, SVG Export Plug-In . SVG Version: 6.00 Build 0)  -->
<!DOCTYPE svg PUBLIC "-//W3C//DTD SVG 1.1//EN" "http://www.w3.org/Graphics/SVG/1.1/DTD/svg11.dtd">
<svg version="1.1" id="Layer_1" xmlns="http://www.w3.org/2000/svg" xmlns:xlink="http://www.w3.org/1999/xlink" x="0px" y="0px"
	 width="40px" height="40px" viewBox="0 0 40 40" enable-background="new 0 0 40 40" xml:space="preserve">
<g>
	<path fill="#E56353" d="M19.962,36.671c0,0-3.175-4.281-1.047-6.323l-0.747,0.009c-0.506,0.561-2.121,2.957,1.825,7.624V38
		c0.002-0.004,0.005-0.007,0.007-0.011c0.003,0.004,0.005,0.007,0.008,0.011v-0.02c4.074-4.82,2.219-7.218,1.779-7.672l-0.808,0.011
		C21.34,30.69,23.184,32.914,19.962,36.671z"/>
	<path fill="#FCD462" d="M20.041,31.238v-0.005c-0.146-0.244-0.28-0.548-0.402-0.896l-0.729,0.011
		c-2.128,2.042,1.047,6.323,1.047,6.323c3.222-3.757,1.376-5.98,1.017-6.352l-0.498,0.007c-0.12,0.377-0.256,0.702-0.406,0.96
		C20.06,31.271,20.051,31.253,20.041,31.238z"/>
	<g>
		<path fill="#E56353" d="M20.476,30.326l0.498-0.007l0.809-0.011l0.922-0.014l-0.014-0.973c-0.619-0.138-1.261-0.216-1.916-0.242
			C20.693,29.54,20.592,29.957,20.476,30.326z"/>
		<path fill="#E56353" d="M19.638,30.337c-0.126-0.362-0.239-0.774-0.333-1.23c-0.692,0.061-1.361,0.191-2.009,0.373l0.012,0.888
			l0.853-0.011l0.748-0.009L19.638,30.337z"/>
	</g>
	<g>
		<path fill="#64798A" d="M10.578,30.512c0.017,1.187,0.263,2.317,0.692,3.355c0.881-2.307,2.673-4.174,4.95-5.185
			c-0.781-1.713-1.389-3.657-1.766-5.771C12.071,24.622,10.535,27.394,10.578,30.512z"/>
		<path fill="#64798A" d="M29.324,29.098c0.013,0.094,0.03,0.188,0.041,0.283C29.354,29.285,29.337,29.193,29.324,29.098z"/>
		<path fill="#64798A" d="M29.151,28.205c0.026,0.104,0.053,0.212,0.075,0.318C29.204,28.417,29.178,28.31,29.151,28.205z"/>
		<path fill="#64798A" d="M28.907,27.374c0.037,0.104,0.069,0.209,0.103,0.316C28.977,27.583,28.944,27.479,28.907,27.374z"/>
		<path fill="#64798A" d="M28.592,26.588c0.043,0.094,0.08,0.19,0.121,0.286C28.673,26.778,28.635,26.682,28.592,26.588z"/>
		<path fill="#64798A" d="M28.393,32.746c-0.032-0.06-0.063-0.118-0.097-0.175C28.329,32.628,28.36,32.687,28.393,32.746z"/>
		<path fill="#64798A" d="M25.386,22.801c-0.017-0.012-0.032-0.024-0.049-0.035v0.002C25.353,22.778,25.37,22.789,25.386,22.801z"/>
		<path fill="#64798A" d="M26.3,30.158c-0.02-0.016-0.039-0.033-0.061-0.051C26.261,30.125,26.28,30.143,26.3,30.158z"/>
		<path fill="#64798A" d="M27.038,30.867c0.023,0.023,0.044,0.05,0.066,0.074C27.082,30.917,27.062,30.891,27.038,30.867z"/>
		<path fill="#64798A" d="M24.474,28.925c-0.009-0.004-0.017-0.009-0.024-0.011C24.457,28.916,24.465,28.921,24.474,28.925z"/>
		<path fill="#64798A" d="M27.771,31.753c-0.02-0.026-0.041-0.05-0.06-0.076C27.729,31.703,27.751,31.727,27.771,31.753z"/>
		<path fill="#64798A" d="M25.798,23.095c0.097,0.074,0.189,0.152,0.283,0.231C25.987,23.247,25.895,23.169,25.798,23.095z"/>
		<path fill="#64798A" d="M26.438,23.634c0.09,0.085,0.179,0.17,0.266,0.255C26.616,23.804,26.527,23.719,26.438,23.634z"/>
		<path fill="#64798A" d="M27.592,24.914c0.061,0.081,0.124,0.16,0.182,0.242C27.716,25.074,27.652,24.995,27.592,24.914z"/>
		<path fill="#64798A" d="M27.031,24.236c0.08,0.087,0.16,0.174,0.235,0.264C27.191,24.41,27.111,24.323,27.031,24.236z"/>
		<path fill="#64798A" d="M28.211,25.842c0.033,0.057,0.059,0.118,0.092,0.175C28.27,25.96,28.244,25.898,28.211,25.842z"/>
		<path fill="#64798A" d="M24.474,28.925c0.635,0.33,1.226,0.727,1.766,1.183c0.021,0.018,0.041,0.035,0.061,0.051
			c0.26,0.225,0.506,0.46,0.738,0.709c0.023,0.023,0.044,0.05,0.066,0.074c0.214,0.235,0.417,0.479,0.606,0.735
			c0.019,0.026,0.04,0.05,0.06,0.076c0.189,0.262,0.363,0.537,0.525,0.818c0.033,0.057,0.064,0.115,0.097,0.175
			c0.156,0.288,0.305,0.58,0.431,0.886c0.4-1.05,0.615-2.187,0.599-3.374c-0.004-0.296-0.024-0.589-0.057-0.877
			c-0.011-0.096-0.028-0.189-0.041-0.283c-0.027-0.192-0.059-0.384-0.098-0.574c-0.022-0.106-0.049-0.214-0.075-0.318
			c-0.041-0.175-0.089-0.345-0.142-0.515c-0.033-0.105-0.066-0.212-0.103-0.316c-0.061-0.171-0.127-0.336-0.195-0.5
			c-0.04-0.096-0.077-0.192-0.12-0.286c-0.09-0.194-0.188-0.384-0.29-0.571c-0.032-0.057-0.058-0.118-0.091-0.175
			c-0.135-0.235-0.282-0.465-0.438-0.686c-0.057-0.082-0.121-0.161-0.181-0.242c-0.106-0.142-0.212-0.279-0.325-0.414
			c-0.077-0.09-0.155-0.177-0.235-0.264c-0.106-0.118-0.216-0.234-0.328-0.348c-0.087-0.085-0.177-0.17-0.266-0.255
			c-0.116-0.104-0.236-0.207-0.356-0.308c-0.094-0.079-0.188-0.157-0.283-0.231c-0.133-0.103-0.272-0.198-0.412-0.294
			c-0.017-0.012-0.033-0.022-0.049-0.033c-0.319,2.125-0.875,4.089-1.61,5.826c0.245,0.1,0.489,0.2,0.723,0.32
			C24.457,28.916,24.465,28.921,24.474,28.925z"/>
	</g>
	<g>
		<path fill="#EBF0F3" d="M20.557,2.971c0.173,0.173,0.344,0.35,0.51,0.54C20.9,3.321,20.729,3.144,20.557,2.971z"/>
		<path fill="#EBF0F3" d="M21.165,3.629c0.172,0.201,0.342,0.406,0.507,0.623C21.507,4.035,21.338,3.83,21.165,3.629z"/>
		<path fill="#EBF0F3" d="M21.729,4.332c0.177,0.236,0.35,0.478,0.517,0.732C22.078,4.811,21.905,4.568,21.729,4.332z"/>
		<path fill="#EBF0F3" d="M19.686,2.34L19.686,2.34c-1.716,1.541-3.138,3.856-4.108,6.665C16.548,6.196,17.97,3.881,19.686,2.34z"/>
		<path fill="#EBF0F3" d="M24.169,8.895L24.169,8.895l0.001,0.001C23.64,7.488,23,6.211,22.269,5.099
			C22.998,6.212,23.64,7.488,24.169,8.895L24.169,8.895z"/>
		<path fill="#EBF0F3" d="M20.435,2.843c-0.214-0.209-0.432-0.407-0.655-0.592l-0.001,0.001h0
			C20.002,2.436,20.221,2.633,20.435,2.843z"/>
		<path fill="#EBF0F3" d="M25.508,22.768v-0.002c0.227-1.506,0.336-3.088,0.313-4.723c-0.042-2.994-0.524-5.807-1.339-8.271
			c-4.257-0.568-9.162,0.042-9.162,0.042l0.252-0.793c-0.926,2.688-1.44,5.826-1.393,9.177c0.023,1.634,0.177,3.213,0.444,4.715
			c0.377,2.111,0.986,4.056,1.767,5.769c0.144,0.316,0.29,0.631,0.445,0.93c0.153-0.05,0.311-0.09,0.467-0.133
			c0.648-0.182,1.317-0.313,2.009-0.373c-0.189-0.917-0.308-1.999-0.324-3.164c-0.032-2.302,0.34-4.301,0.913-5.318v-0.005
			c0.009-0.014,0.018-0.033,0.026-0.049c0.615,0.987,1.056,3.005,1.089,5.344c0.016,1.161-0.071,2.245-0.233,3.166
			c0.653,0.026,1.295,0.104,1.916,0.242c0.266,0.057,0.528,0.124,0.787,0.2c0.146-0.299,0.279-0.612,0.413-0.929
			C24.633,26.856,25.189,24.893,25.508,22.768z"/>
	</g>
	<path fill="#FCD462" d="M24.577,9.772C24.605,9.775,24.548,9.768,24.577,9.772l-0.313-0.876V8.895l0,0
		c-0.682-0.036-1.372-0.061-2.07-0.075c-0.41-0.009-0.827-0.005-1.241-0.006c-0.329,0-0.653-0.008-0.986-0.003
		c-1.463,0.02-2.896,0.089-4.294,0.2l0,0h-0.001l-0.003,0.012l-0.253,0.793C15.415,9.814,20.32,9.204,24.577,9.772z"/>
	<path fill="#3A556A" d="M19.644,30.337c0.122,0.349,0.257,0.652,0.403,0.896v0.005c0.01,0.015,0.019,0.032,0.028,0.048
		c0.149-0.258,0.286-0.583,0.406-0.96c0.116-0.369,0.218-0.786,0.299-1.248c0.163-0.919,0.25-2.003,0.234-3.164
		c-0.033-2.339-0.474-4.357-1.089-5.344c-0.009,0.016-0.017,0.034-0.027,0.049v0.005c-0.572,1.018-0.944,3.017-0.912,5.318
		c0.016,1.165,0.134,2.247,0.324,3.164C19.406,29.563,19.518,29.975,19.644,30.337z"/>
	<path fill="#E56353" d="M19.999,8.81c0.333-0.004,0.658,0.003,0.986,0.003c0.414,0.001,0.831-0.002,1.241,0.006
		c0.698,0.014,1.388,0.04,2.071,0.075l0,0c-0.529-1.406-1.17-2.683-1.9-3.795c-0.008-0.012-0.016-0.024-0.022-0.035
		c-0.168-0.253-0.34-0.496-0.517-0.732c-0.02-0.026-0.038-0.055-0.059-0.08c-0.164-0.217-0.335-0.422-0.507-0.623
		c-0.033-0.038-0.064-0.081-0.099-0.119c-0.165-0.19-0.337-0.367-0.509-0.54c-0.041-0.042-0.08-0.087-0.122-0.128
		c-0.214-0.209-0.433-0.407-0.656-0.592l-0.001,0.001c-0.031,0.027-0.062,0.058-0.093,0.085l0,0.003l0,0
		c-1.716,1.542-3.138,3.856-4.107,6.665c0,0.002-0.001,0.003-0.002,0.004l0,0l0,0C17.103,8.899,18.535,8.829,19.999,8.81z"/>
	<path fill="#FCD462" d="M22.581,14.874c-0.02-1.379-1.176-2.5-2.58-2.5h-0.036c-0.688,0.01-1.333,0.281-1.814,0.768
		c-0.481,0.485-0.742,1.125-0.732,1.801c0.019,1.379,1.178,2.5,2.581,2.501l0.035-0.001C21.459,17.424,22.602,16.271,22.581,14.874z
		 M20.027,16.828c-1.079,0.014-1.967-0.835-1.982-1.893c-0.015-1.058,0.851-1.931,1.929-1.945c1.078-0.015,1.966,0.834,1.981,1.893
		C21.97,15.94,21.104,16.813,20.027,16.828z"/>
	
		<ellipse transform="matrix(0.014 0.9999 -0.9999 0.014 34.6276 -5.2987)" fill="#3A556A" cx="20" cy="14.908" rx="1.919" ry="1.954"/>
</g>
</svg>
